<svg width="22" height="44" viewBox="0 0 22 44" fill="none" xmlns="http://www.w3.org/2000/svg">
<path d="M0.00743294 21.9655C0.00599861 21.2324 0.261616 20.522 0.729916 19.9576L16.4361 1.13338C16.9693 0.492678 17.7355 0.0897639 18.5661 0.0132758C19.3967 -0.0632124 20.2237 0.192991 20.8652 0.725523C21.5067 1.25805 21.9101 2.02329 21.9867 2.8529C22.0633 3.6825 21.8068 4.50851 21.2736 5.14921L7.20086 21.9655L20.771 38.7818C21.0319 39.1027 21.2268 39.4719 21.3444 39.8683C21.4619 40.2647 21.4999 40.6804 21.4561 41.0914C21.4124 41.5025 21.2877 41.9009 21.0892 42.2637C20.8908 42.6265 20.6225 42.9466 20.2998 43.2055C19.9768 43.4928 19.5979 43.7104 19.1868 43.8446C18.7757 43.9789 18.3413 44.0269 17.9107 43.9857C17.4802 43.9444 17.0628 43.8148 16.6847 43.605C16.3066 43.3952 15.976 43.1096 15.7136 42.7662L0.541443 23.942C0.147167 23.3614 -0.0408516 22.6654 0.00743294 21.9655Z" fill="white"/>
</svg>
