<svg width="406" height="135" viewBox="0 0 406 135" fill="none" xmlns="http://www.w3.org/2000/svg">
<g filter="url(#filter0_i)">
<path d="M302.796 110.807C294.465 122.315 281.984 130.715 267.919 133.317C255.916 135.537 240.26 133.629 231.235 124.542C229.264 122.557 228.298 119.486 229.784 116.934C229.683 117.924 229.917 119.015 230.581 120.113C230.841 120.84 231.286 121.609 231.93 122.303C245.875 137.35 273.249 133.035 288.461 121.969C273.315 126.831 258.609 123.192 246.297 114.331C245.684 113.891 244.981 113.542 244.292 113.254C243.348 112.659 242.345 112.237 241.307 111.958C244.006 111.967 246.788 112.599 249.064 113.92C266.204 123.862 286.509 123.185 302.796 110.807Z" fill="#071742"/>
<path d="M243.045 120.327C241.88 123.024 238.735 124.272 236.033 123.11C233.331 121.949 232.081 118.811 233.246 116.114C234.409 113.419 237.555 112.171 240.258 113.334C242.959 114.494 244.209 117.632 243.045 120.327Z" fill="#071742"/>
<path fill-rule="evenodd" clip-rule="evenodd" d="M109.834 1.12293C138.154 -4.15959 165.622 9.62684 178.992 33.4055C183.231 40.9428 193.538 44.9161 199.602 38.7448C203.9 34.3711 205.832 30.7579 205.266 27.7345C204.729 24.8593 201.564 22.5772 196.44 22.1953H183.219C180.165 22.1953 179.279 19.6752 182.324 19.4293L189.681 18.8339L195.527 18.3215L198.266 18.35C201.993 18.35 223.886 17.6146 224.744 22.1953C225.904 28.4088 214.032 41.7213 193.648 54.9268C189.68 57.4975 187.464 62.0174 187.379 66.7372C187.142 79.9069 182.915 92.4128 175.676 102.834C179.839 95.5233 182.55 87.3577 183.498 78.7883C184.428 70.3779 175.155 65.8707 167.651 69.8138C152.527 77.7613 135.205 85.8905 116.673 93.5751C54.5572 119.337 2.34492 130.373 0.0765788 118.22C-1.49034 109.837 21.1217 92.6053 55.689 74.2634C29.867 89.635 13.544 103.809 14.923 111.196C16.8847 121.696 53.9414 114.897 100.571 96.2156C62.5057 109.301 33.9187 113.032 32.2352 104.018C31.1855 98.3903 40.8164 88.8632 57.218 78.0285C57.3891 77.9156 57.4778 77.7091 57.439 77.5081C50.8028 41.9606 74.2639 7.7533 109.834 1.12293ZM173.52 58.2797C178.057 55.4512 180.1 49.8412 177.808 45.0174C165.913 19.9768 138.274 5.03231 109.727 10.3556C84.8297 14.9994 66.1372 33.7724 60.3991 56.8328C58.18 65.751 68.2043 71.0344 76.2501 66.5624C76.93 66.184 77.6166 65.8057 78.3081 65.4267C72.4037 69.0856 67.1032 72.6808 62.5459 76.1144C60.2872 77.816 59.1185 80.6107 59.6337 83.3866C60.1639 86.2215 60.8793 88.9731 61.7643 91.6397C59.485 86.3945 52.569 84.0462 48.8857 88.4247C45.6791 92.2366 44.1394 95.5215 44.6089 98.035C46.6132 108.769 84.4973 101.368 129.208 81.5028C145.825 74.12 161.049 66.0528 173.52 58.2797Z" fill="#071742"/>
<path d="M214.973 64.6525C214.996 65.1274 215.647 65.3181 215.924 64.9312C216.785 63.727 217.687 62.6108 218.629 61.5839C219.164 60.9906 219.743 60.4124 220.367 59.849C220.991 59.2856 221.63 58.7815 222.284 58.3367C222.968 57.8919 223.666 57.5361 224.38 57.2692C225.093 57.0023 225.807 56.8689 226.519 56.8689C228.036 56.8689 229.224 57.3285 230.086 58.2477C230.948 59.1374 231.379 60.3976 231.379 62.0284C231.379 63.0365 231.29 64.0155 231.111 64.964C230.978 65.7887 230.713 66.7804 230.317 67.9397C230.234 68.1827 230.004 68.3442 229.746 68.3442H229.43C229.138 68.3442 228.891 68.1365 228.806 67.8584C228.59 67.1551 228.213 66.5612 227.679 66.076C227.025 65.4535 226.074 65.142 224.825 65.142C223.904 65.142 222.997 65.3199 222.106 65.6758C221.215 66.0019 220.337 66.4173 219.476 66.9213C218.643 67.4254 217.841 67.9738 217.068 68.5671C216.409 69.093 215.796 69.5964 215.23 70.0756C215.095 70.1904 215.017 70.3592 215.017 70.5365V99.124C215.017 99.5096 214.958 99.9693 214.839 100.503C214.72 101.037 214.423 101.541 213.947 102.015C213.502 102.49 212.818 102.89 211.897 103.216C211.005 103.572 209.772 103.75 208.196 103.75C206.621 103.75 205.373 103.557 204.452 103.172C203.56 102.816 202.876 102.386 202.4 101.882C201.925 101.378 201.628 100.859 201.509 100.325C201.39 99.7914 201.331 99.3614 201.331 99.0353V64.6974C201.331 63.8375 201.123 63.096 200.706 62.4736C200.32 61.8207 199.652 61.4946 198.7 61.4946C198.195 61.4946 197.764 61.5839 197.407 61.7618C197.19 61.8699 196.962 62.0059 196.723 62.1693C196.452 62.3545 196.081 62.3187 195.87 62.0679L195.707 61.8748C195.489 61.6161 195.524 61.2298 195.791 61.0227C196.345 60.5931 196.943 60.1722 197.586 59.7601C198.448 59.1966 199.369 58.7074 200.35 58.2923C201.331 57.8771 202.386 57.5361 203.515 57.2692C204.645 57.0023 205.833 56.8689 207.082 56.8689C208.36 56.8689 209.445 57.0468 210.337 57.4026C211.258 57.7288 212.001 58.1736 212.566 58.737C213.16 59.2708 213.62 59.8787 213.947 60.5607C214.274 61.2426 214.512 61.9397 214.661 62.6509C214.839 63.3335 214.943 64.0003 214.973 64.6525Z" fill="#071742"/>
<path d="M262.186 80.8876C262.186 78.3078 262.052 75.8908 261.784 73.6372C261.517 71.3544 261.086 69.3673 260.492 67.6772C259.897 65.9574 259.139 64.608 258.218 63.6297C257.297 62.6216 256.182 62.1175 254.874 62.1175C253.864 62.1175 253.002 62.3695 252.288 62.8736C251.605 63.3479 251.04 63.8963 250.594 64.5193C250.149 65.1418 249.822 65.7643 249.614 66.3874C249.405 66.9801 249.301 67.3809 249.301 67.588V80.8876C249.301 87.3515 249.836 92.0519 250.906 94.9876C252.006 97.9232 253.611 99.391 255.721 99.391C257.95 99.391 259.585 97.8934 260.626 94.8983C261.666 91.9032 262.186 87.2331 262.186 80.8876ZM235.615 41.6569C235.615 40.797 235.407 40.0557 234.99 39.433C234.604 38.7806 233.935 38.4544 232.985 38.4544C232.479 38.4544 232.033 38.5433 231.647 38.7213C231.431 38.8109 231.205 38.9331 230.967 39.0878C230.692 39.2675 230.32 39.2321 230.109 38.9796L229.987 38.834C229.771 38.5755 229.807 38.1906 230.073 37.9841C230.628 37.5538 231.227 37.1323 231.87 36.7197C232.732 36.1563 233.653 35.6671 234.634 35.2519C235.615 34.8368 236.67 34.4958 237.799 34.2289C238.929 33.962 240.117 33.8286 241.366 33.8286C243.09 33.8286 244.472 34.0955 245.512 34.6292C246.582 35.1333 247.385 35.7708 247.92 36.5418C248.484 37.2831 248.856 38.0986 249.034 38.9882C249.212 39.8481 249.301 40.6487 249.301 41.39V59.8472C249.301 60.3756 249.938 60.6594 250.341 60.3165C250.451 60.2232 250.564 60.1266 250.684 60.0268C251.248 59.5226 251.961 59.0334 252.823 58.5589C253.685 58.0845 254.711 57.6842 255.9 57.358C257.118 57.0319 258.545 56.8687 260.179 56.8687C262.082 56.8687 263.984 57.3135 265.886 58.2031C267.788 59.063 269.497 60.4271 271.013 62.2955C272.529 64.1635 273.762 66.5653 274.713 69.5009C275.665 72.4366 276.14 75.9649 276.14 80.0866C276.14 83.3191 275.694 86.3732 274.803 89.2493C273.941 92.126 272.648 94.6463 270.924 96.8106C269.2 98.9459 267.045 100.636 264.46 101.881C261.874 103.127 258.872 103.75 255.454 103.75C251.739 103.75 248.603 103.157 246.047 101.971C243.521 100.755 241.484 99.139 239.939 97.1222C238.394 95.0762 237.279 92.7042 236.595 90.0054C235.942 87.3072 235.615 84.4608 235.615 81.4657V41.6569Z" fill="#071742"/>
<path d="M367.622 95.2987C367.622 95.5659 367.637 95.8622 367.667 96.1883C367.696 96.4847 367.771 96.7816 367.889 97.078C368.009 97.3446 368.187 97.5675 368.424 97.7454C368.662 97.9233 369.004 98.012 369.45 98.012C370.015 98.012 370.52 97.8195 370.966 97.4339C371.259 97.1612 371.539 96.8879 371.806 96.6153C372.036 96.3802 372.411 96.3602 372.659 96.5764L372.869 96.7604C373.105 96.9657 373.146 97.3167 372.957 97.565C372.572 98.0703 372.116 98.6199 371.59 99.2132C370.936 99.9541 370.134 100.666 369.182 101.348C368.232 102.03 367.147 102.593 365.928 103.038C364.71 103.513 363.327 103.75 361.782 103.75C360.474 103.75 359.33 103.572 358.349 103.216C357.398 102.89 356.58 102.445 355.897 101.882C355.243 101.289 354.753 100.606 354.426 99.8357C354.099 99.0353 353.936 98.1899 353.936 97.3003V96.8485C353.936 96.2964 353.25 96.0244 352.857 96.4142C351.699 97.5626 350.498 98.5993 349.254 99.5242C348.541 100.058 347.783 100.577 346.981 101.081C346.178 101.585 345.346 102.045 344.484 102.46C343.622 102.845 342.73 103.157 341.809 103.394C340.888 103.631 339.966 103.75 339.045 103.75C337.262 103.75 335.731 103.439 334.453 102.816C333.205 102.163 332.194 101.318 331.421 100.28C330.649 99.2424 330.084 98.0715 329.727 96.7665C329.371 95.462 329.192 94.157 329.192 92.8525V65.3199C329.192 65.0533 329.178 64.7715 329.148 64.4746C329.118 64.1485 329.044 63.8521 328.925 63.5855C328.806 63.2885 328.627 63.0517 328.39 62.8738C328.152 62.6958 327.81 62.6066 327.364 62.6066C326.829 62.6066 326.324 62.8142 325.849 63.2296C325.564 63.4756 325.298 63.727 325.05 63.9851C324.819 64.2256 324.439 64.2578 324.183 64.0434L323.961 63.8576C323.718 63.6535 323.672 63.297 323.864 63.0444C324.242 62.5476 324.681 62.0163 325.18 61.4503C325.863 60.6793 326.681 59.9528 327.632 59.2708C328.583 58.5887 329.668 58.0254 330.886 57.5806C332.135 57.1061 333.517 56.8689 335.033 56.8689C336.34 56.8689 337.485 57.0468 338.466 57.4026C339.446 57.7288 340.264 58.1885 340.918 58.7815C341.571 59.3449 342.062 60.0269 342.389 60.8278C342.716 61.5985 342.879 62.4286 342.879 63.3183V93.0304C342.879 93.4458 342.938 93.8758 343.058 94.3203C343.206 94.7357 343.399 95.1207 343.637 95.4766C343.904 95.8325 344.231 96.1288 344.618 96.3663C345.004 96.574 345.465 96.6778 346 96.6778C346.862 96.6778 347.724 96.4555 348.586 96.0104C349.448 95.5659 350.235 95.0466 350.948 94.4539C351.662 93.8308 352.271 93.2229 352.776 92.6302C353.22 92.1383 353.561 91.7484 353.801 91.4606C353.889 91.3543 353.936 91.2207 353.936 91.0829V65.3199C353.936 65.0533 353.921 64.7715 353.891 64.4746C353.861 64.1485 353.787 63.8521 353.668 63.5855C353.549 63.2885 353.371 63.0517 353.133 62.8738C352.895 62.6958 352.553 62.6066 352.108 62.6066C351.573 62.6066 351.068 62.8142 350.592 63.2296C350.307 63.4756 350.041 63.727 349.793 63.9851C349.562 64.2256 349.182 64.2578 348.927 64.0434L348.705 63.8576C348.461 63.6535 348.415 63.297 348.607 63.0444C348.985 62.5476 349.424 62.0163 349.923 61.4503C350.607 60.6793 351.424 59.9528 352.375 59.2708C353.326 58.5887 354.411 58.0254 355.63 57.5806C356.878 57.1061 358.26 56.8689 359.776 56.8689C361.084 56.8689 362.228 57.0468 363.209 57.4026C364.189 57.7288 365.007 58.1885 365.66 58.7815C366.315 59.3449 366.805 60.0269 367.132 60.8278C367.458 61.5985 367.622 62.4286 367.622 63.3183V95.2987Z" fill="#071742"/>
<path d="M393.703 60.4272C393.019 60.4272 392.365 60.5162 391.741 60.6941C391.146 60.8721 390.612 61.1685 390.136 61.5839C389.66 61.9689 389.289 62.4736 389.021 63.096C388.754 63.6887 388.62 64.4005 388.62 65.2312C388.62 66.3875 389.037 67.5438 389.869 68.7001C390.731 69.8272 391.785 71.0132 393.034 72.2588C394.312 73.4746 395.679 74.7493 397.135 76.0841C398.622 77.3885 399.989 78.7823 401.237 80.2647C402.515 81.7179 403.57 83.2744 404.402 84.9353C405.264 86.5956 405.695 88.375 405.695 90.2727C405.695 92.408 405.323 94.3057 404.581 95.9661C403.867 97.6264 402.827 99.0353 401.46 100.192C400.123 101.348 398.488 102.238 396.556 102.86C394.654 103.453 392.529 103.75 390.181 103.75C388.13 103.75 386.272 103.468 384.608 102.905C382.944 102.312 381.457 101.6 380.15 100.77C378.871 99.9098 377.772 99.0055 376.85 98.0563C376.116 97.2997 375.513 96.5995 375.043 95.9557C374.851 95.6928 374.92 95.3272 375.186 95.1377L375.82 94.6859C376.076 94.5037 376.427 94.5462 376.643 94.774C376.958 95.1049 377.325 95.4578 377.742 95.8325C378.337 96.3365 378.991 96.8108 379.704 97.2559C380.447 97.7005 381.234 98.0715 382.066 98.3679C382.899 98.6345 383.746 98.7681 384.608 98.7681C386.748 98.7681 388.502 98.264 389.869 97.2559C391.236 96.2181 391.919 94.6908 391.919 92.6746C391.919 91.548 391.548 90.3912 390.805 89.2051C390.062 87.9893 389.125 86.7438 387.996 85.4691C386.867 84.1938 385.648 82.8742 384.34 81.5102C383.032 80.1462 381.814 78.7379 380.685 77.2847C379.555 75.8321 378.619 74.3345 377.876 72.7926C377.133 71.2507 376.762 69.6493 376.762 67.9889C376.762 66.1203 377.133 64.4897 377.876 63.096C378.649 61.7023 379.659 60.5458 380.907 59.6266C382.186 58.7074 383.627 58.0254 385.232 57.5806C386.867 57.1061 388.546 56.8689 390.27 56.8689C392.261 56.8689 394.074 57.0468 395.709 57.4026C397.343 57.7585 398.74 58.3071 399.899 59.0484C401.088 59.7601 401.995 60.6644 402.619 61.7618C403.273 62.8586 403.6 64.1339 403.6 65.5865C403.6 66.7136 403.228 67.692 402.485 68.5221C401.743 69.3529 400.702 69.7677 399.364 69.7677C398.087 69.7677 397.105 69.5011 396.422 68.9673C395.768 68.4037 395.441 67.6476 395.441 66.6991C395.441 66.076 395.59 65.5865 395.887 65.2312C396.214 64.8754 396.571 64.5936 396.957 64.3859C397.343 64.1485 397.686 63.9559 397.983 63.8078C398.309 63.6298 398.473 63.4076 398.473 63.1404C398.473 62.3102 398.027 61.658 397.135 61.1837C396.244 60.6793 395.1 60.4272 393.703 60.4272Z" fill="#071742"/>
<path d="M320.32 63.8521C320.32 69.2788 319.785 74.527 318.715 79.5978C317.675 84.6389 316.219 89.3831 314.347 93.8308C312.503 98.2495 310.304 102.282 307.748 105.929C305.401 109.307 303.434 110.718 300.803 112.948C300.466 113.234 299.944 113.088 299.815 112.666C298.321 107.756 293.637 92.6399 292.501 89.2944C291.312 85.7059 290.078 82.2517 288.801 78.9304C287.552 75.58 286.319 72.6146 285.101 70.0349C283.912 67.4551 282.752 65.394 281.623 63.8521C280.523 62.2804 279.543 61.4946 278.681 61.4946C278.116 61.4946 277.685 61.5839 277.388 61.7618C277.193 61.8675 276.983 61.9993 276.757 62.1578C276.483 62.3497 276.105 62.3078 275.896 62.0478L275.75 61.8663C275.545 61.6094 275.581 61.2365 275.833 61.0252C276.29 60.6414 276.763 60.2494 277.254 59.849C277.908 59.3152 278.681 58.826 279.572 58.3812C280.464 57.9364 281.504 57.5806 282.693 57.3137C283.882 57.0172 285.308 56.8689 286.973 56.8689C288.786 56.8689 290.465 57.284 292.01 58.1143C293.586 58.915 295.013 60.4124 296.29 62.6066C297.212 64.2377 298.163 66.1944 299.144 68.4778C300.154 70.7612 301.165 73.3112 302.175 76.1284C303.186 78.9456 304.196 81.9997 305.207 85.2912C306.098 88.0847 306.989 90.9985 307.88 94.0319C308.037 94.5675 308.771 94.6252 308.999 94.1157C310.535 90.6924 311.797 87.0985 312.786 83.3339C313.916 79.0045 314.48 74.5568 314.48 69.99C314.48 68.3594 314.376 66.9657 314.168 65.8094C313.96 64.6525 313.722 63.6742 313.455 62.8738C313.187 62.0436 312.95 61.3464 312.741 60.7829C312.533 60.19 312.429 59.6711 312.429 59.2263C312.429 58.7815 312.607 58.4109 312.964 58.1143C313.321 57.7882 313.752 57.5361 314.257 57.3582C314.762 57.1803 315.267 57.0617 315.773 57.0023C316.308 56.9134 316.754 56.8689 317.111 56.8689C317.913 56.8689 318.522 57.032 318.939 57.3582C319.384 57.6844 319.711 58.1588 319.919 58.7815C320.127 59.3746 320.246 60.1011 320.276 60.9608C320.306 61.8207 320.32 62.7845 320.32 63.8521Z" fill="#071742"/>
</g>
<defs>
<filter id="filter0_i" x="0" y="0" width="405.695" height="138.161" filterUnits="userSpaceOnUse" color-interpolation-filters="sRGB">
<feFlood flood-opacity="0" result="BackgroundImageFix"/>
<feBlend mode="normal" in="SourceGraphic" in2="BackgroundImageFix" result="shape"/>
<feColorMatrix in="SourceAlpha" type="matrix" values="0 0 0 0 0 0 0 0 0 0 0 0 0 0 0 0 0 0 127 0" result="hardAlpha"/>
<feOffset dy="4"/>
<feGaussianBlur stdDeviation="2"/>
<feComposite in2="hardAlpha" operator="arithmetic" k2="-1" k3="1"/>
<feColorMatrix type="matrix" values="0 0 0 0 0 0 0 0 0 0 0 0 0 0 0 0 0 0 1 0"/>
<feBlend mode="normal" in2="shape" result="effect1_innerShadow"/>
</filter>
</defs>
</svg>
