<svg width="364" height="381" viewBox="0 0 364 381" fill="none" xmlns="http://www.w3.org/2000/svg">
<g filter="url(#filter0_d)">
<g filter="url(#filter1_d)">
<path fill-rule="evenodd" clip-rule="evenodd" d="M137.072 97.0578C186.799 71.3393 248.066 90.6043 273.914 140.087C299.762 189.569 280.405 250.536 230.674 276.257C180.944 301.976 119.678 282.716 93.8296 233.228C67.9816 183.745 87.3426 122.784 137.072 97.0578Z" fill="#12268B"/>
</g>
<g filter="url(#filter2_d)">
<path d="M352.861 266.464C357.383 255.925 328.779 232.395 282.044 205.686C281.804 207.25 281.512 208.809 281.194 210.366C280.631 212.681 279.456 217.562 279.016 219.045C293.701 229.625 301.5 238.26 299.45 243.042C297.377 247.877 285.565 247.971 267.531 244.226C243.425 239.216 208.196 227.325 170.101 210.618C135.286 195.353 105.009 179.092 84.7133 165.437C66.1976 152.974 55.9826 142.668 58.2961 137.273C60.5816 131.939 74.7017 132.362 95.9729 137.361C96.6453 136.226 97.3165 135.102 99.1365 132.337L100.11 130.92C101.138 129.441 102.203 127.992 103.303 126.58C48.8719 108.761 9.58447 102.888 4.88584 113.851C0.150581 124.902 31.7831 150.214 82.5513 178.494C106.726 191.961 135.224 206.095 166.218 219.685C199.67 234.36 231.601 246.458 259.311 255.313C311.205 271.893 348.302 277.095 352.861 266.464Z" fill="#A835A8"/>
</g>
</g>
<g filter="url(#filter3_bd)">
<rect x="4.37109" y="153" width="350" height="75" rx="37.5" fill="#C4C4C4" fill-opacity="0.06"/>
</g>
<path d="M95.1279 181.778C95.0596 183.263 94.6592 184.576 93.9268 185.719C93.1943 186.852 92.1641 187.73 90.8359 188.355C89.5176 188.98 88.0088 189.293 86.3096 189.293C83.5068 189.293 81.2998 188.38 79.6885 186.554C78.0771 184.728 77.2715 182.149 77.2715 178.819V177.765C77.2715 175.675 77.6328 173.849 78.3555 172.286C79.0879 170.714 80.1377 169.503 81.5049 168.653C82.8721 167.794 84.4541 167.364 86.251 167.364C88.8389 167.364 90.9189 168.048 92.4912 169.415C94.0635 170.772 94.957 172.647 95.1719 175.04H90.0449C90.0059 173.741 89.6787 172.809 89.0635 172.242C88.4482 171.676 87.5107 171.393 86.251 171.393C84.9717 171.393 84.0342 171.871 83.4385 172.828C82.8428 173.785 82.5303 175.313 82.501 177.413V178.922C82.501 181.197 82.7842 182.823 83.3506 183.8C83.9268 184.776 84.9131 185.265 86.3096 185.265C87.4912 185.265 88.3945 184.986 89.0195 184.43C89.6445 183.873 89.9766 182.989 90.0156 181.778H95.1279ZM96.71 180.929C96.71 179.347 97.0176 177.94 97.6328 176.71C98.248 175.47 99.1318 174.518 100.284 173.854C101.437 173.189 102.789 172.857 104.342 172.857C106.715 172.857 108.585 173.595 109.952 175.069C111.319 176.534 112.003 178.531 112.003 181.061V181.236C112.003 183.707 111.314 185.67 109.938 187.125C108.57 188.57 106.715 189.293 104.371 189.293C102.115 189.293 100.304 188.619 98.9365 187.271C97.5693 185.914 96.832 184.078 96.7246 181.764L96.71 180.929ZM101.646 181.236C101.646 182.701 101.876 183.775 102.335 184.459C102.794 185.143 103.473 185.484 104.371 185.484C106.129 185.484 107.027 184.132 107.066 181.427V180.929C107.066 178.087 106.158 176.666 104.342 176.666C102.691 176.666 101.798 177.892 101.661 180.343L101.646 181.236ZM118.712 173.15L118.873 175.011C119.967 173.575 121.476 172.857 123.399 172.857C125.05 172.857 126.28 173.351 127.091 174.337C127.911 175.323 128.336 176.808 128.365 178.79V189H123.414V178.995C123.414 178.194 123.253 177.608 122.931 177.237C122.608 176.856 122.022 176.666 121.173 176.666C120.206 176.666 119.488 177.047 119.02 177.809V189H114.083V173.15H118.712ZM136.861 169.21V173.15H139.469V176.578H136.861V183.829C136.861 184.425 136.969 184.84 137.184 185.074C137.398 185.309 137.823 185.426 138.458 185.426C138.946 185.426 139.356 185.396 139.688 185.338V188.868C138.8 189.151 137.872 189.293 136.905 189.293C135.206 189.293 133.951 188.893 133.141 188.092C132.33 187.291 131.925 186.075 131.925 184.444V176.578H129.903V173.15H131.925V169.21H136.861ZM149.093 189.293C146.661 189.293 144.693 188.57 143.189 187.125C141.686 185.67 140.934 183.78 140.934 181.456V181.046C140.934 179.425 141.231 177.994 141.827 176.754C142.433 175.514 143.312 174.557 144.464 173.883C145.616 173.199 146.983 172.857 148.565 172.857C150.792 172.857 152.55 173.551 153.839 174.938C155.128 176.314 155.772 178.238 155.772 180.709V182.628H145.958C146.134 183.517 146.52 184.215 147.115 184.723C147.711 185.23 148.482 185.484 149.43 185.484C150.992 185.484 152.213 184.938 153.092 183.844L155.348 186.51C154.732 187.359 153.858 188.038 152.726 188.546C151.603 189.044 150.392 189.293 149.093 189.293ZM148.536 176.666C147.091 176.666 146.231 177.623 145.958 179.537H150.938V179.156C150.958 178.365 150.758 177.755 150.338 177.325C149.918 176.886 149.317 176.666 148.536 176.666ZM162.306 173.15L162.467 175.011C163.561 173.575 165.069 172.857 166.993 172.857C168.644 172.857 169.874 173.351 170.685 174.337C171.505 175.323 171.93 176.808 171.959 178.79V189H167.008V178.995C167.008 178.194 166.847 177.608 166.524 177.237C166.202 176.856 165.616 176.666 164.767 176.666C163.8 176.666 163.082 177.047 162.613 177.809V189H157.677V173.15H162.306ZM179.913 189H174.962V173.15H179.913V189ZM174.669 169.063C174.669 168.36 174.923 167.784 175.431 167.335C175.938 166.886 176.598 166.661 177.408 166.661C178.219 166.661 178.878 166.886 179.386 167.335C179.894 167.784 180.147 168.36 180.147 169.063C180.147 169.767 179.894 170.343 179.386 170.792C178.878 171.241 178.219 171.466 177.408 171.466C176.598 171.466 175.938 171.241 175.431 170.792C174.923 170.343 174.669 169.767 174.669 169.063ZM182.345 180.958C182.345 178.448 182.887 176.471 183.971 175.025C185.055 173.58 186.568 172.857 188.512 172.857C189.928 172.857 191.119 173.414 192.086 174.527V166.5H197.037V189H192.599L192.35 187.301C191.334 188.629 190.045 189.293 188.482 189.293C186.598 189.293 185.104 188.57 184 187.125C182.896 185.68 182.345 183.624 182.345 180.958ZM187.281 181.266C187.281 184.078 188.102 185.484 189.742 185.484C190.836 185.484 191.617 185.025 192.086 184.107V178.072C191.637 177.135 190.865 176.666 189.771 176.666C188.248 176.666 187.423 177.896 187.296 180.357L187.281 181.266ZM199.22 180.929C199.22 179.347 199.527 177.94 200.143 176.71C200.758 175.47 201.642 174.518 202.794 173.854C203.946 173.189 205.299 172.857 206.852 172.857C209.225 172.857 211.095 173.595 212.462 175.069C213.829 176.534 214.513 178.531 214.513 181.061V181.236C214.513 183.707 213.824 185.67 212.447 187.125C211.08 188.57 209.225 189.293 206.881 189.293C204.625 189.293 202.813 188.619 201.446 187.271C200.079 185.914 199.342 184.078 199.234 181.764L199.22 180.929ZM204.156 181.236C204.156 182.701 204.386 183.775 204.845 184.459C205.304 185.143 205.982 185.484 206.881 185.484C208.639 185.484 209.537 184.132 209.576 181.427V180.929C209.576 178.087 208.668 176.666 206.852 176.666C205.201 176.666 204.308 177.892 204.171 180.343L204.156 181.236ZM238.873 181.192C238.873 183.653 238.316 185.621 237.203 187.096C236.1 188.561 234.605 189.293 232.721 189.293C231.266 189.293 230.069 188.761 229.132 187.696V195.094H224.195V173.15H228.81L228.956 174.615C229.903 173.443 231.148 172.857 232.691 172.857C234.645 172.857 236.163 173.58 237.247 175.025C238.331 176.461 238.873 178.438 238.873 180.958V181.192ZM233.937 180.885C233.937 178.072 233.116 176.666 231.476 176.666C230.304 176.666 229.522 177.086 229.132 177.926V184.166C229.562 185.045 230.353 185.484 231.505 185.484C233.077 185.484 233.888 184.127 233.937 181.412V180.885ZM249.991 189C249.815 188.678 249.659 188.204 249.522 187.579C248.614 188.722 247.345 189.293 245.714 189.293C244.22 189.293 242.95 188.844 241.905 187.945C240.86 187.037 240.338 185.899 240.338 184.532C240.338 182.813 240.973 181.515 242.242 180.636C243.512 179.757 245.357 179.317 247.779 179.317H249.303V178.482C249.303 177.027 248.673 176.3 247.413 176.3C246.241 176.3 245.655 176.876 245.655 178.028H240.719C240.719 176.495 241.368 175.25 242.667 174.293C243.976 173.336 245.641 172.857 247.662 172.857C249.684 172.857 251.28 173.351 252.452 174.337C253.624 175.323 254.225 176.676 254.254 178.395V185.411C254.273 186.866 254.498 187.979 254.928 188.751V189H249.991ZM246.9 185.777C247.516 185.777 248.023 185.646 248.424 185.382C248.834 185.118 249.127 184.82 249.303 184.488V181.954H247.867C246.148 181.954 245.289 182.726 245.289 184.269C245.289 184.718 245.44 185.084 245.743 185.367C246.046 185.641 246.432 185.777 246.9 185.777ZM266.588 177.618L264.962 177.501C263.409 177.501 262.413 177.989 261.974 178.966V189H257.037V173.15H261.666L261.827 175.187C262.657 173.634 263.814 172.857 265.299 172.857C265.826 172.857 266.285 172.916 266.676 173.033L266.588 177.618ZM276.856 189C276.681 188.678 276.524 188.204 276.388 187.579C275.479 188.722 274.21 189.293 272.579 189.293C271.085 189.293 269.815 188.844 268.771 187.945C267.726 187.037 267.203 185.899 267.203 184.532C267.203 182.813 267.838 181.515 269.107 180.636C270.377 179.757 272.223 179.317 274.645 179.317H276.168V178.482C276.168 177.027 275.538 176.3 274.278 176.3C273.106 176.3 272.521 176.876 272.521 178.028H267.584C267.584 176.495 268.233 175.25 269.532 174.293C270.841 173.336 272.506 172.857 274.527 172.857C276.549 172.857 278.146 173.351 279.317 174.337C280.489 175.323 281.09 176.676 281.119 178.395V185.411C281.139 186.866 281.363 187.979 281.793 188.751V189H276.856ZM273.766 185.777C274.381 185.777 274.889 185.646 275.289 185.382C275.699 185.118 275.992 184.82 276.168 184.488V181.954H274.732C273.014 181.954 272.154 182.726 272.154 184.269C272.154 184.718 272.306 185.084 272.608 185.367C272.911 185.641 273.297 185.777 273.766 185.777ZM139.63 213C139.454 212.678 139.298 212.204 139.161 211.579C138.253 212.722 136.983 213.293 135.353 213.293C133.858 213.293 132.589 212.844 131.544 211.945C130.499 211.037 129.977 209.899 129.977 208.532C129.977 206.813 130.611 205.515 131.881 204.636C133.15 203.757 134.996 203.317 137.418 203.317H138.941V202.482C138.941 201.027 138.312 200.3 137.052 200.3C135.88 200.3 135.294 200.876 135.294 202.028H130.357C130.357 200.495 131.007 199.25 132.306 198.293C133.614 197.336 135.279 196.857 137.301 196.857C139.322 196.857 140.919 197.351 142.091 198.337C143.263 199.323 143.863 200.676 143.893 202.395V209.411C143.912 210.866 144.137 211.979 144.566 212.751V213H139.63ZM136.539 209.777C137.154 209.777 137.662 209.646 138.062 209.382C138.473 209.118 138.766 208.82 138.941 208.488V205.954H137.506C135.787 205.954 134.928 206.726 134.928 208.269C134.928 208.718 135.079 209.084 135.382 209.367C135.685 209.641 136.07 209.777 136.539 209.777ZM146.017 204.958C146.017 202.448 146.559 200.471 147.643 199.025C148.727 197.58 150.24 196.857 152.184 196.857C153.6 196.857 154.791 197.414 155.758 198.527V190.5H160.709V213H156.271L156.021 211.301C155.006 212.629 153.717 213.293 152.154 213.293C150.27 213.293 148.775 212.57 147.672 211.125C146.568 209.68 146.017 207.624 146.017 204.958ZM150.953 205.266C150.953 208.078 151.773 209.484 153.414 209.484C154.508 209.484 155.289 209.025 155.758 208.107V202.072C155.309 201.135 154.537 200.666 153.443 200.666C151.92 200.666 151.095 201.896 150.968 204.357L150.953 205.266ZM172.955 211.286C171.91 212.624 170.499 213.293 168.722 213.293C166.983 213.293 165.665 212.79 164.767 211.784C163.878 210.769 163.434 209.313 163.434 207.419V197.15H168.37V207.448C168.37 208.806 169.029 209.484 170.348 209.484C171.48 209.484 172.286 209.079 172.765 208.269V197.15H177.73V213H173.102L172.955 211.286ZM185.655 213H180.704V190.5H185.655V213ZM194.459 193.21V197.15H197.066V200.578H194.459V207.829C194.459 208.425 194.566 208.84 194.781 209.074C194.996 209.309 195.421 209.426 196.056 209.426C196.544 209.426 196.954 209.396 197.286 209.338V212.868C196.397 213.151 195.47 213.293 194.503 213.293C192.804 213.293 191.549 212.893 190.738 212.092C189.928 211.291 189.522 210.075 189.522 208.444V200.578H187.501V197.15H189.522V193.21H194.459ZM197.96 204.929C197.96 203.347 198.268 201.94 198.883 200.71C199.498 199.47 200.382 198.518 201.534 197.854C202.687 197.189 204.039 196.857 205.592 196.857C207.965 196.857 209.835 197.595 211.202 199.069C212.569 200.534 213.253 202.531 213.253 205.061V205.236C213.253 207.707 212.564 209.67 211.188 211.125C209.82 212.57 207.965 213.293 205.621 213.293C203.365 213.293 201.554 212.619 200.187 211.271C198.819 209.914 198.082 208.078 197.975 205.764L197.96 204.929ZM202.896 205.236C202.896 206.701 203.126 207.775 203.585 208.459C204.044 209.143 204.723 209.484 205.621 209.484C207.379 209.484 208.277 208.132 208.316 205.427V204.929C208.316 202.087 207.408 200.666 205.592 200.666C203.941 200.666 203.048 201.892 202.911 204.343L202.896 205.236ZM223.727 208.547C223.727 208.127 223.507 207.79 223.067 207.536C222.628 207.282 221.793 207.019 220.562 206.745C219.332 206.472 218.316 206.115 217.516 205.676C216.715 205.227 216.104 204.685 215.685 204.05C215.265 203.415 215.055 202.688 215.055 201.867C215.055 200.412 215.655 199.216 216.856 198.278C218.058 197.331 219.63 196.857 221.573 196.857C223.663 196.857 225.343 197.331 226.612 198.278C227.882 199.226 228.517 200.471 228.517 202.014H223.565C223.565 200.744 222.896 200.109 221.559 200.109C221.041 200.109 220.606 200.256 220.255 200.549C219.903 200.832 219.728 201.188 219.728 201.618C219.728 202.058 219.942 202.414 220.372 202.688C220.802 202.961 221.485 203.186 222.423 203.361C223.37 203.537 224.2 203.747 224.913 203.991C227.296 204.812 228.487 206.281 228.487 208.4C228.487 209.846 227.843 211.022 226.554 211.931C225.274 212.839 223.614 213.293 221.573 213.293C220.216 213.293 219.005 213.049 217.94 212.561C216.876 212.072 216.046 211.408 215.45 210.568C214.854 209.729 214.557 208.845 214.557 207.917H219.171C219.19 208.649 219.435 209.187 219.903 209.528C220.372 209.86 220.973 210.026 221.705 210.026C222.379 210.026 222.882 209.89 223.214 209.616C223.556 209.343 223.727 208.986 223.727 208.547Z" fill="white"/>
<defs>
<filter id="filter0_d" x="0.418945" y="85.658" width="356.91" height="210" filterUnits="userSpaceOnUse" color-interpolation-filters="sRGB">
<feFlood flood-opacity="0" result="BackgroundImageFix"/>
<feColorMatrix in="SourceAlpha" type="matrix" values="0 0 0 0 0 0 0 0 0 0 0 0 0 0 0 0 0 0 127 0"/>
<feOffset dy="4"/>
<feGaussianBlur stdDeviation="2"/>
<feColorMatrix type="matrix" values="0 0 0 0 0 0 0 0 0 0 0 0 0 0 0 0 0 0 0.25 0"/>
<feBlend mode="normal" in2="BackgroundImageFix" result="effect1_dropShadow"/>
<feBlend mode="normal" in="SourceGraphic" in2="effect1_dropShadow" result="shape"/>
</filter>
<filter id="filter1_d" x="82.3721" y="85.658" width="213" height="212" filterUnits="userSpaceOnUse" color-interpolation-filters="sRGB">
<feFlood flood-opacity="0" result="BackgroundImageFix"/>
<feColorMatrix in="SourceAlpha" type="matrix" values="0 0 0 0 0 0 0 0 0 0 0 0 0 0 0 0 0 0 127 0"/>
<feOffset dx="6" dy="6"/>
<feGaussianBlur stdDeviation="2"/>
<feColorMatrix type="matrix" values="0 0 0 0 0 0 0 0 0 0 0 0 0 0 0 0 0 0 0.25 0"/>
<feBlend mode="normal" in2="BackgroundImageFix" result="effect1_dropShadow"/>
<feBlend mode="normal" in="SourceGraphic" in2="effect1_dropShadow" result="shape"/>
</filter>
<filter id="filter2_d" x="4.41895" y="108.315" width="358.91" height="173.684" filterUnits="userSpaceOnUse" color-interpolation-filters="sRGB">
<feFlood flood-opacity="0" result="BackgroundImageFix"/>
<feColorMatrix in="SourceAlpha" type="matrix" values="0 0 0 0 0 0 0 0 0 0 0 0 0 0 0 0 0 0 127 0"/>
<feOffset dx="6" dy="6"/>
<feGaussianBlur stdDeviation="2"/>
<feColorMatrix type="matrix" values="0 0 0 0 0 0 0 0 0 0 0 0 0 0 0 0 0 0 0.25 0"/>
<feBlend mode="normal" in2="BackgroundImageFix" result="effect1_dropShadow"/>
<feBlend mode="normal" in="SourceGraphic" in2="effect1_dropShadow" result="shape"/>
</filter>
<filter id="filter3_bd" x="-45.6289" y="103" width="450" height="175" filterUnits="userSpaceOnUse" color-interpolation-filters="sRGB">
<feFlood flood-opacity="0" result="BackgroundImageFix"/>
<feGaussianBlur in="BackgroundImage" stdDeviation="25"/>
<feComposite in2="SourceAlpha" operator="in" result="effect1_backgroundBlur"/>
<feColorMatrix in="SourceAlpha" type="matrix" values="0 0 0 0 0 0 0 0 0 0 0 0 0 0 0 0 0 0 127 0"/>
<feOffset dx="5" dy="4"/>
<feGaussianBlur stdDeviation="2"/>
<feColorMatrix type="matrix" values="0 0 0 0 0 0 0 0 0 0 0 0 0 0 0 0 0 0 0.25 0"/>
<feBlend mode="normal" in2="effect1_backgroundBlur" result="effect2_dropShadow"/>
<feBlend mode="normal" in="SourceGraphic" in2="effect2_dropShadow" result="shape"/>
</filter>
</defs>
</svg>
