<svg width="359" height="217" viewBox="0 0 359 217" fill="none" xmlns="http://www.w3.org/2000/svg">
<g filter="url(#filter0_d)">
<path d="M71 103.5C71 160.664 117.336 207 174.498 207C231.657 207 277.998 160.664 277.998 103.5C277.998 46.3378 231.657 0 174.498 0C117.336 0 71 46.3378 71 103.5Z" fill="#0D27AD"/>
<path d="M113.484 53.4261C117.281 59.2444 130.424 57.3902 142.843 49.2863C155.255 41.1824 162.242 29.8954 158.445 24.0755C154.647 18.2621 141.504 20.1113 129.09 28.2152C116.672 36.3191 109.685 47.6062 113.484 53.4261Z" fill="#9B33AC"/>
<path d="M168.477 37.3807C170.544 40.2275 175.308 40.2964 179.104 37.5333C182.908 34.7686 184.311 30.2186 182.238 27.3702C180.171 24.5283 175.409 24.4594 171.611 27.2225C167.808 29.9873 166.405 34.5323 168.477 37.3807Z" fill="#9B33AC"/>
<path d="M169.548 10.0975C169.502 13.5957 175.759 16.513 183.526 16.6131C191.292 16.7148 197.629 13.9599 197.675 10.4667C197.716 6.97341 191.458 4.05279 183.692 3.95598C175.926 3.85425 169.594 6.60423 169.548 10.0975Z" fill="#9B33AC"/>
<path d="M231.395 29.9512C228.645 32.1055 229.544 37.8516 233.411 42.7888C237.274 47.7227 242.641 49.9738 245.391 47.8195C248.141 45.6635 247.241 39.9141 243.379 34.9802C239.512 30.048 234.149 27.7952 231.395 29.9512Z" fill="#9B33AC"/>
<path d="M243.384 58.9179C237.319 60.3388 234.462 70.3116 237.019 81.1835C239.572 92.0604 246.554 99.7262 252.621 98.3003C258.686 96.8778 261.537 86.9099 258.986 76.033C256.433 65.1611 249.446 57.4953 243.384 58.9179Z" fill="#9B33AC"/>
<path d="M220.37 113.584C214.264 107.782 200.885 111.94 190.489 122.888C180.083 133.833 176.603 147.405 182.704 153.206C188.809 159.007 202.186 154.839 212.584 143.898C222.985 132.956 226.47 119.38 220.37 113.584Z" fill="#9B33AC"/>
<path d="M262.78 140.331C259.572 137.281 252.535 139.473 247.071 145.222C241.602 150.976 239.769 158.111 242.977 161.161C246.185 164.211 253.217 162.021 258.686 156.27C264.155 150.515 265.986 143.381 262.78 140.331Z" fill="#9B33AC"/>
<path d="M252.337 106.634C249.669 106.362 247.107 110.016 246.623 114.792C246.134 119.578 247.901 123.672 250.564 123.948C253.232 124.22 255.792 120.566 256.278 115.78C256.767 111.003 255.004 106.906 252.337 106.634Z" fill="#9B33AC"/>
<path d="M144.485 72.1624C140.89 70.7398 135.91 74.8205 133.369 81.2623C130.821 87.709 131.671 94.0867 135.269 95.5028C138.861 96.9237 143.839 92.8545 146.387 86.4029C148.928 79.9611 148.08 73.5833 144.485 72.1624Z" fill="#9B33AC"/>
<path d="M95.5447 103.062C90.1514 104.875 88.4302 114.183 91.6872 123.838C94.9458 133.495 101.95 139.85 107.34 138.032C112.725 136.219 114.457 126.916 111.195 117.256C107.936 107.599 100.931 101.239 95.5447 103.062Z" fill="#9B33AC"/>
<path d="M85.6886 85.2395C84.0232 84.9819 82.2971 87.197 81.8442 90.1816C81.3831 93.1728 82.366 95.798 84.0314 96.0524C85.6984 96.31 87.4196 94.0949 87.8758 91.1054C88.3319 88.1191 87.3491 85.4938 85.6886 85.2395Z" fill="#9B33AC"/>
<path d="M94.0315 143.557C92.988 144.143 92.9929 146.141 94.0496 148.015C95.1013 149.887 96.7995 150.926 97.848 150.345C98.8948 149.754 98.8866 147.761 97.83 145.887C96.7766 144.013 95.0751 142.971 94.0315 143.557Z" fill="#9B33AC"/>
<path d="M125.869 184.688C124.443 188.029 128.149 192.805 134.135 195.347C140.119 197.905 146.123 197.259 147.549 193.921C148.971 190.581 145.274 185.809 139.279 183.258C133.295 180.709 127.291 181.346 125.869 184.688Z" fill="#9B33AC"/>
<path d="M104.193 49.3323C102.772 49.388 101.7 51.5014 101.807 54.0479C101.909 56.601 103.146 58.6175 104.572 58.5618C105.988 58.5027 107.059 56.3877 106.958 53.8412C106.851 51.293 105.614 49.2732 104.193 49.3323Z" fill="#9B33AC"/>
<path d="M250.554 54.1267C249.973 55.0784 250.892 56.6929 252.594 57.7266C254.302 58.7652 256.153 58.8292 256.733 57.8792C257.311 56.9276 256.397 55.3179 254.689 54.2793C252.983 53.2456 251.127 53.1767 250.554 54.1267Z" fill="#9B33AC"/>
</g>
<g filter="url(#filter1_bd)">
<rect y="55" width="350" height="103" rx="51.5" fill="#C4C4C4" fill-opacity="0.06"/>
</g>
<path d="M124.346 88.7783C124.277 90.2627 123.877 91.5762 123.145 92.7188C122.412 93.8516 121.382 94.7305 120.054 95.3555C118.735 95.9805 117.227 96.293 115.527 96.293C112.725 96.293 110.518 95.3799 108.906 93.5537C107.295 91.7275 106.489 89.1494 106.489 85.8193V84.7646C106.489 82.6748 106.851 80.8486 107.573 79.2861C108.306 77.7139 109.355 76.5029 110.723 75.6533C112.09 74.7939 113.672 74.3643 115.469 74.3643C118.057 74.3643 120.137 75.0479 121.709 76.415C123.281 77.7725 124.175 79.6475 124.39 82.04H119.263C119.224 80.7412 118.896 79.8086 118.281 79.2422C117.666 78.6758 116.729 78.3926 115.469 78.3926C114.189 78.3926 113.252 78.8711 112.656 79.8281C112.061 80.7852 111.748 82.3135 111.719 84.4131V85.9219C111.719 88.1973 112.002 89.8232 112.568 90.7998C113.145 91.7764 114.131 92.2646 115.527 92.2646C116.709 92.2646 117.612 91.9863 118.237 91.4297C118.862 90.873 119.194 89.9893 119.233 88.7783H124.346ZM125.928 87.9287C125.928 86.3467 126.235 84.9404 126.851 83.71C127.466 82.4697 128.35 81.5176 129.502 80.8535C130.654 80.1895 132.007 79.8574 133.56 79.8574C135.933 79.8574 137.803 80.5947 139.17 82.0693C140.537 83.5342 141.221 85.5312 141.221 88.0605V88.2363C141.221 90.707 140.532 92.6699 139.155 94.125C137.788 95.5703 135.933 96.293 133.589 96.293C131.333 96.293 129.521 95.6191 128.154 94.2715C126.787 92.9141 126.05 91.0781 125.942 88.7637L125.928 87.9287ZM130.864 88.2363C130.864 89.7012 131.094 90.7754 131.553 91.459C132.012 92.1426 132.69 92.4844 133.589 92.4844C135.347 92.4844 136.245 91.1318 136.284 88.4268V87.9287C136.284 85.0869 135.376 83.666 133.56 83.666C131.909 83.666 131.016 84.8916 130.879 87.3428L130.864 88.2363ZM147.93 80.1504L148.091 82.0107C149.185 80.5752 150.693 79.8574 152.617 79.8574C154.268 79.8574 155.498 80.3506 156.309 81.3369C157.129 82.3232 157.554 83.8076 157.583 85.79V96H152.632V85.9951C152.632 85.1943 152.471 84.6084 152.148 84.2373C151.826 83.8564 151.24 83.666 150.391 83.666C149.424 83.666 148.706 84.0469 148.237 84.8086V96H143.301V80.1504H147.93ZM166.079 76.21V80.1504H168.687V83.5781H166.079V90.8291C166.079 91.4248 166.187 91.8398 166.401 92.0742C166.616 92.3086 167.041 92.4258 167.676 92.4258C168.164 92.4258 168.574 92.3965 168.906 92.3379V95.8682C168.018 96.1514 167.09 96.293 166.123 96.293C164.424 96.293 163.169 95.8926 162.358 95.0918C161.548 94.291 161.143 93.0752 161.143 91.4443V83.5781H159.121V80.1504H161.143V76.21H166.079ZM178.311 96.293C175.879 96.293 173.911 95.5703 172.407 94.125C170.903 92.6699 170.151 90.7803 170.151 88.4561V88.0459C170.151 86.4248 170.449 84.9941 171.045 83.7539C171.65 82.5137 172.529 81.5566 173.682 80.8828C174.834 80.1992 176.201 79.8574 177.783 79.8574C180.01 79.8574 181.768 80.5508 183.057 81.9375C184.346 83.3145 184.99 85.2383 184.99 87.709V89.6279H175.176C175.352 90.5166 175.737 91.2148 176.333 91.7227C176.929 92.2305 177.7 92.4844 178.647 92.4844C180.21 92.4844 181.431 91.9375 182.31 90.8438L184.565 93.5098C183.95 94.3594 183.076 95.0381 181.943 95.5459C180.82 96.0439 179.609 96.293 178.311 96.293ZM177.754 83.666C176.309 83.666 175.449 84.623 175.176 86.5371H180.156V86.1562C180.176 85.3652 179.976 84.7549 179.556 84.3252C179.136 83.8857 178.535 83.666 177.754 83.666ZM191.523 80.1504L191.685 82.0107C192.778 80.5752 194.287 79.8574 196.211 79.8574C197.861 79.8574 199.092 80.3506 199.902 81.3369C200.723 82.3232 201.147 83.8076 201.177 85.79V96H196.226V85.9951C196.226 85.1943 196.064 84.6084 195.742 84.2373C195.42 83.8564 194.834 83.666 193.984 83.666C193.018 83.666 192.3 84.0469 191.831 84.8086V96H186.895V80.1504H191.523ZM209.131 96H204.18V80.1504H209.131V96ZM203.887 76.0635C203.887 75.3604 204.141 74.7842 204.648 74.335C205.156 73.8857 205.815 73.6611 206.626 73.6611C207.437 73.6611 208.096 73.8857 208.604 74.335C209.111 74.7842 209.365 75.3604 209.365 76.0635C209.365 76.7666 209.111 77.3428 208.604 77.792C208.096 78.2412 207.437 78.4658 206.626 78.4658C205.815 78.4658 205.156 78.2412 204.648 77.792C204.141 77.3428 203.887 76.7666 203.887 76.0635ZM211.562 87.958C211.562 85.4482 212.104 83.4707 213.188 82.0254C214.272 80.5801 215.786 79.8574 217.729 79.8574C219.146 79.8574 220.337 80.4141 221.304 81.5273V73.5H226.255V96H221.816L221.567 94.3008C220.552 95.6289 219.263 96.293 217.7 96.293C215.815 96.293 214.321 95.5703 213.218 94.125C212.114 92.6797 211.562 90.624 211.562 87.958ZM216.499 88.2656C216.499 91.0781 217.319 92.4844 218.96 92.4844C220.054 92.4844 220.835 92.0254 221.304 91.1074V85.0723C220.854 84.1348 220.083 83.666 218.989 83.666C217.466 83.666 216.641 84.8965 216.514 87.3574L216.499 88.2656ZM228.438 87.9287C228.438 86.3467 228.745 84.9404 229.36 83.71C229.976 82.4697 230.859 81.5176 232.012 80.8535C233.164 80.1895 234.517 79.8574 236.069 79.8574C238.442 79.8574 240.312 80.5947 241.68 82.0693C243.047 83.5342 243.73 85.5312 243.73 88.0605V88.2363C243.73 90.707 243.042 92.6699 241.665 94.125C240.298 95.5703 238.442 96.293 236.099 96.293C233.843 96.293 232.031 95.6191 230.664 94.2715C229.297 92.9141 228.56 91.0781 228.452 88.7637L228.438 87.9287ZM233.374 88.2363C233.374 89.7012 233.604 90.7754 234.062 91.459C234.521 92.1426 235.2 92.4844 236.099 92.4844C237.856 92.4844 238.755 91.1318 238.794 88.4268V87.9287C238.794 85.0869 237.886 83.666 236.069 83.666C234.419 83.666 233.525 84.8916 233.389 87.3428L233.374 88.2363ZM90.8594 120.293C88.4277 120.293 86.46 119.57 84.9561 118.125C83.4521 116.67 82.7002 114.78 82.7002 112.456V112.046C82.7002 110.425 82.998 108.994 83.5938 107.754C84.1992 106.514 85.0781 105.557 86.2305 104.883C87.3828 104.199 88.75 103.857 90.332 103.857C92.5586 103.857 94.3164 104.551 95.6055 105.938C96.8945 107.314 97.5391 109.238 97.5391 111.709V113.628H87.7246C87.9004 114.517 88.2861 115.215 88.8818 115.723C89.4775 116.23 90.249 116.484 91.1963 116.484C92.7588 116.484 93.9795 115.938 94.8584 114.844L97.1143 117.51C96.499 118.359 95.625 119.038 94.4922 119.546C93.3691 120.044 92.1582 120.293 90.8594 120.293ZM90.3027 107.666C88.8574 107.666 87.998 108.623 87.7246 110.537H92.7051V110.156C92.7246 109.365 92.5244 108.755 92.1045 108.325C91.6846 107.886 91.084 107.666 90.3027 107.666ZM107.837 115.547C107.837 115.127 107.617 114.79 107.178 114.536C106.738 114.282 105.903 114.019 104.673 113.745C103.442 113.472 102.427 113.115 101.626 112.676C100.825 112.227 100.215 111.685 99.7949 111.05C99.375 110.415 99.165 109.688 99.165 108.867C99.165 107.412 99.7656 106.216 100.967 105.278C102.168 104.331 103.74 103.857 105.684 103.857C107.773 103.857 109.453 104.331 110.723 105.278C111.992 106.226 112.627 107.471 112.627 109.014H107.676C107.676 107.744 107.007 107.109 105.669 107.109C105.151 107.109 104.717 107.256 104.365 107.549C104.014 107.832 103.838 108.188 103.838 108.618C103.838 109.058 104.053 109.414 104.482 109.688C104.912 109.961 105.596 110.186 106.533 110.361C107.48 110.537 108.311 110.747 109.023 110.991C111.406 111.812 112.598 113.281 112.598 115.4C112.598 116.846 111.953 118.022 110.664 118.931C109.385 119.839 107.725 120.293 105.684 120.293C104.326 120.293 103.115 120.049 102.051 119.561C100.986 119.072 100.156 118.408 99.5605 117.568C98.9648 116.729 98.667 115.845 98.667 114.917H103.281C103.301 115.649 103.545 116.187 104.014 116.528C104.482 116.86 105.083 117.026 105.815 117.026C106.489 117.026 106.992 116.89 107.324 116.616C107.666 116.343 107.837 115.986 107.837 115.547ZM129.634 112.192C129.634 114.653 129.077 116.621 127.964 118.096C126.86 119.561 125.366 120.293 123.481 120.293C122.026 120.293 120.83 119.761 119.893 118.696V126.094H114.956V104.15H119.57L119.717 105.615C120.664 104.443 121.909 103.857 123.452 103.857C125.405 103.857 126.924 104.58 128.008 106.025C129.092 107.461 129.634 109.438 129.634 111.958V112.192ZM124.697 111.885C124.697 109.072 123.877 107.666 122.236 107.666C121.064 107.666 120.283 108.086 119.893 108.926V115.166C120.322 116.045 121.113 116.484 122.266 116.484C123.838 116.484 124.648 115.127 124.697 112.412V111.885ZM139.492 120.293C137.061 120.293 135.093 119.57 133.589 118.125C132.085 116.67 131.333 114.78 131.333 112.456V112.046C131.333 110.425 131.631 108.994 132.227 107.754C132.832 106.514 133.711 105.557 134.863 104.883C136.016 104.199 137.383 103.857 138.965 103.857C141.191 103.857 142.949 104.551 144.238 105.938C145.527 107.314 146.172 109.238 146.172 111.709V113.628H136.357C136.533 114.517 136.919 115.215 137.515 115.723C138.11 116.23 138.882 116.484 139.829 116.484C141.392 116.484 142.612 115.938 143.491 114.844L145.747 117.51C145.132 118.359 144.258 119.038 143.125 119.546C142.002 120.044 140.791 120.293 139.492 120.293ZM138.936 107.666C137.49 107.666 136.631 108.623 136.357 110.537H141.338V110.156C141.357 109.365 141.157 108.755 140.737 108.325C140.317 107.886 139.717 107.666 138.936 107.666ZM154.873 116.484C155.566 116.484 156.104 116.299 156.484 115.928C156.865 115.547 157.051 115.02 157.041 114.346H161.67C161.67 116.084 161.045 117.51 159.795 118.623C158.555 119.736 156.953 120.293 154.99 120.293C152.686 120.293 150.869 119.57 149.541 118.125C148.213 116.68 147.549 114.678 147.549 112.119V111.914C147.549 110.312 147.842 108.901 148.428 107.681C149.023 106.45 149.878 105.508 150.991 104.854C152.104 104.189 153.423 103.857 154.946 103.857C157.007 103.857 158.643 104.429 159.854 105.571C161.064 106.714 161.67 108.262 161.67 110.215H157.041C157.041 109.395 156.841 108.765 156.44 108.325C156.04 107.886 155.503 107.666 154.829 107.666C153.55 107.666 152.803 108.481 152.588 110.112C152.52 110.63 152.485 111.343 152.485 112.251C152.485 113.843 152.676 114.946 153.057 115.562C153.438 116.177 154.043 116.484 154.873 116.484ZM168.965 120H164.014V104.15H168.965V120ZM163.721 100.063C163.721 99.3604 163.975 98.7842 164.482 98.335C164.99 97.8857 165.649 97.6611 166.46 97.6611C167.271 97.6611 167.93 97.8857 168.438 98.335C168.945 98.7842 169.199 99.3604 169.199 100.063C169.199 100.767 168.945 101.343 168.438 101.792C167.93 102.241 167.271 102.466 166.46 102.466C165.649 102.466 164.99 102.241 164.482 101.792C163.975 101.343 163.721 100.767 163.721 100.063ZM180.947 120C180.771 119.678 180.615 119.204 180.479 118.579C179.57 119.722 178.301 120.293 176.67 120.293C175.176 120.293 173.906 119.844 172.861 118.945C171.816 118.037 171.294 116.899 171.294 115.532C171.294 113.813 171.929 112.515 173.198 111.636C174.468 110.757 176.313 110.317 178.735 110.317H180.259V109.482C180.259 108.027 179.629 107.3 178.369 107.3C177.197 107.3 176.611 107.876 176.611 109.028H171.675C171.675 107.495 172.324 106.25 173.623 105.293C174.932 104.336 176.597 103.857 178.618 103.857C180.64 103.857 182.236 104.351 183.408 105.337C184.58 106.323 185.181 107.676 185.21 109.395V116.411C185.229 117.866 185.454 118.979 185.884 119.751V120H180.947ZM177.856 116.777C178.472 116.777 178.979 116.646 179.38 116.382C179.79 116.118 180.083 115.82 180.259 115.488V112.954H178.823C177.104 112.954 176.245 113.726 176.245 115.269C176.245 115.718 176.396 116.084 176.699 116.367C177.002 116.641 177.388 116.777 177.856 116.777ZM193.164 120H188.213V97.5H193.164V120ZM201.426 120H196.475V104.15H201.426V120ZM196.182 100.063C196.182 99.3604 196.436 98.7842 196.943 98.335C197.451 97.8857 198.11 97.6611 198.921 97.6611C199.731 97.6611 200.391 97.8857 200.898 98.335C201.406 98.7842 201.66 99.3604 201.66 100.063C201.66 100.767 201.406 101.343 200.898 101.792C200.391 102.241 199.731 102.466 198.921 102.466C198.11 102.466 197.451 102.241 196.943 101.792C196.436 101.343 196.182 100.767 196.182 100.063ZM210.303 116.191H217.524V120H204.062V117.246L211.094 107.959H204.37V104.15H217.363V106.816L210.303 116.191ZM228.848 120C228.672 119.678 228.516 119.204 228.379 118.579C227.471 119.722 226.201 120.293 224.57 120.293C223.076 120.293 221.807 119.844 220.762 118.945C219.717 118.037 219.194 116.899 219.194 115.532C219.194 113.813 219.829 112.515 221.099 111.636C222.368 110.757 224.214 110.317 226.636 110.317H228.159V109.482C228.159 108.027 227.529 107.3 226.27 107.3C225.098 107.3 224.512 107.876 224.512 109.028H219.575C219.575 107.495 220.225 106.25 221.523 105.293C222.832 104.336 224.497 103.857 226.519 103.857C228.54 103.857 230.137 104.351 231.309 105.337C232.48 106.323 233.081 107.676 233.11 109.395V116.411C233.13 117.866 233.354 118.979 233.784 119.751V120H228.848ZM225.757 116.777C226.372 116.777 226.88 116.646 227.28 116.382C227.69 116.118 227.983 115.82 228.159 115.488V112.954H226.724C225.005 112.954 224.146 113.726 224.146 115.269C224.146 115.718 224.297 116.084 224.6 116.367C224.902 116.641 225.288 116.777 225.757 116.777ZM235.234 111.958C235.234 109.448 235.776 107.471 236.86 106.025C237.944 104.58 239.458 103.857 241.401 103.857C242.817 103.857 244.009 104.414 244.976 105.527V97.5H249.927V120H245.488L245.239 118.301C244.224 119.629 242.935 120.293 241.372 120.293C239.487 120.293 237.993 119.57 236.89 118.125C235.786 116.68 235.234 114.624 235.234 111.958ZM240.171 112.266C240.171 115.078 240.991 116.484 242.632 116.484C243.726 116.484 244.507 116.025 244.976 115.107V109.072C244.526 108.135 243.755 107.666 242.661 107.666C241.138 107.666 240.312 108.896 240.186 111.357L240.171 112.266ZM252.109 111.929C252.109 110.347 252.417 108.94 253.032 107.71C253.647 106.47 254.531 105.518 255.684 104.854C256.836 104.189 258.188 103.857 259.741 103.857C262.114 103.857 263.984 104.595 265.352 106.069C266.719 107.534 267.402 109.531 267.402 112.061V112.236C267.402 114.707 266.714 116.67 265.337 118.125C263.97 119.57 262.114 120.293 259.771 120.293C257.515 120.293 255.703 119.619 254.336 118.271C252.969 116.914 252.231 115.078 252.124 112.764L252.109 111.929ZM257.046 112.236C257.046 113.701 257.275 114.775 257.734 115.459C258.193 116.143 258.872 116.484 259.771 116.484C261.528 116.484 262.427 115.132 262.466 112.427V111.929C262.466 109.087 261.558 107.666 259.741 107.666C258.091 107.666 257.197 108.892 257.061 111.343L257.046 112.236ZM60.2324 138.806C60.2324 137.481 60.4082 136.21 60.7598 134.991C61.1172 133.772 61.6475 132.665 62.3506 131.669C63.0537 130.673 63.7832 129.97 64.5391 129.56L64.873 130.632C64.0176 131.288 63.3145 132.29 62.7637 133.638C62.2188 134.985 61.9199 136.494 61.8672 138.164L61.8584 138.911C61.8584 141.173 62.2715 143.136 63.0977 144.8C63.5957 145.796 64.1875 146.575 64.873 147.138L64.5391 148.131C63.7598 147.697 63.0156 146.971 62.3066 145.951C60.9238 143.959 60.2324 141.577 60.2324 138.806ZM70.2607 142.849C70.8408 142.849 71.3477 142.673 71.7812 142.321C72.2148 141.97 72.4551 141.53 72.502 141.003H74.04C74.0107 141.548 73.8232 142.066 73.4775 142.559C73.1318 143.051 72.6689 143.443 72.0889 143.736C71.5146 144.029 70.9053 144.176 70.2607 144.176C68.9658 144.176 67.9346 143.745 67.167 142.884C66.4053 142.017 66.0244 140.833 66.0244 139.333V139.061C66.0244 138.135 66.1943 137.312 66.5342 136.591C66.874 135.87 67.3604 135.311 67.9932 134.912C68.6318 134.514 69.3848 134.314 70.252 134.314C71.3184 134.314 72.2031 134.634 72.9062 135.272C73.6152 135.911 73.9932 136.74 74.04 137.76H72.502C72.4551 137.145 72.2207 136.641 71.7988 136.248C71.3828 135.85 70.8672 135.65 70.252 135.65C69.4258 135.65 68.7842 135.949 68.3271 136.547C67.876 137.139 67.6504 137.997 67.6504 139.122V139.43C67.6504 140.525 67.876 141.369 68.3271 141.961C68.7783 142.553 69.4229 142.849 70.2607 142.849ZM75.4375 139.157C75.4375 138.226 75.6191 137.388 75.9824 136.644C76.3516 135.899 76.8613 135.325 77.5117 134.921C78.168 134.517 78.915 134.314 79.7529 134.314C81.0479 134.314 82.0938 134.763 82.8906 135.659C83.6934 136.556 84.0947 137.748 84.0947 139.236V139.351C84.0947 140.276 83.916 141.108 83.5586 141.847C83.207 142.579 82.7002 143.15 82.0381 143.561C81.3818 143.971 80.626 144.176 79.7705 144.176C78.4814 144.176 77.4355 143.728 76.6328 142.831C75.8359 141.935 75.4375 140.748 75.4375 139.271V139.157ZM77.0723 139.351C77.0723 140.405 77.3154 141.252 77.8018 141.891C78.2939 142.529 78.9502 142.849 79.7705 142.849C80.5967 142.849 81.2529 142.526 81.7393 141.882C82.2256 141.231 82.4688 140.323 82.4688 139.157C82.4688 138.114 82.2197 137.271 81.7217 136.626C81.2295 135.976 80.5732 135.65 79.7529 135.65C78.9502 135.65 78.3027 135.97 77.8105 136.608C77.3184 137.247 77.0723 138.161 77.0723 139.351ZM87.6631 134.49L87.707 135.545C88.4043 134.725 89.3447 134.314 90.5283 134.314C91.8584 134.314 92.7637 134.824 93.2441 135.844C93.5605 135.387 93.9707 135.018 94.4746 134.736C94.9844 134.455 95.585 134.314 96.2764 134.314C98.3623 134.314 99.4229 135.419 99.458 137.628V144H97.832V137.725C97.832 137.045 97.6768 136.538 97.3662 136.204C97.0557 135.864 96.5342 135.694 95.8018 135.694C95.1982 135.694 94.6973 135.876 94.2988 136.239C93.9004 136.597 93.6689 137.08 93.6045 137.689V144H91.9697V137.769C91.9697 136.386 91.293 135.694 89.9395 135.694C88.873 135.694 88.1436 136.148 87.751 137.057V144H86.125V134.49H87.6631ZM101.488 139.157C101.488 138.226 101.67 137.388 102.033 136.644C102.402 135.899 102.912 135.325 103.562 134.921C104.219 134.517 104.966 134.314 105.804 134.314C107.099 134.314 108.145 134.763 108.941 135.659C109.744 136.556 110.146 137.748 110.146 139.236V139.351C110.146 140.276 109.967 141.108 109.609 141.847C109.258 142.579 108.751 143.15 108.089 143.561C107.433 143.971 106.677 144.176 105.821 144.176C104.532 144.176 103.486 143.728 102.684 142.831C101.887 141.935 101.488 140.748 101.488 139.271V139.157ZM103.123 139.351C103.123 140.405 103.366 141.252 103.853 141.891C104.345 142.529 105.001 142.849 105.821 142.849C106.647 142.849 107.304 142.526 107.79 141.882C108.276 141.231 108.52 140.323 108.52 139.157C108.52 138.114 108.271 137.271 107.772 136.626C107.28 135.976 106.624 135.65 105.804 135.65C105.001 135.65 104.354 135.97 103.861 136.608C103.369 137.247 103.123 138.161 103.123 139.351ZM124.683 139.351C124.683 140.798 124.352 141.964 123.689 142.849C123.027 143.733 122.131 144.176 121 144.176C119.846 144.176 118.938 143.81 118.275 143.077V147.656H116.649V134.49H118.135L118.214 135.545C118.876 134.725 119.796 134.314 120.974 134.314C122.116 134.314 123.019 134.745 123.681 135.606C124.349 136.468 124.683 137.666 124.683 139.201V139.351ZM123.057 139.166C123.057 138.094 122.828 137.247 122.371 136.626C121.914 136.005 121.287 135.694 120.49 135.694C119.506 135.694 118.768 136.131 118.275 137.004V141.548C118.762 142.415 119.506 142.849 120.508 142.849C121.287 142.849 121.905 142.541 122.362 141.926C122.825 141.305 123.057 140.385 123.057 139.166ZM132.294 141.478C132.294 141.038 132.127 140.698 131.793 140.458C131.465 140.212 130.888 140.001 130.062 139.825C129.241 139.649 128.588 139.438 128.102 139.192C127.621 138.946 127.264 138.653 127.029 138.313C126.801 137.974 126.687 137.569 126.687 137.101C126.687 136.321 127.015 135.662 127.671 135.123C128.333 134.584 129.177 134.314 130.202 134.314C131.28 134.314 132.153 134.593 132.821 135.149C133.495 135.706 133.832 136.418 133.832 137.285H132.197C132.197 136.84 132.007 136.456 131.626 136.134C131.251 135.812 130.776 135.65 130.202 135.65C129.61 135.65 129.147 135.779 128.813 136.037C128.479 136.295 128.312 136.632 128.312 137.048C128.312 137.44 128.468 137.736 128.778 137.936C129.089 138.135 129.648 138.325 130.457 138.507C131.271 138.688 131.931 138.905 132.435 139.157C132.938 139.409 133.311 139.714 133.551 140.071C133.797 140.423 133.92 140.854 133.92 141.363C133.92 142.213 133.58 142.896 132.9 143.411C132.221 143.921 131.339 144.176 130.255 144.176C129.493 144.176 128.819 144.041 128.233 143.771C127.647 143.502 127.188 143.127 126.854 142.646C126.525 142.16 126.361 141.636 126.361 141.073H127.987C128.017 141.618 128.233 142.052 128.638 142.374C129.048 142.69 129.587 142.849 130.255 142.849C130.87 142.849 131.362 142.726 131.731 142.479C132.106 142.228 132.294 141.894 132.294 141.478ZM137.805 144H136.179V134.49H137.805V144ZM136.047 131.968C136.047 131.704 136.126 131.481 136.284 131.3C136.448 131.118 136.688 131.027 137.005 131.027C137.321 131.027 137.562 131.118 137.726 131.3C137.89 131.481 137.972 131.704 137.972 131.968C137.972 132.231 137.89 132.451 137.726 132.627C137.562 132.803 137.321 132.891 137.005 132.891C136.688 132.891 136.448 132.803 136.284 132.627C136.126 132.451 136.047 132.231 136.047 131.968ZM144.229 142.849C144.81 142.849 145.316 142.673 145.75 142.321C146.184 141.97 146.424 141.53 146.471 141.003H148.009C147.979 141.548 147.792 142.066 147.446 142.559C147.101 143.051 146.638 143.443 146.058 143.736C145.483 144.029 144.874 144.176 144.229 144.176C142.935 144.176 141.903 143.745 141.136 142.884C140.374 142.017 139.993 140.833 139.993 139.333V139.061C139.993 138.135 140.163 137.312 140.503 136.591C140.843 135.87 141.329 135.311 141.962 134.912C142.601 134.514 143.354 134.314 144.221 134.314C145.287 134.314 146.172 134.634 146.875 135.272C147.584 135.911 147.962 136.74 148.009 137.76H146.471C146.424 137.145 146.189 136.641 145.768 136.248C145.352 135.85 144.836 135.65 144.221 135.65C143.395 135.65 142.753 135.949 142.296 136.547C141.845 137.139 141.619 137.997 141.619 139.122V139.43C141.619 140.525 141.845 141.369 142.296 141.961C142.747 142.553 143.392 142.849 144.229 142.849ZM149.406 139.157C149.406 138.226 149.588 137.388 149.951 136.644C150.32 135.899 150.83 135.325 151.48 134.921C152.137 134.517 152.884 134.314 153.722 134.314C155.017 134.314 156.062 134.763 156.859 135.659C157.662 136.556 158.063 137.748 158.063 139.236V139.351C158.063 140.276 157.885 141.108 157.527 141.847C157.176 142.579 156.669 143.15 156.007 143.561C155.351 143.971 154.595 144.176 153.739 144.176C152.45 144.176 151.404 143.728 150.602 142.831C149.805 141.935 149.406 140.748 149.406 139.271V139.157ZM151.041 139.351C151.041 140.405 151.284 141.252 151.771 141.891C152.263 142.529 152.919 142.849 153.739 142.849C154.565 142.849 155.222 142.526 155.708 141.882C156.194 141.231 156.438 140.323 156.438 139.157C156.438 138.114 156.188 137.271 155.69 136.626C155.198 135.976 154.542 135.65 153.722 135.65C152.919 135.65 152.271 135.97 151.779 136.608C151.287 137.247 151.041 138.161 151.041 139.351ZM161.869 144H160.243V130.5H161.869V144ZM164.049 139.157C164.049 138.226 164.23 137.388 164.594 136.644C164.963 135.899 165.473 135.325 166.123 134.921C166.779 134.517 167.526 134.314 168.364 134.314C169.659 134.314 170.705 134.763 171.502 135.659C172.305 136.556 172.706 137.748 172.706 139.236V139.351C172.706 140.276 172.527 141.108 172.17 141.847C171.818 142.579 171.312 143.15 170.649 143.561C169.993 143.971 169.237 144.176 168.382 144.176C167.093 144.176 166.047 143.728 165.244 142.831C164.447 141.935 164.049 140.748 164.049 139.271V139.157ZM165.684 139.351C165.684 140.405 165.927 141.252 166.413 141.891C166.905 142.529 167.562 142.849 168.382 142.849C169.208 142.849 169.864 142.526 170.351 141.882C170.837 141.231 171.08 140.323 171.08 139.157C171.08 138.114 170.831 137.271 170.333 136.626C169.841 135.976 169.185 135.65 168.364 135.65C167.562 135.65 166.914 135.97 166.422 136.608C165.93 137.247 165.684 138.161 165.684 139.351ZM174.358 139.166C174.358 137.684 174.701 136.506 175.387 135.633C176.072 134.754 176.98 134.314 178.111 134.314C179.271 134.314 180.177 134.725 180.827 135.545L180.906 134.49H182.392V143.771C182.392 145.002 182.025 145.972 181.293 146.681C180.566 147.39 179.588 147.744 178.357 147.744C177.672 147.744 177.001 147.598 176.345 147.305C175.688 147.012 175.188 146.61 174.842 146.101L175.686 145.125C176.383 145.986 177.235 146.417 178.243 146.417C179.034 146.417 179.649 146.194 180.089 145.749C180.534 145.304 180.757 144.677 180.757 143.868V143.051C180.106 143.801 179.219 144.176 178.094 144.176C176.98 144.176 176.078 143.728 175.387 142.831C174.701 141.935 174.358 140.713 174.358 139.166ZM175.993 139.351C175.993 140.423 176.213 141.267 176.652 141.882C177.092 142.491 177.707 142.796 178.498 142.796C179.523 142.796 180.276 142.33 180.757 141.398V137.057C180.259 136.148 179.512 135.694 178.516 135.694C177.725 135.694 177.106 136.002 176.661 136.617C176.216 137.232 175.993 138.144 175.993 139.351ZM186.619 144H184.984V134.49H186.619V144ZM186.637 130.509H188.605L186.25 133.093H184.94L186.637 130.509ZM195.171 144C195.077 143.812 195.001 143.479 194.942 142.998C194.187 143.783 193.284 144.176 192.235 144.176C191.298 144.176 190.527 143.912 189.924 143.385C189.326 142.852 189.027 142.178 189.027 141.363C189.027 140.373 189.402 139.605 190.152 139.061C190.908 138.51 191.969 138.234 193.334 138.234H194.916V137.487C194.916 136.919 194.746 136.468 194.406 136.134C194.066 135.794 193.565 135.624 192.903 135.624C192.323 135.624 191.837 135.771 191.444 136.063C191.052 136.356 190.855 136.711 190.855 137.127H189.221C189.221 136.652 189.388 136.195 189.722 135.756C190.062 135.311 190.519 134.959 191.093 134.701C191.673 134.443 192.309 134.314 193 134.314C194.096 134.314 194.954 134.59 195.575 135.141C196.196 135.686 196.519 136.438 196.542 137.399V141.776C196.542 142.649 196.653 143.344 196.876 143.859V144H195.171ZM192.473 142.761C192.982 142.761 193.466 142.629 193.923 142.365C194.38 142.102 194.711 141.759 194.916 141.337V139.386H193.642C191.649 139.386 190.653 139.969 190.653 141.135C190.653 141.645 190.823 142.043 191.163 142.33C191.503 142.617 191.939 142.761 192.473 142.761ZM203.125 139.157C203.125 138.226 203.307 137.388 203.67 136.644C204.039 135.899 204.549 135.325 205.199 134.921C205.855 134.517 206.603 134.314 207.44 134.314C208.735 134.314 209.781 134.763 210.578 135.659C211.381 136.556 211.782 137.748 211.782 139.236V139.351C211.782 140.276 211.604 141.108 211.246 141.847C210.895 142.579 210.388 143.15 209.726 143.561C209.069 143.971 208.313 144.176 207.458 144.176C206.169 144.176 205.123 143.728 204.32 142.831C203.523 141.935 203.125 140.748 203.125 139.271V139.157ZM204.76 139.351C204.76 140.405 205.003 141.252 205.489 141.891C205.981 142.529 206.638 142.849 207.458 142.849C208.284 142.849 208.94 142.526 209.427 141.882C209.913 141.231 210.156 140.323 210.156 139.157C210.156 138.114 209.907 137.271 209.409 136.626C208.917 135.976 208.261 135.65 207.44 135.65C206.638 135.65 205.99 135.97 205.498 136.608C205.006 137.247 204.76 138.161 204.76 139.351ZM218.831 144V135.747H217.328V134.49H218.831V133.682C218.831 132.621 219.133 131.795 219.736 131.203C220.346 130.611 221.204 130.315 222.312 130.315C222.968 130.315 223.797 130.494 224.799 130.852L224.526 132.223C223.794 131.93 223.097 131.783 222.435 131.783C221.737 131.783 221.233 131.941 220.923 132.258C220.618 132.568 220.466 133.037 220.466 133.664V134.49H222.408V135.747H220.466V144H218.831ZM225.607 144H223.973V134.49H225.607V144ZM229.791 134.49L229.844 135.686C230.57 134.771 231.52 134.314 232.691 134.314C234.701 134.314 235.715 135.448 235.732 137.716V144H234.106V137.707C234.101 137.021 233.942 136.515 233.632 136.187C233.327 135.858 232.85 135.694 232.199 135.694C231.672 135.694 231.209 135.835 230.811 136.116C230.412 136.397 230.102 136.767 229.879 137.224V144H228.253V134.49H229.791ZM244.056 144C243.962 143.812 243.886 143.479 243.827 142.998C243.071 143.783 242.169 144.176 241.12 144.176C240.183 144.176 239.412 143.912 238.809 143.385C238.211 142.852 237.912 142.178 237.912 141.363C237.912 140.373 238.287 139.605 239.037 139.061C239.793 138.51 240.854 138.234 242.219 138.234H243.801V137.487C243.801 136.919 243.631 136.468 243.291 136.134C242.951 135.794 242.45 135.624 241.788 135.624C241.208 135.624 240.722 135.771 240.329 136.063C239.937 136.356 239.74 136.711 239.74 137.127H238.105C238.105 136.652 238.272 136.195 238.606 135.756C238.946 135.311 239.403 134.959 239.978 134.701C240.558 134.443 241.193 134.314 241.885 134.314C242.98 134.314 243.839 134.59 244.46 135.141C245.081 135.686 245.403 136.438 245.427 137.399V141.776C245.427 142.649 245.538 143.344 245.761 143.859V144H244.056ZM241.357 142.761C241.867 142.761 242.351 142.629 242.808 142.365C243.265 142.102 243.596 141.759 243.801 141.337V139.386H242.526C240.534 139.386 239.538 139.969 239.538 141.135C239.538 141.645 239.708 142.043 240.048 142.33C240.388 142.617 240.824 142.761 241.357 142.761ZM249.514 134.49L249.566 135.686C250.293 134.771 251.242 134.314 252.414 134.314C254.424 134.314 255.438 135.448 255.455 137.716V144H253.829V137.707C253.823 137.021 253.665 136.515 253.354 136.187C253.05 135.858 252.572 135.694 251.922 135.694C251.395 135.694 250.932 135.835 250.533 136.116C250.135 136.397 249.824 136.767 249.602 137.224V144H247.976V134.49H249.514ZM259.437 142.673H265V144H257.45V142.805L262.697 135.835H257.529V134.49H264.736V135.642L259.437 142.673ZM272.708 144C272.614 143.812 272.538 143.479 272.479 142.998C271.724 143.783 270.821 144.176 269.772 144.176C268.835 144.176 268.064 143.912 267.461 143.385C266.863 142.852 266.564 142.178 266.564 141.363C266.564 140.373 266.939 139.605 267.689 139.061C268.445 138.51 269.506 138.234 270.871 138.234H272.453V137.487C272.453 136.919 272.283 136.468 271.943 136.134C271.604 135.794 271.103 135.624 270.44 135.624C269.86 135.624 269.374 135.771 268.981 136.063C268.589 136.356 268.393 136.711 268.393 137.127H266.758C266.758 136.652 266.925 136.195 267.259 135.756C267.599 135.311 268.056 134.959 268.63 134.701C269.21 134.443 269.846 134.314 270.537 134.314C271.633 134.314 272.491 134.59 273.112 135.141C273.733 135.686 274.056 136.438 274.079 137.399V141.776C274.079 142.649 274.19 143.344 274.413 143.859V144H272.708ZM270.01 142.761C270.52 142.761 271.003 142.629 271.46 142.365C271.917 142.102 272.248 141.759 272.453 141.337V139.386H271.179C269.187 139.386 268.19 139.969 268.19 141.135C268.19 141.645 268.36 142.043 268.7 142.33C269.04 142.617 269.477 142.761 270.01 142.761ZM282.165 141.478C282.165 141.038 281.998 140.698 281.664 140.458C281.336 140.212 280.759 140.001 279.933 139.825C279.112 139.649 278.459 139.438 277.973 139.192C277.492 138.946 277.135 138.653 276.9 138.313C276.672 137.974 276.558 137.569 276.558 137.101C276.558 136.321 276.886 135.662 277.542 135.123C278.204 134.584 279.048 134.314 280.073 134.314C281.151 134.314 282.024 134.593 282.692 135.149C283.366 135.706 283.703 136.418 283.703 137.285H282.068C282.068 136.84 281.878 136.456 281.497 136.134C281.122 135.812 280.647 135.65 280.073 135.65C279.481 135.65 279.019 135.779 278.685 136.037C278.351 136.295 278.184 136.632 278.184 137.048C278.184 137.44 278.339 137.736 278.649 137.936C278.96 138.135 279.52 138.325 280.328 138.507C281.143 138.688 281.802 138.905 282.306 139.157C282.81 139.409 283.182 139.714 283.422 140.071C283.668 140.423 283.791 140.854 283.791 141.363C283.791 142.213 283.451 142.896 282.771 143.411C282.092 143.921 281.21 144.176 280.126 144.176C279.364 144.176 278.69 144.041 278.104 143.771C277.519 143.502 277.059 143.127 276.725 142.646C276.396 142.16 276.232 141.636 276.232 141.073H277.858C277.888 141.618 278.104 142.052 278.509 142.374C278.919 142.69 279.458 142.849 280.126 142.849C280.741 142.849 281.233 142.726 281.603 142.479C281.978 142.228 282.165 141.894 282.165 141.478ZM289.662 138.894C289.662 140.2 289.489 141.454 289.144 142.655C288.804 143.851 288.279 144.955 287.57 145.969C286.867 146.982 286.129 147.703 285.355 148.131L285.013 147.138C285.915 146.446 286.639 145.374 287.184 143.921C287.734 142.462 288.016 140.845 288.027 139.069V138.788C288.027 137.558 287.898 136.415 287.641 135.36C287.383 134.3 287.022 133.351 286.56 132.513C286.103 131.675 285.587 131.021 285.013 130.553L285.355 129.56C286.129 129.987 286.864 130.702 287.562 131.704C288.265 132.706 288.789 133.811 289.135 135.018C289.486 136.225 289.662 137.517 289.662 138.894Z" fill="white"/>
<defs>
<filter id="filter0_d" x="71" y="0" width="218.998" height="217" filterUnits="userSpaceOnUse" color-interpolation-filters="sRGB">
<feFlood flood-opacity="0" result="BackgroundImageFix"/>
<feColorMatrix in="SourceAlpha" type="matrix" values="0 0 0 0 0 0 0 0 0 0 0 0 0 0 0 0 0 0 127 0"/>
<feOffset dx="8" dy="6"/>
<feGaussianBlur stdDeviation="2"/>
<feColorMatrix type="matrix" values="0 0 0 0 0 0 0 0 0 0 0 0 0 0 0 0 0 0 0.25 0"/>
<feBlend mode="normal" in2="BackgroundImageFix" result="effect1_dropShadow"/>
<feBlend mode="normal" in="SourceGraphic" in2="effect1_dropShadow" result="shape"/>
</filter>
<filter id="filter1_bd" x="-50" y="5" width="450" height="203" filterUnits="userSpaceOnUse" color-interpolation-filters="sRGB">
<feFlood flood-opacity="0" result="BackgroundImageFix"/>
<feGaussianBlur in="BackgroundImage" stdDeviation="25"/>
<feComposite in2="SourceAlpha" operator="in" result="effect1_backgroundBlur"/>
<feColorMatrix in="SourceAlpha" type="matrix" values="0 0 0 0 0 0 0 0 0 0 0 0 0 0 0 0 0 0 127 0"/>
<feOffset dx="5" dy="4"/>
<feGaussianBlur stdDeviation="2"/>
<feColorMatrix type="matrix" values="0 0 0 0 0 0 0 0 0 0 0 0 0 0 0 0 0 0 0.25 0"/>
<feBlend mode="normal" in2="effect1_backgroundBlur" result="effect2_dropShadow"/>
<feBlend mode="normal" in="SourceGraphic" in2="effect2_dropShadow" result="shape"/>
</filter>
</defs>
</svg>
