<svg width="359" height="195" viewBox="0 0 359 195" fill="none" xmlns="http://www.w3.org/2000/svg">
<g filter="url(#filter0_d)">
<path d="M84 91.5009C84 142.03 124.965 182.998 175.503 182.998C226.035 182.998 267 142.03 267 91.5009C267 40.9648 226.035 0 175.503 0C124.965 0 84 40.9648 84 91.5009Z" fill="#A434A9"/>
<path d="M131.719 171.862C103.292 156.341 84 126.171 84 91.5009C84 40.9648 124.965 0 175.503 0C226.035 0 267 40.9648 267 91.5009C267 106.322 263.47 120.32 257.215 132.701C257.192 132.719 217.933 164.875 131.719 171.862Z" fill="#461AC4"/>
<path d="M99.5505 142.538C89.7296 127.954 84 110.398 84 91.5009C84 40.9648 124.965 0 175.503 0C226.035 0 267 40.9648 267 91.5009C267 101.944 265.24 111.986 262.019 121.342C188.406 152.282 129.598 147.758 99.5505 142.538Z" fill="#A434A9"/>
<path d="M175.503 0C226.035 0 267 40.9648 267 91.5009C267 93.7685 266.914 96.0165 266.75 98.2431C261.764 103.472 251.89 111.159 229.182 116.477C206.096 121.88 201.751 121.386 169.297 131.207C136.847 141.032 123.804 133.519 109.338 134.156C102.759 134.444 97.6983 133.963 94.1151 133.353C87.6492 120.809 84 106.579 84 91.5009C84 40.9648 124.965 0 175.503 0Z" fill="#0C0433"/>
<path d="M175.503 0C224.688 0 264.8 38.8148 266.906 87.4773C266.906 87.4773 212.663 130.465 90.0273 124.205C86.1375 114.05 84 103.028 84 91.5009C84 40.9648 124.965 0 175.503 0Z" fill="#4918C7"/>
<path d="M175.503 0C220.708 0 258.258 32.7929 265.668 75.8862C255.612 80.8047 188.939 110.576 84.0053 91.8842C84.0053 91.754 84 91.6275 84 91.5009C84 40.9648 124.965 0 175.503 0Z" fill="#461AC4"/>
<path d="M254.357 45.0721C254.357 45.0721 193.495 86.7785 84.2402 84.8764C87.6327 37.4332 127.196 0 175.502 0C209.085 0 238.441 18.098 254.357 45.0721Z" fill="#A434A9"/>
<path d="M251.211 40.1055C251.199 40.1091 205.385 56.2818 158.76 56.1677C117.824 56.0732 97.7433 62.1166 87.6621 65.8085C98.7648 27.7835 133.886 0 175.503 0C206.98 0 234.744 15.8999 251.211 40.1055Z" fill="#0C0433"/>
<path d="M154.038 49.5111C122.6 49.5111 106.045 54.3155 91.0742 56.1677C104.897 23.1787 137.494 0 175.503 0C203.886 0 229.255 12.9264 246.036 33.2154C224.11 41.6529 185.47 49.5111 154.038 49.5111Z" fill="#4918C7"/>
<path d="M96.6426 45.0721C112.562 18.098 141.914 0 175.502 0C192.836 0 209.044 4.824 222.858 13.1956C222.858 13.1956 184.642 34.7342 96.6426 45.0721Z" fill="#461AC4"/>
<path d="M214.708 8.80656C194.916 18.3583 163.78 28.1026 111.48 26.1345C127.983 9.97067 150.575 0 175.503 0C189.533 0 202.826 3.16252 214.708 8.80656Z" fill="#A434A9"/>
</g>
<g filter="url(#filter1_bd)">
<rect y="59" width="350" height="75" rx="37.5" fill="#C4C4C4" fill-opacity="0.06"/>
</g>
<path d="M90.7568 87.7783C90.6885 89.2627 90.2881 90.5762 89.5557 91.7188C88.8232 92.8516 87.793 93.7305 86.4648 94.3555C85.1465 94.9805 83.6377 95.293 81.9385 95.293C79.1357 95.293 76.9287 94.3799 75.3174 92.5537C73.7061 90.7275 72.9004 88.1494 72.9004 84.8193V83.7646C72.9004 81.6748 73.2617 79.8486 73.9844 78.2861C74.7168 76.7139 75.7666 75.5029 77.1338 74.6533C78.501 73.7939 80.083 73.3643 81.8799 73.3643C84.4678 73.3643 86.5479 74.0479 88.1201 75.415C89.6924 76.7725 90.5859 78.6475 90.8008 81.04H85.6738C85.6348 79.7412 85.3076 78.8086 84.6924 78.2422C84.0771 77.6758 83.1396 77.3926 81.8799 77.3926C80.6006 77.3926 79.6631 77.8711 79.0674 78.8281C78.4717 79.7852 78.1592 81.3135 78.1299 83.4131V84.9219C78.1299 87.1973 78.4131 88.8232 78.9795 89.7998C79.5557 90.7764 80.542 91.2646 81.9385 91.2646C83.1201 91.2646 84.0234 90.9863 84.6484 90.4297C85.2734 89.873 85.6055 88.9893 85.6445 87.7783H90.7568ZM92.3389 86.9287C92.3389 85.3467 92.6465 83.9404 93.2617 82.71C93.877 81.4697 94.7607 80.5176 95.9131 79.8535C97.0654 79.1895 98.418 78.8574 99.9707 78.8574C102.344 78.8574 104.214 79.5947 105.581 81.0693C106.948 82.5342 107.632 84.5312 107.632 87.0605V87.2363C107.632 89.707 106.943 91.6699 105.566 93.125C104.199 94.5703 102.344 95.293 100 95.293C97.7441 95.293 95.9326 94.6191 94.5654 93.2715C93.1982 91.9141 92.4609 90.0781 92.3535 87.7637L92.3389 86.9287ZM97.2754 87.2363C97.2754 88.7012 97.5049 89.7754 97.9639 90.459C98.4229 91.1426 99.1016 91.4844 100 91.4844C101.758 91.4844 102.656 90.1318 102.695 87.4268V86.9287C102.695 84.0869 101.787 82.666 99.9707 82.666C98.3203 82.666 97.4268 83.8916 97.29 86.3428L97.2754 87.2363ZM114.341 79.1504L114.502 81.0107C115.596 79.5752 117.104 78.8574 119.028 78.8574C120.679 78.8574 121.909 79.3506 122.72 80.3369C123.54 81.3232 123.965 82.8076 123.994 84.79V95H119.043V84.9951C119.043 84.1943 118.882 83.6084 118.56 83.2373C118.237 82.8564 117.651 82.666 116.802 82.666C115.835 82.666 115.117 83.0469 114.648 83.8086V95H109.712V79.1504H114.341ZM132.49 75.21V79.1504H135.098V82.5781H132.49V89.8291C132.49 90.4248 132.598 90.8398 132.812 91.0742C133.027 91.3086 133.452 91.4258 134.087 91.4258C134.575 91.4258 134.985 91.3965 135.317 91.3379V94.8682C134.429 95.1514 133.501 95.293 132.534 95.293C130.835 95.293 129.58 94.8926 128.77 94.0918C127.959 93.291 127.554 92.0752 127.554 90.4443V82.5781H125.532V79.1504H127.554V75.21H132.49ZM144.722 95.293C142.29 95.293 140.322 94.5703 138.818 93.125C137.314 91.6699 136.562 89.7803 136.562 87.4561V87.0459C136.562 85.4248 136.86 83.9941 137.456 82.7539C138.062 81.5137 138.94 80.5566 140.093 79.8828C141.245 79.1992 142.612 78.8574 144.194 78.8574C146.421 78.8574 148.179 79.5508 149.468 80.9375C150.757 82.3145 151.401 84.2383 151.401 86.709V88.6279H141.587C141.763 89.5166 142.148 90.2148 142.744 90.7227C143.34 91.2305 144.111 91.4844 145.059 91.4844C146.621 91.4844 147.842 90.9375 148.721 89.8438L150.977 92.5098C150.361 93.3594 149.487 94.0381 148.354 94.5459C147.231 95.0439 146.021 95.293 144.722 95.293ZM144.165 82.666C142.72 82.666 141.86 83.623 141.587 85.5371H146.567V85.1562C146.587 84.3652 146.387 83.7549 145.967 83.3252C145.547 82.8857 144.946 82.666 144.165 82.666ZM157.935 79.1504L158.096 81.0107C159.189 79.5752 160.698 78.8574 162.622 78.8574C164.272 78.8574 165.503 79.3506 166.313 80.3369C167.134 81.3232 167.559 82.8076 167.588 84.79V95H162.637V84.9951C162.637 84.1943 162.476 83.6084 162.153 83.2373C161.831 82.8564 161.245 82.666 160.396 82.666C159.429 82.666 158.711 83.0469 158.242 83.8086V95H153.306V79.1504H157.935ZM175.542 95H170.591V79.1504H175.542V95ZM170.298 75.0635C170.298 74.3604 170.552 73.7842 171.06 73.335C171.567 72.8857 172.227 72.6611 173.037 72.6611C173.848 72.6611 174.507 72.8857 175.015 73.335C175.522 73.7842 175.776 74.3604 175.776 75.0635C175.776 75.7666 175.522 76.3428 175.015 76.792C174.507 77.2412 173.848 77.4658 173.037 77.4658C172.227 77.4658 171.567 77.2412 171.06 76.792C170.552 76.3428 170.298 75.7666 170.298 75.0635ZM177.974 86.958C177.974 84.4482 178.516 82.4707 179.6 81.0254C180.684 79.5801 182.197 78.8574 184.141 78.8574C185.557 78.8574 186.748 79.4141 187.715 80.5273V72.5H192.666V95H188.228L187.979 93.3008C186.963 94.6289 185.674 95.293 184.111 95.293C182.227 95.293 180.732 94.5703 179.629 93.125C178.525 91.6797 177.974 89.624 177.974 86.958ZM182.91 87.2656C182.91 90.0781 183.73 91.4844 185.371 91.4844C186.465 91.4844 187.246 91.0254 187.715 90.1074V84.0723C187.266 83.1348 186.494 82.666 185.4 82.666C183.877 82.666 183.052 83.8965 182.925 86.3574L182.91 87.2656ZM194.849 86.9287C194.849 85.3467 195.156 83.9404 195.771 82.71C196.387 81.4697 197.271 80.5176 198.423 79.8535C199.575 79.1895 200.928 78.8574 202.48 78.8574C204.854 78.8574 206.724 79.5947 208.091 81.0693C209.458 82.5342 210.142 84.5312 210.142 87.0605V87.2363C210.142 89.707 209.453 91.6699 208.076 93.125C206.709 94.5703 204.854 95.293 202.51 95.293C200.254 95.293 198.442 94.6191 197.075 93.2715C195.708 91.9141 194.971 90.0781 194.863 87.7637L194.849 86.9287ZM199.785 87.2363C199.785 88.7012 200.015 89.7754 200.474 90.459C200.933 91.1426 201.611 91.4844 202.51 91.4844C204.268 91.4844 205.166 90.1318 205.205 87.4268V86.9287C205.205 84.0869 204.297 82.666 202.48 82.666C200.83 82.666 199.937 83.8916 199.8 86.3428L199.785 87.2363ZM234.502 87.1924C234.502 89.6533 233.945 91.6211 232.832 93.0957C231.729 94.5605 230.234 95.293 228.35 95.293C226.895 95.293 225.698 94.7607 224.761 93.6963V101.094H219.824V79.1504H224.438L224.585 80.6152C225.532 79.4434 226.777 78.8574 228.32 78.8574C230.273 78.8574 231.792 79.5801 232.876 81.0254C233.96 82.4609 234.502 84.4385 234.502 86.958V87.1924ZM229.565 86.8848C229.565 84.0723 228.745 82.666 227.104 82.666C225.933 82.666 225.151 83.0859 224.761 83.9258V90.166C225.19 91.0449 225.981 91.4844 227.134 91.4844C228.706 91.4844 229.517 90.127 229.565 87.4121V86.8848ZM245.62 95C245.444 94.6777 245.288 94.2041 245.151 93.5791C244.243 94.7217 242.974 95.293 241.343 95.293C239.849 95.293 238.579 94.8438 237.534 93.9453C236.489 93.0371 235.967 91.8994 235.967 90.5322C235.967 88.8135 236.602 87.5146 237.871 86.6357C239.141 85.7568 240.986 85.3174 243.408 85.3174H244.932V84.4824C244.932 83.0273 244.302 82.2998 243.042 82.2998C241.87 82.2998 241.284 82.876 241.284 84.0283H236.348C236.348 82.4951 236.997 81.25 238.296 80.293C239.604 79.3359 241.27 78.8574 243.291 78.8574C245.312 78.8574 246.909 79.3506 248.081 80.3369C249.253 81.3232 249.854 82.6758 249.883 84.3945V91.4111C249.902 92.8662 250.127 93.9795 250.557 94.751V95H245.62ZM242.529 91.7773C243.145 91.7773 243.652 91.6455 244.053 91.3818C244.463 91.1182 244.756 90.8203 244.932 90.4883V87.9541H243.496C241.777 87.9541 240.918 88.7256 240.918 90.2686C240.918 90.7178 241.069 91.084 241.372 91.3672C241.675 91.6406 242.061 91.7773 242.529 91.7773ZM262.217 83.6182L260.591 83.501C259.038 83.501 258.042 83.9893 257.603 84.9658V95H252.666V79.1504H257.295L257.456 81.1865C258.286 79.6338 259.443 78.8574 260.928 78.8574C261.455 78.8574 261.914 78.916 262.305 79.0332L262.217 83.6182ZM272.485 95C272.31 94.6777 272.153 94.2041 272.017 93.5791C271.108 94.7217 269.839 95.293 268.208 95.293C266.714 95.293 265.444 94.8438 264.399 93.9453C263.354 93.0371 262.832 91.8994 262.832 90.5322C262.832 88.8135 263.467 87.5146 264.736 86.6357C266.006 85.7568 267.852 85.3174 270.273 85.3174H271.797V84.4824C271.797 83.0273 271.167 82.2998 269.907 82.2998C268.735 82.2998 268.149 82.876 268.149 84.0283H263.213C263.213 82.4951 263.862 81.25 265.161 80.293C266.47 79.3359 268.135 78.8574 270.156 78.8574C272.178 78.8574 273.774 79.3506 274.946 80.3369C276.118 81.3232 276.719 82.6758 276.748 84.3945V91.4111C276.768 92.8662 276.992 93.9795 277.422 94.751V95H272.485ZM269.395 91.7773C270.01 91.7773 270.518 91.6455 270.918 91.3818C271.328 91.1182 271.621 90.8203 271.797 90.4883V87.9541H270.361C268.643 87.9541 267.783 88.7256 267.783 90.2686C267.783 90.7178 267.935 91.084 268.237 91.3672C268.54 91.6406 268.926 91.7773 269.395 91.7773ZM124.419 119C124.243 118.678 124.087 118.204 123.95 117.579C123.042 118.722 121.772 119.293 120.142 119.293C118.647 119.293 117.378 118.844 116.333 117.945C115.288 117.037 114.766 115.899 114.766 114.532C114.766 112.813 115.4 111.515 116.67 110.636C117.939 109.757 119.785 109.317 122.207 109.317H123.73V108.482C123.73 107.027 123.101 106.3 121.841 106.3C120.669 106.3 120.083 106.876 120.083 108.028H115.146C115.146 106.495 115.796 105.25 117.095 104.293C118.403 103.336 120.068 102.857 122.09 102.857C124.111 102.857 125.708 103.351 126.88 104.337C128.052 105.323 128.652 106.676 128.682 108.395V115.411C128.701 116.866 128.926 117.979 129.355 118.751V119H124.419ZM121.328 115.777C121.943 115.777 122.451 115.646 122.852 115.382C123.262 115.118 123.555 114.82 123.73 114.488V111.954H122.295C120.576 111.954 119.717 112.726 119.717 114.269C119.717 114.718 119.868 115.084 120.171 115.367C120.474 115.641 120.859 115.777 121.328 115.777ZM146.143 111.192C146.143 113.653 145.586 115.621 144.473 117.096C143.369 118.561 141.875 119.293 139.99 119.293C138.535 119.293 137.339 118.761 136.401 117.696V125.094H131.465V103.15H136.079L136.226 104.615C137.173 103.443 138.418 102.857 139.961 102.857C141.914 102.857 143.433 103.58 144.517 105.025C145.601 106.461 146.143 108.438 146.143 110.958V111.192ZM141.206 110.885C141.206 108.072 140.386 106.666 138.745 106.666C137.573 106.666 136.792 107.086 136.401 107.926V114.166C136.831 115.045 137.622 115.484 138.774 115.484C140.347 115.484 141.157 114.127 141.206 111.412V110.885ZM157.92 107.618L156.294 107.501C154.741 107.501 153.745 107.989 153.306 108.966V119H148.369V103.15H152.998L153.159 105.187C153.989 103.634 155.146 102.857 156.631 102.857C157.158 102.857 157.617 102.916 158.008 103.033L157.92 107.618ZM167.075 119.293C164.644 119.293 162.676 118.57 161.172 117.125C159.668 115.67 158.916 113.78 158.916 111.456V111.046C158.916 109.425 159.214 107.994 159.81 106.754C160.415 105.514 161.294 104.557 162.446 103.883C163.599 103.199 164.966 102.857 166.548 102.857C168.774 102.857 170.532 103.551 171.821 104.938C173.11 106.314 173.755 108.238 173.755 110.709V112.628H163.94C164.116 113.517 164.502 114.215 165.098 114.723C165.693 115.23 166.465 115.484 167.412 115.484C168.975 115.484 170.195 114.938 171.074 113.844L173.33 116.51C172.715 117.359 171.841 118.038 170.708 118.546C169.585 119.044 168.374 119.293 167.075 119.293ZM166.519 106.666C165.073 106.666 164.214 107.623 163.94 109.537H168.921V109.156C168.94 108.365 168.74 107.755 168.32 107.325C167.9 106.886 167.3 106.666 166.519 106.666ZM180.288 103.15L180.449 105.011C181.543 103.575 183.052 102.857 184.976 102.857C186.626 102.857 187.856 103.351 188.667 104.337C189.487 105.323 189.912 106.808 189.941 108.79V119H184.99V108.995C184.99 108.194 184.829 107.608 184.507 107.237C184.185 106.856 183.599 106.666 182.749 106.666C181.782 106.666 181.064 107.047 180.596 107.809V119H175.659V103.15H180.288ZM192.065 110.958C192.065 108.448 192.607 106.471 193.691 105.025C194.775 103.58 196.289 102.857 198.232 102.857C199.648 102.857 200.84 103.414 201.807 104.527V96.5H206.758V119H202.319L202.07 117.301C201.055 118.629 199.766 119.293 198.203 119.293C196.318 119.293 194.824 118.57 193.721 117.125C192.617 115.68 192.065 113.624 192.065 110.958ZM197.002 111.266C197.002 114.078 197.822 115.484 199.463 115.484C200.557 115.484 201.338 115.025 201.807 114.107V108.072C201.357 107.135 200.586 106.666 199.492 106.666C197.969 106.666 197.144 107.896 197.017 110.357L197.002 111.266ZM217.231 119.293C214.8 119.293 212.832 118.57 211.328 117.125C209.824 115.67 209.072 113.78 209.072 111.456V111.046C209.072 109.425 209.37 107.994 209.966 106.754C210.571 105.514 211.45 104.557 212.603 103.883C213.755 103.199 215.122 102.857 216.704 102.857C218.931 102.857 220.688 103.551 221.978 104.938C223.267 106.314 223.911 108.238 223.911 110.709V112.628H214.097C214.272 113.517 214.658 114.215 215.254 114.723C215.85 115.23 216.621 115.484 217.568 115.484C219.131 115.484 220.352 114.938 221.23 113.844L223.486 116.51C222.871 117.359 221.997 118.038 220.864 118.546C219.741 119.044 218.53 119.293 217.231 119.293ZM216.675 106.666C215.229 106.666 214.37 107.623 214.097 109.537H219.077V109.156C219.097 108.365 218.896 107.755 218.477 107.325C218.057 106.886 217.456 106.666 216.675 106.666ZM235.498 107.618L233.872 107.501C232.319 107.501 231.323 107.989 230.884 108.966V119H225.947V103.15H230.576L230.737 105.187C231.567 103.634 232.725 102.857 234.209 102.857C234.736 102.857 235.195 102.916 235.586 103.033L235.498 107.618Z" fill="white"/>
<defs>
<filter id="filter0_d" x="84" y="0" width="195" height="194.998" filterUnits="userSpaceOnUse" color-interpolation-filters="sRGB">
<feFlood flood-opacity="0" result="BackgroundImageFix"/>
<feColorMatrix in="SourceAlpha" type="matrix" values="0 0 0 0 0 0 0 0 0 0 0 0 0 0 0 0 0 0 127 0"/>
<feOffset dx="8" dy="8"/>
<feGaussianBlur stdDeviation="2"/>
<feColorMatrix type="matrix" values="0 0 0 0 0 0 0 0 0 0 0 0 0 0 0 0 0 0 0.25 0"/>
<feBlend mode="normal" in2="BackgroundImageFix" result="effect1_dropShadow"/>
<feBlend mode="normal" in="SourceGraphic" in2="effect1_dropShadow" result="shape"/>
</filter>
<filter id="filter1_bd" x="-50" y="9" width="450" height="175" filterUnits="userSpaceOnUse" color-interpolation-filters="sRGB">
<feFlood flood-opacity="0" result="BackgroundImageFix"/>
<feGaussianBlur in="BackgroundImage" stdDeviation="25"/>
<feComposite in2="SourceAlpha" operator="in" result="effect1_backgroundBlur"/>
<feColorMatrix in="SourceAlpha" type="matrix" values="0 0 0 0 0 0 0 0 0 0 0 0 0 0 0 0 0 0 127 0"/>
<feOffset dx="5" dy="4"/>
<feGaussianBlur stdDeviation="2"/>
<feColorMatrix type="matrix" values="0 0 0 0 0 0 0 0 0 0 0 0 0 0 0 0 0 0 0.25 0"/>
<feBlend mode="normal" in2="effect1_backgroundBlur" result="effect2_dropShadow"/>
<feBlend mode="normal" in="SourceGraphic" in2="effect2_dropShadow" result="shape"/>
</filter>
</defs>
</svg>
