<svg width="360" height="212" viewBox="0 0 360 212" fill="none" xmlns="http://www.w3.org/2000/svg">
<g filter="url(#filter0_d)">
<g filter="url(#filter1_d)">
<path fill-rule="evenodd" clip-rule="evenodd" d="M127.7 11.3999C177.427 -14.3187 238.694 4.94633 264.542 54.4289C290.39 103.911 271.033 164.878 221.301 190.599C171.572 216.318 110.306 197.059 84.4576 147.57C58.6095 98.0875 77.9705 37.1264 127.7 11.3999Z" fill="#A835A8"/>
</g>
<g filter="url(#filter2_d)">
<path d="M340.293 15.393C334.834 5.30743 298.633 13.1415 248.69 33.2218C249.768 34.3802 250.809 35.5762 251.833 36.7919C253.299 38.6698 256.398 42.6195 257.288 43.8846C274.697 38.9328 286.308 38.1737 288.786 42.748C291.292 47.3737 284.037 56.6963 269.91 68.5155C251.025 84.3121 219.842 104.562 183.104 124.073C149.531 141.906 117.993 155.562 94.6922 163.006C73.4302 169.795 59.0101 171.412 56.2146 166.25C53.4491 161.148 62.5417 150.337 79.6595 136.757C79.1866 135.525 78.7217 134.301 77.6822 131.158L77.1754 129.516C76.6526 127.792 76.1777 126.058 75.7527 124.319C28.0069 155.951 -0.974952 183.118 4.70769 193.605C10.4362 204.175 49.9134 195.072 103.591 172.803C129.151 162.2 157.918 148.619 187.805 132.744C220.069 115.615 249.369 98.0785 273.506 81.8411C318.706 51.4301 345.802 25.5637 340.293 15.393Z" fill="#12268B"/>
</g>
</g>
<g filter="url(#filter3_bd)">
<rect x="1" y="67" width="350" height="75" rx="37.5" fill="#C4C4C4" fill-opacity="0.06"/>
</g>
<path d="M91.7568 95.7783C91.6885 97.2627 91.2881 98.5762 90.5557 99.7188C89.8232 100.852 88.793 101.73 87.4648 102.355C86.1465 102.98 84.6377 103.293 82.9385 103.293C80.1357 103.293 77.9287 102.38 76.3174 100.554C74.7061 98.7275 73.9004 96.1494 73.9004 92.8193V91.7646C73.9004 89.6748 74.2617 87.8486 74.9844 86.2861C75.7168 84.7139 76.7666 83.5029 78.1338 82.6533C79.501 81.7939 81.083 81.3643 82.8799 81.3643C85.4678 81.3643 87.5479 82.0479 89.1201 83.415C90.6924 84.7725 91.5859 86.6475 91.8008 89.04H86.6738C86.6348 87.7412 86.3076 86.8086 85.6924 86.2422C85.0771 85.6758 84.1396 85.3926 82.8799 85.3926C81.6006 85.3926 80.6631 85.8711 80.0674 86.8281C79.4717 87.7852 79.1592 89.3135 79.1299 91.4131V92.9219C79.1299 95.1973 79.4131 96.8232 79.9795 97.7998C80.5557 98.7764 81.542 99.2646 82.9385 99.2646C84.1201 99.2646 85.0234 98.9863 85.6484 98.4297C86.2734 97.873 86.6055 96.9893 86.6445 95.7783H91.7568ZM93.3389 94.9287C93.3389 93.3467 93.6465 91.9404 94.2617 90.71C94.877 89.4697 95.7607 88.5176 96.9131 87.8535C98.0654 87.1895 99.418 86.8574 100.971 86.8574C103.344 86.8574 105.214 87.5947 106.581 89.0693C107.948 90.5342 108.632 92.5312 108.632 95.0605V95.2363C108.632 97.707 107.943 99.6699 106.566 101.125C105.199 102.57 103.344 103.293 101 103.293C98.7441 103.293 96.9326 102.619 95.5654 101.271C94.1982 99.9141 93.4609 98.0781 93.3535 95.7637L93.3389 94.9287ZM98.2754 95.2363C98.2754 96.7012 98.5049 97.7754 98.9639 98.459C99.4229 99.1426 100.102 99.4844 101 99.4844C102.758 99.4844 103.656 98.1318 103.695 95.4268V94.9287C103.695 92.0869 102.787 90.666 100.971 90.666C99.3203 90.666 98.4268 91.8916 98.29 94.3428L98.2754 95.2363ZM115.341 87.1504L115.502 89.0107C116.596 87.5752 118.104 86.8574 120.028 86.8574C121.679 86.8574 122.909 87.3506 123.72 88.3369C124.54 89.3232 124.965 90.8076 124.994 92.79V103H120.043V92.9951C120.043 92.1943 119.882 91.6084 119.56 91.2373C119.237 90.8564 118.651 90.666 117.802 90.666C116.835 90.666 116.117 91.0469 115.648 91.8086V103H110.712V87.1504H115.341ZM133.49 83.21V87.1504H136.098V90.5781H133.49V97.8291C133.49 98.4248 133.598 98.8398 133.812 99.0742C134.027 99.3086 134.452 99.4258 135.087 99.4258C135.575 99.4258 135.985 99.3965 136.317 99.3379V102.868C135.429 103.151 134.501 103.293 133.534 103.293C131.835 103.293 130.58 102.893 129.77 102.092C128.959 101.291 128.554 100.075 128.554 98.4443V90.5781H126.532V87.1504H128.554V83.21H133.49ZM145.722 103.293C143.29 103.293 141.322 102.57 139.818 101.125C138.314 99.6699 137.562 97.7803 137.562 95.4561V95.0459C137.562 93.4248 137.86 91.9941 138.456 90.7539C139.062 89.5137 139.94 88.5566 141.093 87.8828C142.245 87.1992 143.612 86.8574 145.194 86.8574C147.421 86.8574 149.179 87.5508 150.468 88.9375C151.757 90.3145 152.401 92.2383 152.401 94.709V96.6279H142.587C142.763 97.5166 143.148 98.2148 143.744 98.7227C144.34 99.2305 145.111 99.4844 146.059 99.4844C147.621 99.4844 148.842 98.9375 149.721 97.8438L151.977 100.51C151.361 101.359 150.487 102.038 149.354 102.546C148.231 103.044 147.021 103.293 145.722 103.293ZM145.165 90.666C143.72 90.666 142.86 91.623 142.587 93.5371H147.567V93.1562C147.587 92.3652 147.387 91.7549 146.967 91.3252C146.547 90.8857 145.946 90.666 145.165 90.666ZM158.935 87.1504L159.096 89.0107C160.189 87.5752 161.698 86.8574 163.622 86.8574C165.272 86.8574 166.503 87.3506 167.313 88.3369C168.134 89.3232 168.559 90.8076 168.588 92.79V103H163.637V92.9951C163.637 92.1943 163.476 91.6084 163.153 91.2373C162.831 90.8564 162.245 90.666 161.396 90.666C160.429 90.666 159.711 91.0469 159.242 91.8086V103H154.306V87.1504H158.935ZM176.542 103H171.591V87.1504H176.542V103ZM171.298 83.0635C171.298 82.3604 171.552 81.7842 172.06 81.335C172.567 80.8857 173.227 80.6611 174.037 80.6611C174.848 80.6611 175.507 80.8857 176.015 81.335C176.522 81.7842 176.776 82.3604 176.776 83.0635C176.776 83.7666 176.522 84.3428 176.015 84.792C175.507 85.2412 174.848 85.4658 174.037 85.4658C173.227 85.4658 172.567 85.2412 172.06 84.792C171.552 84.3428 171.298 83.7666 171.298 83.0635ZM178.974 94.958C178.974 92.4482 179.516 90.4707 180.6 89.0254C181.684 87.5801 183.197 86.8574 185.141 86.8574C186.557 86.8574 187.748 87.4141 188.715 88.5273V80.5H193.666V103H189.228L188.979 101.301C187.963 102.629 186.674 103.293 185.111 103.293C183.227 103.293 181.732 102.57 180.629 101.125C179.525 99.6797 178.974 97.624 178.974 94.958ZM183.91 95.2656C183.91 98.0781 184.73 99.4844 186.371 99.4844C187.465 99.4844 188.246 99.0254 188.715 98.1074V92.0723C188.266 91.1348 187.494 90.666 186.4 90.666C184.877 90.666 184.052 91.8965 183.925 94.3574L183.91 95.2656ZM195.849 94.9287C195.849 93.3467 196.156 91.9404 196.771 90.71C197.387 89.4697 198.271 88.5176 199.423 87.8535C200.575 87.1895 201.928 86.8574 203.48 86.8574C205.854 86.8574 207.724 87.5947 209.091 89.0693C210.458 90.5342 211.142 92.5312 211.142 95.0605V95.2363C211.142 97.707 210.453 99.6699 209.076 101.125C207.709 102.57 205.854 103.293 203.51 103.293C201.254 103.293 199.442 102.619 198.075 101.271C196.708 99.9141 195.971 98.0781 195.863 95.7637L195.849 94.9287ZM200.785 95.2363C200.785 96.7012 201.015 97.7754 201.474 98.459C201.933 99.1426 202.611 99.4844 203.51 99.4844C205.268 99.4844 206.166 98.1318 206.205 95.4268V94.9287C206.205 92.0869 205.297 90.666 203.48 90.666C201.83 90.666 200.937 91.8916 200.8 94.3428L200.785 95.2363ZM235.502 95.1924C235.502 97.6533 234.945 99.6211 233.832 101.096C232.729 102.561 231.234 103.293 229.35 103.293C227.895 103.293 226.698 102.761 225.761 101.696V109.094H220.824V87.1504H225.438L225.585 88.6152C226.532 87.4434 227.777 86.8574 229.32 86.8574C231.273 86.8574 232.792 87.5801 233.876 89.0254C234.96 90.4609 235.502 92.4385 235.502 94.958V95.1924ZM230.565 94.8848C230.565 92.0723 229.745 90.666 228.104 90.666C226.933 90.666 226.151 91.0859 225.761 91.9258V98.166C226.19 99.0449 226.981 99.4844 228.134 99.4844C229.706 99.4844 230.517 98.127 230.565 95.4121V94.8848ZM246.62 103C246.444 102.678 246.288 102.204 246.151 101.579C245.243 102.722 243.974 103.293 242.343 103.293C240.849 103.293 239.579 102.844 238.534 101.945C237.489 101.037 236.967 99.8994 236.967 98.5322C236.967 96.8135 237.602 95.5146 238.871 94.6357C240.141 93.7568 241.986 93.3174 244.408 93.3174H245.932V92.4824C245.932 91.0273 245.302 90.2998 244.042 90.2998C242.87 90.2998 242.284 90.876 242.284 92.0283H237.348C237.348 90.4951 237.997 89.25 239.296 88.293C240.604 87.3359 242.27 86.8574 244.291 86.8574C246.312 86.8574 247.909 87.3506 249.081 88.3369C250.253 89.3232 250.854 90.6758 250.883 92.3945V99.4111C250.902 100.866 251.127 101.979 251.557 102.751V103H246.62ZM243.529 99.7773C244.145 99.7773 244.652 99.6455 245.053 99.3818C245.463 99.1182 245.756 98.8203 245.932 98.4883V95.9541H244.496C242.777 95.9541 241.918 96.7256 241.918 98.2686C241.918 98.7178 242.069 99.084 242.372 99.3672C242.675 99.6406 243.061 99.7773 243.529 99.7773ZM263.217 91.6182L261.591 91.501C260.038 91.501 259.042 91.9893 258.603 92.9658V103H253.666V87.1504H258.295L258.456 89.1865C259.286 87.6338 260.443 86.8574 261.928 86.8574C262.455 86.8574 262.914 86.916 263.305 87.0332L263.217 91.6182ZM273.485 103C273.31 102.678 273.153 102.204 273.017 101.579C272.108 102.722 270.839 103.293 269.208 103.293C267.714 103.293 266.444 102.844 265.399 101.945C264.354 101.037 263.832 99.8994 263.832 98.5322C263.832 96.8135 264.467 95.5146 265.736 94.6357C267.006 93.7568 268.852 93.3174 271.273 93.3174H272.797V92.4824C272.797 91.0273 272.167 90.2998 270.907 90.2998C269.735 90.2998 269.149 90.876 269.149 92.0283H264.213C264.213 90.4951 264.862 89.25 266.161 88.293C267.47 87.3359 269.135 86.8574 271.156 86.8574C273.178 86.8574 274.774 87.3506 275.946 88.3369C277.118 89.3232 277.719 90.6758 277.748 92.3945V99.4111C277.768 100.866 277.992 101.979 278.422 102.751V103H273.485ZM270.395 99.7773C271.01 99.7773 271.518 99.6455 271.918 99.3818C272.328 99.1182 272.621 98.8203 272.797 98.4883V95.9541H271.361C269.643 95.9541 268.783 96.7256 268.783 98.2686C268.783 98.7178 268.935 99.084 269.237 99.3672C269.54 99.6406 269.926 99.7773 270.395 99.7773ZM95.0967 122.547C95.0967 122.127 94.877 121.79 94.4375 121.536C93.998 121.282 93.1631 121.019 91.9326 120.745C90.7021 120.472 89.6865 120.115 88.8857 119.676C88.085 119.227 87.4746 118.685 87.0547 118.05C86.6348 117.415 86.4248 116.688 86.4248 115.867C86.4248 114.412 87.0254 113.216 88.2266 112.278C89.4277 111.331 91 110.857 92.9434 110.857C95.0332 110.857 96.7129 111.331 97.9824 112.278C99.252 113.226 99.8867 114.471 99.8867 116.014H94.9355C94.9355 114.744 94.2666 114.109 92.9287 114.109C92.4111 114.109 91.9766 114.256 91.625 114.549C91.2734 114.832 91.0977 115.188 91.0977 115.618C91.0977 116.058 91.3125 116.414 91.7422 116.688C92.1719 116.961 92.8555 117.186 93.793 117.361C94.7402 117.537 95.5703 117.747 96.2832 117.991C98.666 118.812 99.8574 120.281 99.8574 122.4C99.8574 123.846 99.2129 125.022 97.9238 125.931C96.6445 126.839 94.9844 127.293 92.9434 127.293C91.5859 127.293 90.375 127.049 89.3105 126.561C88.2461 126.072 87.416 125.408 86.8203 124.568C86.2246 123.729 85.9268 122.845 85.9268 121.917H90.541C90.5605 122.649 90.8047 123.187 91.2734 123.528C91.7422 123.86 92.3428 124.026 93.0752 124.026C93.749 124.026 94.252 123.89 94.584 123.616C94.9258 123.343 95.0967 122.986 95.0967 122.547ZM101.557 118.929C101.557 117.347 101.864 115.94 102.479 114.71C103.095 113.47 103.979 112.518 105.131 111.854C106.283 111.189 107.636 110.857 109.188 110.857C111.562 110.857 113.432 111.595 114.799 113.069C116.166 114.534 116.85 116.531 116.85 119.061V119.236C116.85 121.707 116.161 123.67 114.784 125.125C113.417 126.57 111.562 127.293 109.218 127.293C106.962 127.293 105.15 126.619 103.783 125.271C102.416 123.914 101.679 122.078 101.571 119.764L101.557 118.929ZM106.493 119.236C106.493 120.701 106.723 121.775 107.182 122.459C107.641 123.143 108.319 123.484 109.218 123.484C110.976 123.484 111.874 122.132 111.913 119.427V118.929C111.913 116.087 111.005 114.666 109.188 114.666C107.538 114.666 106.645 115.892 106.508 118.343L106.493 119.236ZM128.612 115.618L126.986 115.501C125.434 115.501 124.438 115.989 123.998 116.966V127H119.062V111.15H123.69L123.852 113.187C124.682 111.634 125.839 110.857 127.323 110.857C127.851 110.857 128.31 110.916 128.7 111.033L128.612 115.618ZM145.106 119.192C145.106 121.653 144.55 123.621 143.437 125.096C142.333 126.561 140.839 127.293 138.954 127.293C137.499 127.293 136.303 126.761 135.365 125.696V133.094H130.429V111.15H135.043L135.189 112.615C136.137 111.443 137.382 110.857 138.925 110.857C140.878 110.857 142.396 111.58 143.48 113.025C144.564 114.461 145.106 116.438 145.106 118.958V119.192ZM140.17 118.885C140.17 116.072 139.35 114.666 137.709 114.666C136.537 114.666 135.756 115.086 135.365 115.926V122.166C135.795 123.045 136.586 123.484 137.738 123.484C139.311 123.484 140.121 122.127 140.17 119.412V118.885ZM156.884 115.618L155.258 115.501C153.705 115.501 152.709 115.989 152.27 116.966V127H147.333V111.15H151.962L152.123 113.187C152.953 111.634 154.11 110.857 155.595 110.857C156.122 110.857 156.581 110.916 156.972 111.033L156.884 115.618ZM166.039 127.293C163.607 127.293 161.64 126.57 160.136 125.125C158.632 123.67 157.88 121.78 157.88 119.456V119.046C157.88 117.425 158.178 115.994 158.773 114.754C159.379 113.514 160.258 112.557 161.41 111.883C162.562 111.199 163.93 110.857 165.512 110.857C167.738 110.857 169.496 111.551 170.785 112.938C172.074 114.314 172.719 116.238 172.719 118.709V120.628H162.904C163.08 121.517 163.466 122.215 164.062 122.723C164.657 123.23 165.429 123.484 166.376 123.484C167.938 123.484 169.159 122.938 170.038 121.844L172.294 124.51C171.679 125.359 170.805 126.038 169.672 126.546C168.549 127.044 167.338 127.293 166.039 127.293ZM165.482 114.666C164.037 114.666 163.178 115.623 162.904 117.537H167.885V117.156C167.904 116.365 167.704 115.755 167.284 115.325C166.864 114.886 166.264 114.666 165.482 114.666ZM179.252 111.15L179.413 113.011C180.507 111.575 182.016 110.857 183.939 110.857C185.59 110.857 186.82 111.351 187.631 112.337C188.451 113.323 188.876 114.808 188.905 116.79V127H183.954V116.995C183.954 116.194 183.793 115.608 183.471 115.237C183.148 114.856 182.562 114.666 181.713 114.666C180.746 114.666 180.028 115.047 179.56 115.809V127H174.623V111.15H179.252ZM191.029 118.958C191.029 116.448 191.571 114.471 192.655 113.025C193.739 111.58 195.253 110.857 197.196 110.857C198.612 110.857 199.804 111.414 200.771 112.527V104.5H205.722V127H201.283L201.034 125.301C200.019 126.629 198.729 127.293 197.167 127.293C195.282 127.293 193.788 126.57 192.685 125.125C191.581 123.68 191.029 121.624 191.029 118.958ZM195.966 119.266C195.966 122.078 196.786 123.484 198.427 123.484C199.521 123.484 200.302 123.025 200.771 122.107V116.072C200.321 115.135 199.55 114.666 198.456 114.666C196.933 114.666 196.107 115.896 195.98 118.357L195.966 119.266ZM216.195 127.293C213.764 127.293 211.796 126.57 210.292 125.125C208.788 123.67 208.036 121.78 208.036 119.456V119.046C208.036 117.425 208.334 115.994 208.93 114.754C209.535 113.514 210.414 112.557 211.566 111.883C212.719 111.199 214.086 110.857 215.668 110.857C217.895 110.857 219.652 111.551 220.941 112.938C222.23 114.314 222.875 116.238 222.875 118.709V120.628H213.061C213.236 121.517 213.622 122.215 214.218 122.723C214.813 123.23 215.585 123.484 216.532 123.484C218.095 123.484 219.315 122.938 220.194 121.844L222.45 124.51C221.835 125.359 220.961 126.038 219.828 126.546C218.705 127.044 217.494 127.293 216.195 127.293ZM215.639 114.666C214.193 114.666 213.334 115.623 213.061 117.537H218.041V117.156C218.061 116.365 217.86 115.755 217.44 115.325C217.021 114.886 216.42 114.666 215.639 114.666ZM234.462 115.618L232.836 115.501C231.283 115.501 230.287 115.989 229.848 116.966V127H224.911V111.15H229.54L229.701 113.187C230.531 111.634 231.688 110.857 233.173 110.857C233.7 110.857 234.159 110.916 234.55 111.033L234.462 115.618ZM244.54 122.547C244.54 122.127 244.32 121.79 243.881 121.536C243.441 121.282 242.606 121.019 241.376 120.745C240.146 120.472 239.13 120.115 238.329 119.676C237.528 119.227 236.918 118.685 236.498 118.05C236.078 117.415 235.868 116.688 235.868 115.867C235.868 114.412 236.469 113.216 237.67 112.278C238.871 111.331 240.443 110.857 242.387 110.857C244.477 110.857 246.156 111.331 247.426 112.278C248.695 113.226 249.33 114.471 249.33 116.014H244.379C244.379 114.744 243.71 114.109 242.372 114.109C241.854 114.109 241.42 114.256 241.068 114.549C240.717 114.832 240.541 115.188 240.541 115.618C240.541 116.058 240.756 116.414 241.186 116.688C241.615 116.961 242.299 117.186 243.236 117.361C244.184 117.537 245.014 117.747 245.727 117.991C248.109 118.812 249.301 120.281 249.301 122.4C249.301 123.846 248.656 125.022 247.367 125.931C246.088 126.839 244.428 127.293 242.387 127.293C241.029 127.293 239.818 127.049 238.754 126.561C237.689 126.072 236.859 125.408 236.264 124.568C235.668 123.729 235.37 122.845 235.37 121.917H239.984C240.004 122.649 240.248 123.187 240.717 123.528C241.186 123.86 241.786 124.026 242.519 124.026C243.192 124.026 243.695 123.89 244.027 123.616C244.369 123.343 244.54 122.986 244.54 122.547ZM259.291 127.293C256.859 127.293 254.892 126.57 253.388 125.125C251.884 123.67 251.132 121.78 251.132 119.456V119.046C251.132 117.425 251.43 115.994 252.025 114.754C252.631 113.514 253.51 112.557 254.662 111.883C255.814 111.199 257.182 110.857 258.764 110.857C260.99 110.857 262.748 111.551 264.037 112.938C265.326 114.314 265.971 116.238 265.971 118.709V120.628H256.156C256.332 121.517 256.718 122.215 257.313 122.723C257.909 123.23 258.681 123.484 259.628 123.484C261.19 123.484 262.411 122.938 263.29 121.844L265.546 124.51C264.931 125.359 264.057 126.038 262.924 126.546C261.801 127.044 260.59 127.293 259.291 127.293ZM258.734 114.666C257.289 114.666 256.43 115.623 256.156 117.537H261.137V117.156C261.156 116.365 260.956 115.755 260.536 115.325C260.116 114.886 259.516 114.666 258.734 114.666Z" fill="white"/>
<defs>
<filter id="filter0_d" x="0" y="0" width="345" height="210" filterUnits="userSpaceOnUse" color-interpolation-filters="sRGB">
<feFlood flood-opacity="0" result="BackgroundImageFix"/>
<feColorMatrix in="SourceAlpha" type="matrix" values="0 0 0 0 0 0 0 0 0 0 0 0 0 0 0 0 0 0 127 0"/>
<feOffset dy="4"/>
<feGaussianBlur stdDeviation="2"/>
<feColorMatrix type="matrix" values="0 0 0 0 0 0 0 0 0 0 0 0 0 0 0 0 0 0 0.25 0"/>
<feBlend mode="normal" in2="BackgroundImageFix" result="effect1_dropShadow"/>
<feBlend mode="normal" in="SourceGraphic" in2="effect1_dropShadow" result="shape"/>
</filter>
<filter id="filter1_d" x="73" y="0" width="213" height="212" filterUnits="userSpaceOnUse" color-interpolation-filters="sRGB">
<feFlood flood-opacity="0" result="BackgroundImageFix"/>
<feColorMatrix in="SourceAlpha" type="matrix" values="0 0 0 0 0 0 0 0 0 0 0 0 0 0 0 0 0 0 127 0"/>
<feOffset dx="6" dy="6"/>
<feGaussianBlur stdDeviation="2"/>
<feColorMatrix type="matrix" values="0 0 0 0 0 0 0 0 0 0 0 0 0 0 0 0 0 0 0.25 0"/>
<feBlend mode="normal" in2="BackgroundImageFix" result="effect1_dropShadow"/>
<feBlend mode="normal" in="SourceGraphic" in2="effect1_dropShadow" result="shape"/>
</filter>
<filter id="filter2_d" x="4" y="11" width="347" height="197" filterUnits="userSpaceOnUse" color-interpolation-filters="sRGB">
<feFlood flood-opacity="0" result="BackgroundImageFix"/>
<feColorMatrix in="SourceAlpha" type="matrix" values="0 0 0 0 0 0 0 0 0 0 0 0 0 0 0 0 0 0 127 0"/>
<feOffset dx="6" dy="6"/>
<feGaussianBlur stdDeviation="2"/>
<feColorMatrix type="matrix" values="0 0 0 0 0 0 0 0 0 0 0 0 0 0 0 0 0 0 0.25 0"/>
<feBlend mode="normal" in2="BackgroundImageFix" result="effect1_dropShadow"/>
<feBlend mode="normal" in="SourceGraphic" in2="effect1_dropShadow" result="shape"/>
</filter>
<filter id="filter3_bd" x="-49" y="17" width="450" height="175" filterUnits="userSpaceOnUse" color-interpolation-filters="sRGB">
<feFlood flood-opacity="0" result="BackgroundImageFix"/>
<feGaussianBlur in="BackgroundImage" stdDeviation="25"/>
<feComposite in2="SourceAlpha" operator="in" result="effect1_backgroundBlur"/>
<feColorMatrix in="SourceAlpha" type="matrix" values="0 0 0 0 0 0 0 0 0 0 0 0 0 0 0 0 0 0 127 0"/>
<feOffset dx="5" dy="4"/>
<feGaussianBlur stdDeviation="2"/>
<feColorMatrix type="matrix" values="0 0 0 0 0 0 0 0 0 0 0 0 0 0 0 0 0 0 0.25 0"/>
<feBlend mode="normal" in2="effect1_backgroundBlur" result="effect2_dropShadow"/>
<feBlend mode="normal" in="SourceGraphic" in2="effect2_dropShadow" result="shape"/>
</filter>
</defs>
</svg>
