<svg width="359" height="193" viewBox="0 0 359 193" fill="none" xmlns="http://www.w3.org/2000/svg">
<path d="M276.651 96.3721C276.651 149.59 235.304 192.738 184.304 192.738C133.303 192.738 91.9629 149.59 91.9629 96.3721C91.9629 43.1476 133.303 0 184.304 0C235.304 0 276.651 43.1476 276.651 96.3721Z" fill="#6E2F89"/>
<path d="M228.489 181.007C257.18 164.664 276.651 132.885 276.651 96.3721C276.651 43.1476 235.304 0 184.304 0C133.303 0 91.9629 43.1476 91.9629 96.3721C91.9629 111.979 95.5241 126.721 101.839 139.762C101.858 139.784 141.48 173.648 228.489 181.007Z" fill="#32349B"/>
<path d="M260.958 150.123C270.865 134.765 276.651 116.272 276.651 96.3721C276.651 43.1476 235.304 0 184.304 0C133.303 0 91.9629 43.1476 91.9629 96.3721C91.9629 107.373 93.7363 117.942 96.9886 127.797C171.28 160.384 230.633 155.621 260.958 150.123Z" fill="#6E2F89"/>
<path d="M184.304 0C133.303 0 91.9629 43.1476 91.9629 96.3721C91.9629 98.7613 92.0473 101.125 92.2121 103.471C97.246 108.978 107.211 117.076 130.127 122.673C153.425 128.366 157.812 127.847 190.567 138.192C223.319 148.537 236.478 140.626 251.077 141.297C257.72 141.6 262.824 141.09 266.441 140.448C272.968 127.234 276.651 112.254 276.651 96.3721C276.651 43.1476 235.304 0 184.304 0Z" fill="#A735A8"/>
<path d="M184.303 0C134.664 0 94.1823 40.8766 92.0566 92.1351C92.0566 92.1351 146.8 137.408 270.563 130.814C274.491 120.12 276.65 108.507 276.65 96.3721C276.65 43.1476 235.303 0 184.303 0Z" fill="#32349B"/>
<path d="M184.304 0C138.681 0 100.782 34.5362 93.3057 79.9248C103.452 85.105 170.74 116.459 276.644 96.7717C276.644 96.6406 276.651 96.5031 276.651 96.3721C276.651 43.1476 235.304 0 184.304 0Z" fill="#6E2F89"/>
<path d="M104.724 47.4706C104.724 47.4706 166.146 91.396 276.404 89.3935C272.979 39.4263 233.056 0 184.302 0C150.408 0 120.785 19.06 104.724 47.4706Z" fill="#32349B"/>
<path d="M107.899 42.2366C107.908 42.2409 154.142 59.2748 201.202 59.1566C242.514 59.06 262.781 65.424 272.952 69.3108C261.749 29.2636 226.3 0 184.302 0C152.533 0 124.515 16.7438 107.899 42.2366Z" fill="#6E2F89"/>
<path d="M205.969 52.1459C237.69 52.1459 254.403 57.2036 269.509 59.1566C255.56 24.4099 222.665 0 184.303 0C155.658 0 130.056 13.6155 113.121 34.9809C135.251 43.8717 174.245 52.1459 205.969 52.1459Z" fill="#A735A8"/>
<path d="M263.888 47.4706C247.825 19.06 218.2 0 184.303 0C166.81 0 150.45 5.07708 136.508 13.8991C136.508 13.8991 175.08 36.5816 263.888 47.4706Z" fill="#32349B"/>
<path d="M144.735 9.27754C164.712 19.3329 196.129 29.6009 248.917 27.5297C232.263 10.5022 209.458 0 184.302 0C170.144 0 156.727 3.32814 144.735 9.27754Z" fill="#6E2F89"/>
<path d="M273.459 121.482C272.417 125.526 271.132 129.467 269.616 133.287C281.204 141.251 287.354 147.949 285.904 152.106C284.324 156.631 274.003 157.413 258.061 155.058C257.907 155.039 257.738 155.009 257.583 154.985C236.288 151.777 205.151 143.069 171.308 130.186C140.153 118.328 112.92 105.306 94.5327 94.0602C93.6841 93.5403 92.8684 93.0311 92.0507 92.5175C76.8377 82.922 68.4259 74.766 70.0963 69.9726C71.6308 65.5959 81.3361 64.715 96.4091 66.7991C97.6119 62.8973 99.0455 59.1072 100.697 55.4418C56.6217 44.2649 25.6766 42.1185 22.3049 51.7849C18.7107 62.0551 47.1821 83.0402 92.3947 105.643C92.6851 105.791 92.9714 105.933 93.2618 106.079C115.031 116.919 140.612 128.115 168.342 138.671C197.355 149.706 224.982 158.623 249.087 165.021C249.861 165.227 250.644 165.438 251.41 165.638C297.55 177.687 330.225 180.244 333.696 170.3C337.018 160.797 312.895 142.119 273.459 121.482Z" fill="#AA35A7"/>
<g filter="url(#filter0_bd)">
<rect y="60" width="350" height="103" rx="51.5" fill="#C4C4C4" fill-opacity="0.06"/>
</g>
<path d="M90.7568 93.7783C90.6885 95.2627 90.2881 96.5762 89.5557 97.7188C88.8232 98.8516 87.793 99.7305 86.4648 100.355C85.1465 100.98 83.6377 101.293 81.9385 101.293C79.1357 101.293 76.9287 100.38 75.3174 98.5537C73.7061 96.7275 72.9004 94.1494 72.9004 90.8193V89.7646C72.9004 87.6748 73.2617 85.8486 73.9844 84.2861C74.7168 82.7139 75.7666 81.5029 77.1338 80.6533C78.501 79.7939 80.083 79.3643 81.8799 79.3643C84.4678 79.3643 86.5479 80.0479 88.1201 81.415C89.6924 82.7725 90.5859 84.6475 90.8008 87.04H85.6738C85.6348 85.7412 85.3076 84.8086 84.6924 84.2422C84.0771 83.6758 83.1396 83.3926 81.8799 83.3926C80.6006 83.3926 79.6631 83.8711 79.0674 84.8281C78.4717 85.7852 78.1592 87.3135 78.1299 89.4131V90.9219C78.1299 93.1973 78.4131 94.8232 78.9795 95.7998C79.5557 96.7764 80.542 97.2646 81.9385 97.2646C83.1201 97.2646 84.0234 96.9863 84.6484 96.4297C85.2734 95.873 85.6055 94.9893 85.6445 93.7783H90.7568ZM92.3389 92.9287C92.3389 91.3467 92.6465 89.9404 93.2617 88.71C93.877 87.4697 94.7607 86.5176 95.9131 85.8535C97.0654 85.1895 98.418 84.8574 99.9707 84.8574C102.344 84.8574 104.214 85.5947 105.581 87.0693C106.948 88.5342 107.632 90.5312 107.632 93.0605V93.2363C107.632 95.707 106.943 97.6699 105.566 99.125C104.199 100.57 102.344 101.293 100 101.293C97.7441 101.293 95.9326 100.619 94.5654 99.2715C93.1982 97.9141 92.4609 96.0781 92.3535 93.7637L92.3389 92.9287ZM97.2754 93.2363C97.2754 94.7012 97.5049 95.7754 97.9639 96.459C98.4229 97.1426 99.1016 97.4844 100 97.4844C101.758 97.4844 102.656 96.1318 102.695 93.4268V92.9287C102.695 90.0869 101.787 88.666 99.9707 88.666C98.3203 88.666 97.4268 89.8916 97.29 92.3428L97.2754 93.2363ZM114.341 85.1504L114.502 87.0107C115.596 85.5752 117.104 84.8574 119.028 84.8574C120.679 84.8574 121.909 85.3506 122.72 86.3369C123.54 87.3232 123.965 88.8076 123.994 90.79V101H119.043V90.9951C119.043 90.1943 118.882 89.6084 118.56 89.2373C118.237 88.8564 117.651 88.666 116.802 88.666C115.835 88.666 115.117 89.0469 114.648 89.8086V101H109.712V85.1504H114.341ZM132.49 81.21V85.1504H135.098V88.5781H132.49V95.8291C132.49 96.4248 132.598 96.8398 132.812 97.0742C133.027 97.3086 133.452 97.4258 134.087 97.4258C134.575 97.4258 134.985 97.3965 135.317 97.3379V100.868C134.429 101.151 133.501 101.293 132.534 101.293C130.835 101.293 129.58 100.893 128.77 100.092C127.959 99.291 127.554 98.0752 127.554 96.4443V88.5781H125.532V85.1504H127.554V81.21H132.49ZM144.722 101.293C142.29 101.293 140.322 100.57 138.818 99.125C137.314 97.6699 136.562 95.7803 136.562 93.4561V93.0459C136.562 91.4248 136.86 89.9941 137.456 88.7539C138.062 87.5137 138.94 86.5566 140.093 85.8828C141.245 85.1992 142.612 84.8574 144.194 84.8574C146.421 84.8574 148.179 85.5508 149.468 86.9375C150.757 88.3145 151.401 90.2383 151.401 92.709V94.6279H141.587C141.763 95.5166 142.148 96.2148 142.744 96.7227C143.34 97.2305 144.111 97.4844 145.059 97.4844C146.621 97.4844 147.842 96.9375 148.721 95.8438L150.977 98.5098C150.361 99.3594 149.487 100.038 148.354 100.546C147.231 101.044 146.021 101.293 144.722 101.293ZM144.165 88.666C142.72 88.666 141.86 89.623 141.587 91.5371H146.567V91.1562C146.587 90.3652 146.387 89.7549 145.967 89.3252C145.547 88.8857 144.946 88.666 144.165 88.666ZM157.935 85.1504L158.096 87.0107C159.189 85.5752 160.698 84.8574 162.622 84.8574C164.272 84.8574 165.503 85.3506 166.313 86.3369C167.134 87.3232 167.559 88.8076 167.588 90.79V101H162.637V90.9951C162.637 90.1943 162.476 89.6084 162.153 89.2373C161.831 88.8564 161.245 88.666 160.396 88.666C159.429 88.666 158.711 89.0469 158.242 89.8086V101H153.306V85.1504H157.935ZM175.542 101H170.591V85.1504H175.542V101ZM170.298 81.0635C170.298 80.3604 170.552 79.7842 171.06 79.335C171.567 78.8857 172.227 78.6611 173.037 78.6611C173.848 78.6611 174.507 78.8857 175.015 79.335C175.522 79.7842 175.776 80.3604 175.776 81.0635C175.776 81.7666 175.522 82.3428 175.015 82.792C174.507 83.2412 173.848 83.4658 173.037 83.4658C172.227 83.4658 171.567 83.2412 171.06 82.792C170.552 82.3428 170.298 81.7666 170.298 81.0635ZM177.974 92.958C177.974 90.4482 178.516 88.4707 179.6 87.0254C180.684 85.5801 182.197 84.8574 184.141 84.8574C185.557 84.8574 186.748 85.4141 187.715 86.5273V78.5H192.666V101H188.228L187.979 99.3008C186.963 100.629 185.674 101.293 184.111 101.293C182.227 101.293 180.732 100.57 179.629 99.125C178.525 97.6797 177.974 95.624 177.974 92.958ZM182.91 93.2656C182.91 96.0781 183.73 97.4844 185.371 97.4844C186.465 97.4844 187.246 97.0254 187.715 96.1074V90.0723C187.266 89.1348 186.494 88.666 185.4 88.666C183.877 88.666 183.052 89.8965 182.925 92.3574L182.91 93.2656ZM194.849 92.9287C194.849 91.3467 195.156 89.9404 195.771 88.71C196.387 87.4697 197.271 86.5176 198.423 85.8535C199.575 85.1895 200.928 84.8574 202.48 84.8574C204.854 84.8574 206.724 85.5947 208.091 87.0693C209.458 88.5342 210.142 90.5312 210.142 93.0605V93.2363C210.142 95.707 209.453 97.6699 208.076 99.125C206.709 100.57 204.854 101.293 202.51 101.293C200.254 101.293 198.442 100.619 197.075 99.2715C195.708 97.9141 194.971 96.0781 194.863 93.7637L194.849 92.9287ZM199.785 93.2363C199.785 94.7012 200.015 95.7754 200.474 96.459C200.933 97.1426 201.611 97.4844 202.51 97.4844C204.268 97.4844 205.166 96.1318 205.205 93.4268V92.9287C205.205 90.0869 204.297 88.666 202.48 88.666C200.83 88.666 199.937 89.8916 199.8 92.3428L199.785 93.2363ZM234.502 93.1924C234.502 95.6533 233.945 97.6211 232.832 99.0957C231.729 100.561 230.234 101.293 228.35 101.293C226.895 101.293 225.698 100.761 224.761 99.6963V107.094H219.824V85.1504H224.438L224.585 86.6152C225.532 85.4434 226.777 84.8574 228.32 84.8574C230.273 84.8574 231.792 85.5801 232.876 87.0254C233.96 88.4609 234.502 90.4385 234.502 92.958V93.1924ZM229.565 92.8848C229.565 90.0723 228.745 88.666 227.104 88.666C225.933 88.666 225.151 89.0859 224.761 89.9258V96.166C225.19 97.0449 225.981 97.4844 227.134 97.4844C228.706 97.4844 229.517 96.127 229.565 93.4121V92.8848ZM245.62 101C245.444 100.678 245.288 100.204 245.151 99.5791C244.243 100.722 242.974 101.293 241.343 101.293C239.849 101.293 238.579 100.844 237.534 99.9453C236.489 99.0371 235.967 97.8994 235.967 96.5322C235.967 94.8135 236.602 93.5146 237.871 92.6357C239.141 91.7568 240.986 91.3174 243.408 91.3174H244.932V90.4824C244.932 89.0273 244.302 88.2998 243.042 88.2998C241.87 88.2998 241.284 88.876 241.284 90.0283H236.348C236.348 88.4951 236.997 87.25 238.296 86.293C239.604 85.3359 241.27 84.8574 243.291 84.8574C245.312 84.8574 246.909 85.3506 248.081 86.3369C249.253 87.3232 249.854 88.6758 249.883 90.3945V97.4111C249.902 98.8662 250.127 99.9795 250.557 100.751V101H245.62ZM242.529 97.7773C243.145 97.7773 243.652 97.6455 244.053 97.3818C244.463 97.1182 244.756 96.8203 244.932 96.4883V93.9541H243.496C241.777 93.9541 240.918 94.7256 240.918 96.2686C240.918 96.7178 241.069 97.084 241.372 97.3672C241.675 97.6406 242.061 97.7773 242.529 97.7773ZM262.217 89.6182L260.591 89.501C259.038 89.501 258.042 89.9893 257.603 90.9658V101H252.666V85.1504H257.295L257.456 87.1865C258.286 85.6338 259.443 84.8574 260.928 84.8574C261.455 84.8574 261.914 84.916 262.305 85.0332L262.217 89.6182ZM272.485 101C272.31 100.678 272.153 100.204 272.017 99.5791C271.108 100.722 269.839 101.293 268.208 101.293C266.714 101.293 265.444 100.844 264.399 99.9453C263.354 99.0371 262.832 97.8994 262.832 96.5322C262.832 94.8135 263.467 93.5146 264.736 92.6357C266.006 91.7568 267.852 91.3174 270.273 91.3174H271.797V90.4824C271.797 89.0273 271.167 88.2998 269.907 88.2998C268.735 88.2998 268.149 88.876 268.149 90.0283H263.213C263.213 88.4951 263.862 87.25 265.161 86.293C266.47 85.3359 268.135 84.8574 270.156 84.8574C272.178 84.8574 273.774 85.3506 274.946 86.3369C276.118 87.3232 276.719 88.6758 276.748 90.3945V97.4111C276.768 98.8662 276.992 99.9795 277.422 100.751V101H272.485ZM269.395 97.7773C270.01 97.7773 270.518 97.6455 270.918 97.3818C271.328 97.1182 271.621 96.8203 271.797 96.4883V93.9541H270.361C268.643 93.9541 267.783 94.7256 267.783 96.2686C267.783 96.7178 267.935 97.084 268.237 97.3672C268.54 97.6406 268.926 97.7773 269.395 97.7773ZM88.457 116.958C88.457 114.448 88.999 112.471 90.083 111.025C91.167 109.58 92.6807 108.857 94.624 108.857C96.04 108.857 97.2314 109.414 98.1982 110.527V102.5H103.149V125H98.7109L98.4619 123.301C97.4463 124.629 96.1572 125.293 94.5947 125.293C92.71 125.293 91.2158 124.57 90.1123 123.125C89.0088 121.68 88.457 119.624 88.457 116.958ZM93.3936 117.266C93.3936 120.078 94.2139 121.484 95.8545 121.484C96.9482 121.484 97.7295 121.025 98.1982 120.107V114.072C97.749 113.135 96.9775 112.666 95.8838 112.666C94.3604 112.666 93.5352 113.896 93.4082 116.357L93.3936 117.266ZM113.623 125.293C111.191 125.293 109.224 124.57 107.72 123.125C106.216 121.67 105.464 119.78 105.464 117.456V117.046C105.464 115.425 105.762 113.994 106.357 112.754C106.963 111.514 107.842 110.557 108.994 109.883C110.146 109.199 111.514 108.857 113.096 108.857C115.322 108.857 117.08 109.551 118.369 110.938C119.658 112.314 120.303 114.238 120.303 116.709V118.628H110.488C110.664 119.517 111.05 120.215 111.646 120.723C112.241 121.23 113.013 121.484 113.96 121.484C115.522 121.484 116.743 120.938 117.622 119.844L119.878 122.51C119.263 123.359 118.389 124.038 117.256 124.546C116.133 125.044 114.922 125.293 113.623 125.293ZM113.066 112.666C111.621 112.666 110.762 113.623 110.488 115.537H115.469V115.156C115.488 114.365 115.288 113.755 114.868 113.325C114.448 112.886 113.848 112.666 113.066 112.666ZM130.601 120.547C130.601 120.127 130.381 119.79 129.941 119.536C129.502 119.282 128.667 119.019 127.437 118.745C126.206 118.472 125.19 118.115 124.39 117.676C123.589 117.227 122.979 116.685 122.559 116.05C122.139 115.415 121.929 114.688 121.929 113.867C121.929 112.412 122.529 111.216 123.73 110.278C124.932 109.331 126.504 108.857 128.447 108.857C130.537 108.857 132.217 109.331 133.486 110.278C134.756 111.226 135.391 112.471 135.391 114.014H130.439C130.439 112.744 129.771 112.109 128.433 112.109C127.915 112.109 127.48 112.256 127.129 112.549C126.777 112.832 126.602 113.188 126.602 113.618C126.602 114.058 126.816 114.414 127.246 114.688C127.676 114.961 128.359 115.186 129.297 115.361C130.244 115.537 131.074 115.747 131.787 115.991C134.17 116.812 135.361 118.281 135.361 120.4C135.361 121.846 134.717 123.022 133.428 123.931C132.148 124.839 130.488 125.293 128.447 125.293C127.09 125.293 125.879 125.049 124.814 124.561C123.75 124.072 122.92 123.408 122.324 122.568C121.729 121.729 121.431 120.845 121.431 119.917H126.045C126.064 120.649 126.309 121.187 126.777 121.528C127.246 121.86 127.847 122.026 128.579 122.026C129.253 122.026 129.756 121.89 130.088 121.616C130.43 121.343 130.601 120.986 130.601 120.547ZM146.611 125C146.436 124.678 146.279 124.204 146.143 123.579C145.234 124.722 143.965 125.293 142.334 125.293C140.84 125.293 139.57 124.844 138.525 123.945C137.48 123.037 136.958 121.899 136.958 120.532C136.958 118.813 137.593 117.515 138.862 116.636C140.132 115.757 141.978 115.317 144.399 115.317H145.923V114.482C145.923 113.027 145.293 112.3 144.033 112.3C142.861 112.3 142.275 112.876 142.275 114.028H137.339C137.339 112.495 137.988 111.25 139.287 110.293C140.596 109.336 142.261 108.857 144.282 108.857C146.304 108.857 147.9 109.351 149.072 110.337C150.244 111.323 150.845 112.676 150.874 114.395V121.411C150.894 122.866 151.118 123.979 151.548 124.751V125H146.611ZM143.521 121.777C144.136 121.777 144.644 121.646 145.044 121.382C145.454 121.118 145.747 120.82 145.923 120.488V117.954H144.487C142.769 117.954 141.909 118.726 141.909 120.269C141.909 120.718 142.061 121.084 142.363 121.367C142.666 121.641 143.052 121.777 143.521 121.777ZM158.447 110.85C159.502 109.521 160.85 108.857 162.49 108.857C164.238 108.857 165.557 109.375 166.445 110.41C167.334 111.445 167.788 112.974 167.808 114.995V125H162.856V115.112C162.856 114.272 162.686 113.657 162.344 113.267C162.002 112.866 161.421 112.666 160.601 112.666C159.585 112.666 158.867 112.988 158.447 113.633V125H153.511V102.5H158.447V110.85ZM169.932 116.929C169.932 115.347 170.239 113.94 170.854 112.71C171.47 111.47 172.354 110.518 173.506 109.854C174.658 109.189 176.011 108.857 177.563 108.857C179.937 108.857 181.807 109.595 183.174 111.069C184.541 112.534 185.225 114.531 185.225 117.061V117.236C185.225 119.707 184.536 121.67 183.159 123.125C181.792 124.57 179.937 125.293 177.593 125.293C175.337 125.293 173.525 124.619 172.158 123.271C170.791 121.914 170.054 120.078 169.946 117.764L169.932 116.929ZM174.868 117.236C174.868 118.701 175.098 119.775 175.557 120.459C176.016 121.143 176.694 121.484 177.593 121.484C179.351 121.484 180.249 120.132 180.288 117.427V116.929C180.288 114.087 179.38 112.666 177.563 112.666C175.913 112.666 175.02 113.892 174.883 116.343L174.868 117.236ZM186.821 116.958C186.821 115.356 187.085 113.94 187.612 112.71C188.14 111.479 188.896 110.532 189.883 109.868C190.869 109.194 192.017 108.857 193.325 108.857C194.976 108.857 196.265 109.414 197.192 110.527L197.368 109.15H201.851V124.399C201.851 125.796 201.523 127.007 200.869 128.032C200.225 129.067 199.287 129.858 198.057 130.405C196.826 130.962 195.4 131.24 193.779 131.24C192.617 131.24 191.489 131.021 190.396 130.581C189.312 130.142 188.481 129.57 187.905 128.867L189.971 125.967C190.889 127.051 192.1 127.593 193.604 127.593C195.791 127.593 196.885 126.47 196.885 124.224V123.726C195.938 124.771 194.741 125.293 193.296 125.293C191.362 125.293 189.8 124.556 188.608 123.081C187.417 121.597 186.821 119.614 186.821 117.134V116.958ZM191.772 117.266C191.772 118.564 192.017 119.595 192.505 120.356C192.993 121.108 193.677 121.484 194.556 121.484C195.62 121.484 196.396 121.128 196.885 120.415V113.75C196.406 113.027 195.64 112.666 194.585 112.666C193.706 112.666 193.018 113.062 192.52 113.853C192.021 114.634 191.772 115.771 191.772 117.266ZM213.584 125C213.408 124.678 213.252 124.204 213.115 123.579C212.207 124.722 210.938 125.293 209.307 125.293C207.812 125.293 206.543 124.844 205.498 123.945C204.453 123.037 203.931 121.899 203.931 120.532C203.931 118.813 204.565 117.515 205.835 116.636C207.104 115.757 208.95 115.317 211.372 115.317H212.896V114.482C212.896 113.027 212.266 112.3 211.006 112.3C209.834 112.3 209.248 112.876 209.248 114.028H204.312C204.312 112.495 204.961 111.25 206.26 110.293C207.568 109.336 209.233 108.857 211.255 108.857C213.276 108.857 214.873 109.351 216.045 110.337C217.217 111.323 217.817 112.676 217.847 114.395V121.411C217.866 122.866 218.091 123.979 218.521 124.751V125H213.584ZM210.493 121.777C211.108 121.777 211.616 121.646 212.017 121.382C212.427 121.118 212.72 120.82 212.896 120.488V117.954H211.46C209.741 117.954 208.882 118.726 208.882 120.269C208.882 120.718 209.033 121.084 209.336 121.367C209.639 121.641 210.024 121.777 210.493 121.777ZM230.181 113.618L228.555 113.501C227.002 113.501 226.006 113.989 225.566 114.966V125H220.63V109.15H225.259L225.42 111.187C226.25 109.634 227.407 108.857 228.892 108.857C229.419 108.857 229.878 108.916 230.269 109.033L230.181 113.618ZM240.259 120.547C240.259 120.127 240.039 119.79 239.6 119.536C239.16 119.282 238.325 119.019 237.095 118.745C235.864 118.472 234.849 118.115 234.048 117.676C233.247 117.227 232.637 116.685 232.217 116.05C231.797 115.415 231.587 114.688 231.587 113.867C231.587 112.412 232.188 111.216 233.389 110.278C234.59 109.331 236.162 108.857 238.105 108.857C240.195 108.857 241.875 109.331 243.145 110.278C244.414 111.226 245.049 112.471 245.049 114.014H240.098C240.098 112.744 239.429 112.109 238.091 112.109C237.573 112.109 237.139 112.256 236.787 112.549C236.436 112.832 236.26 113.188 236.26 113.618C236.26 114.058 236.475 114.414 236.904 114.688C237.334 114.961 238.018 115.186 238.955 115.361C239.902 115.537 240.732 115.747 241.445 115.991C243.828 116.812 245.02 118.281 245.02 120.4C245.02 121.846 244.375 123.022 243.086 123.931C241.807 124.839 240.146 125.293 238.105 125.293C236.748 125.293 235.537 125.049 234.473 124.561C233.408 124.072 232.578 123.408 231.982 122.568C231.387 121.729 231.089 120.845 231.089 119.917H235.703C235.723 120.649 235.967 121.187 236.436 121.528C236.904 121.86 237.505 122.026 238.237 122.026C238.911 122.026 239.414 121.89 239.746 121.616C240.088 121.343 240.259 120.986 240.259 120.547ZM255.01 125.293C252.578 125.293 250.61 124.57 249.106 123.125C247.603 121.67 246.851 119.78 246.851 117.456V117.046C246.851 115.425 247.148 113.994 247.744 112.754C248.35 111.514 249.229 110.557 250.381 109.883C251.533 109.199 252.9 108.857 254.482 108.857C256.709 108.857 258.467 109.551 259.756 110.938C261.045 112.314 261.689 114.238 261.689 116.709V118.628H251.875C252.051 119.517 252.437 120.215 253.032 120.723C253.628 121.23 254.399 121.484 255.347 121.484C256.909 121.484 258.13 120.938 259.009 119.844L261.265 122.51C260.649 123.359 259.775 124.038 258.643 124.546C257.52 125.044 256.309 125.293 255.01 125.293ZM254.453 112.666C253.008 112.666 252.148 113.623 251.875 115.537H256.855V115.156C256.875 114.365 256.675 113.755 256.255 113.325C255.835 112.886 255.234 112.666 254.453 112.666ZM28.7852 143.806C28.7852 142.481 28.9609 141.21 29.3125 139.991C29.6699 138.772 30.2002 137.665 30.9033 136.669C31.6064 135.673 32.3359 134.97 33.0918 134.56L33.4258 135.632C32.5703 136.288 31.8672 137.29 31.3164 138.638C30.7715 139.985 30.4727 141.494 30.4199 143.164L30.4111 143.911C30.4111 146.173 30.8242 148.136 31.6504 149.8C32.1484 150.796 32.7402 151.575 33.4258 152.138L33.0918 153.131C32.3125 152.697 31.5684 151.971 30.8594 150.951C29.4766 148.959 28.7852 146.577 28.7852 143.806ZM38.8135 147.849C39.3936 147.849 39.9004 147.673 40.334 147.321C40.7676 146.97 41.0078 146.53 41.0547 146.003H42.5928C42.5635 146.548 42.376 147.066 42.0303 147.559C41.6846 148.051 41.2217 148.443 40.6416 148.736C40.0674 149.029 39.458 149.176 38.8135 149.176C37.5186 149.176 36.4873 148.745 35.7197 147.884C34.958 147.017 34.5771 145.833 34.5771 144.333V144.061C34.5771 143.135 34.7471 142.312 35.0869 141.591C35.4268 140.87 35.9131 140.311 36.5459 139.912C37.1846 139.514 37.9375 139.314 38.8047 139.314C39.8711 139.314 40.7559 139.634 41.459 140.272C42.168 140.911 42.5459 141.74 42.5928 142.76H41.0547C41.0078 142.145 40.7734 141.641 40.3516 141.248C39.9355 140.85 39.4199 140.65 38.8047 140.65C37.9785 140.65 37.3369 140.949 36.8799 141.547C36.4287 142.139 36.2031 142.997 36.2031 144.122V144.43C36.2031 145.525 36.4287 146.369 36.8799 146.961C37.3311 147.553 37.9756 147.849 38.8135 147.849ZM43.9902 144.157C43.9902 143.226 44.1719 142.388 44.5352 141.644C44.9043 140.899 45.4141 140.325 46.0645 139.921C46.7207 139.517 47.4678 139.314 48.3057 139.314C49.6006 139.314 50.6465 139.763 51.4434 140.659C52.2461 141.556 52.6475 142.748 52.6475 144.236V144.351C52.6475 145.276 52.4688 146.108 52.1113 146.847C51.7598 147.579 51.2529 148.15 50.5908 148.561C49.9346 148.971 49.1787 149.176 48.3232 149.176C47.0342 149.176 45.9883 148.728 45.1855 147.831C44.3887 146.935 43.9902 145.748 43.9902 144.271V144.157ZM45.625 144.351C45.625 145.405 45.8682 146.252 46.3545 146.891C46.8467 147.529 47.5029 147.849 48.3232 147.849C49.1494 147.849 49.8057 147.526 50.292 146.882C50.7783 146.231 51.0215 145.323 51.0215 144.157C51.0215 143.114 50.7725 142.271 50.2744 141.626C49.7822 140.976 49.126 140.65 48.3057 140.65C47.5029 140.65 46.8555 140.97 46.3633 141.608C45.8711 142.247 45.625 143.161 45.625 144.351ZM56.2158 139.49L56.2598 140.545C56.957 139.725 57.8975 139.314 59.0811 139.314C60.4111 139.314 61.3164 139.824 61.7969 140.844C62.1133 140.387 62.5234 140.018 63.0273 139.736C63.5371 139.455 64.1377 139.314 64.8291 139.314C66.915 139.314 67.9756 140.419 68.0107 142.628V149H66.3848V142.725C66.3848 142.045 66.2295 141.538 65.9189 141.204C65.6084 140.864 65.0869 140.694 64.3545 140.694C63.751 140.694 63.25 140.876 62.8516 141.239C62.4531 141.597 62.2217 142.08 62.1572 142.689V149H60.5225V142.769C60.5225 141.386 59.8457 140.694 58.4922 140.694C57.4258 140.694 56.6963 141.148 56.3037 142.057V149H54.6777V139.49H56.2158ZM70.041 144.157C70.041 143.226 70.2227 142.388 70.5859 141.644C70.9551 140.899 71.4648 140.325 72.1152 139.921C72.7715 139.517 73.5186 139.314 74.3564 139.314C75.6514 139.314 76.6973 139.763 77.4941 140.659C78.2969 141.556 78.6982 142.748 78.6982 144.236V144.351C78.6982 145.276 78.5195 146.108 78.1621 146.847C77.8105 147.579 77.3037 148.15 76.6416 148.561C75.9854 148.971 75.2295 149.176 74.374 149.176C73.085 149.176 72.0391 148.728 71.2363 147.831C70.4395 146.935 70.041 145.748 70.041 144.271V144.157ZM71.6758 144.351C71.6758 145.405 71.9189 146.252 72.4053 146.891C72.8975 147.529 73.5537 147.849 74.374 147.849C75.2002 147.849 75.8564 147.526 76.3428 146.882C76.8291 146.231 77.0723 145.323 77.0723 144.157C77.0723 143.114 76.8232 142.271 76.3252 141.626C75.833 140.976 75.1768 140.65 74.3564 140.65C73.5537 140.65 72.9062 140.97 72.4141 141.608C71.9219 142.247 71.6758 143.161 71.6758 144.351ZM90.7393 146.478C90.7393 146.038 90.5723 145.698 90.2383 145.458C89.9102 145.212 89.333 145.001 88.5068 144.825C87.6865 144.649 87.0332 144.438 86.5469 144.192C86.0664 143.946 85.709 143.653 85.4746 143.313C85.2461 142.974 85.1318 142.569 85.1318 142.101C85.1318 141.321 85.46 140.662 86.1162 140.123C86.7783 139.584 87.6221 139.314 88.6475 139.314C89.7256 139.314 90.5986 139.593 91.2666 140.149C91.9404 140.706 92.2773 141.418 92.2773 142.285H90.6426C90.6426 141.84 90.4521 141.456 90.0713 141.134C89.6963 140.812 89.2217 140.65 88.6475 140.65C88.0557 140.65 87.5928 140.779 87.2588 141.037C86.9248 141.295 86.7578 141.632 86.7578 142.048C86.7578 142.44 86.9131 142.736 87.2236 142.936C87.5342 143.135 88.0938 143.325 88.9023 143.507C89.7168 143.688 90.376 143.905 90.8799 144.157C91.3838 144.409 91.7559 144.714 91.9961 145.071C92.2422 145.423 92.3652 145.854 92.3652 146.363C92.3652 147.213 92.0254 147.896 91.3457 148.411C90.666 148.921 89.7842 149.176 88.7002 149.176C87.9385 149.176 87.2646 149.041 86.6787 148.771C86.0928 148.502 85.6328 148.127 85.2988 147.646C84.9707 147.16 84.8066 146.636 84.8066 146.073H86.4326C86.4619 146.618 86.6787 147.052 87.083 147.374C87.4932 147.69 88.0322 147.849 88.7002 147.849C89.3154 147.849 89.8076 147.726 90.1768 147.479C90.5518 147.228 90.7393 146.894 90.7393 146.478ZM98.4297 149.176C97.1406 149.176 96.0918 148.754 95.2832 147.91C94.4746 147.061 94.0703 145.927 94.0703 144.509V144.21C94.0703 143.267 94.249 142.426 94.6064 141.688C94.9697 140.943 95.4736 140.363 96.1182 139.947C96.7686 139.525 97.4717 139.314 98.2275 139.314C99.4639 139.314 100.425 139.722 101.11 140.536C101.796 141.351 102.139 142.517 102.139 144.034V144.711H95.6963C95.7197 145.648 95.9922 146.407 96.5137 146.987C97.041 147.562 97.709 147.849 98.5176 147.849C99.0918 147.849 99.5781 147.731 99.9766 147.497C100.375 147.263 100.724 146.952 101.022 146.565L102.016 147.339C101.219 148.563 100.023 149.176 98.4297 149.176ZM98.2275 140.65C97.5713 140.65 97.0205 140.891 96.5752 141.371C96.1299 141.846 95.8545 142.514 95.749 143.375H100.513V143.252C100.466 142.426 100.243 141.787 99.8447 141.336C99.4463 140.879 98.9072 140.65 98.2275 140.65ZM107.219 142.962L109.328 139.49H111.227L108.115 144.192L111.323 149H109.442L107.245 145.44L105.048 149H103.158L106.366 144.192L103.255 139.49H105.136L107.219 142.962ZM118.829 148.06C118.196 148.804 117.268 149.176 116.043 149.176C115.029 149.176 114.256 148.883 113.723 148.297C113.195 147.705 112.929 146.832 112.923 145.678V139.49H114.549V145.634C114.549 147.075 115.135 147.796 116.307 147.796C117.549 147.796 118.375 147.333 118.785 146.407V139.49H120.411V149H118.864L118.829 148.06ZM128.761 149C128.667 148.812 128.591 148.479 128.532 147.998C127.776 148.783 126.874 149.176 125.825 149.176C124.888 149.176 124.117 148.912 123.514 148.385C122.916 147.852 122.617 147.178 122.617 146.363C122.617 145.373 122.992 144.605 123.742 144.061C124.498 143.51 125.559 143.234 126.924 143.234H128.506V142.487C128.506 141.919 128.336 141.468 127.996 141.134C127.656 140.794 127.155 140.624 126.493 140.624C125.913 140.624 125.427 140.771 125.034 141.063C124.642 141.356 124.445 141.711 124.445 142.127H122.811C122.811 141.652 122.978 141.195 123.312 140.756C123.651 140.311 124.108 139.959 124.683 139.701C125.263 139.443 125.898 139.314 126.59 139.314C127.686 139.314 128.544 139.59 129.165 140.141C129.786 140.686 130.108 141.438 130.132 142.399V146.776C130.132 147.649 130.243 148.344 130.466 148.859V149H128.761ZM126.062 147.761C126.572 147.761 127.056 147.629 127.513 147.365C127.97 147.102 128.301 146.759 128.506 146.337V144.386H127.231C125.239 144.386 124.243 144.969 124.243 146.135C124.243 146.645 124.413 147.043 124.753 147.33C125.093 147.617 125.529 147.761 126.062 147.761ZM134.447 149H132.821V135.5H134.447V149ZM138.824 149H137.198V139.49H138.824V149ZM137.066 136.968C137.066 136.704 137.146 136.481 137.304 136.3C137.468 136.118 137.708 136.027 138.024 136.027C138.341 136.027 138.581 136.118 138.745 136.3C138.909 136.481 138.991 136.704 138.991 136.968C138.991 137.231 138.909 137.451 138.745 137.627C138.581 137.803 138.341 137.891 138.024 137.891C137.708 137.891 137.468 137.803 137.304 137.627C137.146 137.451 137.066 137.231 137.066 136.968ZM141.039 144.166C141.039 142.707 141.385 141.535 142.076 140.65C142.768 139.76 143.673 139.314 144.792 139.314C145.905 139.314 146.787 139.695 147.438 140.457V135.5H149.063V149H147.569L147.49 147.98C146.84 148.777 145.935 149.176 144.774 149.176C143.673 149.176 142.773 148.725 142.076 147.822C141.385 146.92 141.039 145.742 141.039 144.289V144.166ZM142.665 144.351C142.665 145.429 142.888 146.272 143.333 146.882C143.778 147.491 144.394 147.796 145.179 147.796C146.21 147.796 146.963 147.333 147.438 146.407V142.039C146.951 141.143 146.204 140.694 145.196 140.694C144.399 140.694 143.778 141.002 143.333 141.617C142.888 142.232 142.665 143.144 142.665 144.351ZM157.466 149C157.372 148.812 157.296 148.479 157.237 147.998C156.481 148.783 155.579 149.176 154.53 149.176C153.593 149.176 152.822 148.912 152.219 148.385C151.621 147.852 151.322 147.178 151.322 146.363C151.322 145.373 151.697 144.605 152.447 144.061C153.203 143.51 154.264 143.234 155.629 143.234H157.211V142.487C157.211 141.919 157.041 141.468 156.701 141.134C156.361 140.794 155.86 140.624 155.198 140.624C154.618 140.624 154.132 140.771 153.739 141.063C153.347 141.356 153.15 141.711 153.15 142.127H151.516C151.516 141.652 151.683 141.195 152.017 140.756C152.356 140.311 152.813 139.959 153.388 139.701C153.968 139.443 154.604 139.314 155.295 139.314C156.391 139.314 157.249 139.59 157.87 140.141C158.491 140.686 158.813 141.438 158.837 142.399V146.776C158.837 147.649 158.948 148.344 159.171 148.859V149H157.466ZM154.768 147.761C155.277 147.761 155.761 147.629 156.218 147.365C156.675 147.102 157.006 146.759 157.211 146.337V144.386H155.937C153.944 144.386 152.948 144.969 152.948 146.135C152.948 146.645 153.118 147.043 153.458 147.33C153.798 147.617 154.234 147.761 154.768 147.761ZM160.99 144.166C160.99 142.707 161.336 141.535 162.027 140.65C162.719 139.76 163.624 139.314 164.743 139.314C165.856 139.314 166.738 139.695 167.389 140.457V135.5H169.015V149H167.521L167.441 147.98C166.791 148.777 165.886 149.176 164.726 149.176C163.624 149.176 162.725 148.725 162.027 147.822C161.336 146.92 160.99 145.742 160.99 144.289V144.166ZM162.616 144.351C162.616 145.429 162.839 146.272 163.284 146.882C163.729 147.491 164.345 147.796 165.13 147.796C166.161 147.796 166.914 147.333 167.389 146.407V142.039C166.902 141.143 166.155 140.694 165.147 140.694C164.351 140.694 163.729 141.002 163.284 141.617C162.839 142.232 162.616 143.144 162.616 144.351ZM179.122 146.618L181.337 139.49H183.077L179.254 150.468C178.662 152.05 177.722 152.841 176.433 152.841L176.125 152.814L175.519 152.7V151.382L175.958 151.417C176.509 151.417 176.937 151.306 177.241 151.083C177.552 150.86 177.807 150.453 178.006 149.861L178.366 148.895L174.974 139.49H176.749L179.122 146.618ZM192.815 147.849C193.396 147.849 193.902 147.673 194.336 147.321C194.77 146.97 195.01 146.53 195.057 146.003H196.595C196.565 146.548 196.378 147.066 196.032 147.559C195.687 148.051 195.224 148.443 194.644 148.736C194.069 149.029 193.46 149.176 192.815 149.176C191.521 149.176 190.489 148.745 189.722 147.884C188.96 147.017 188.579 145.833 188.579 144.333V144.061C188.579 143.135 188.749 142.312 189.089 141.591C189.429 140.87 189.915 140.311 190.548 139.912C191.187 139.514 191.939 139.314 192.807 139.314C193.873 139.314 194.758 139.634 195.461 140.272C196.17 140.911 196.548 141.74 196.595 142.76H195.057C195.01 142.145 194.775 141.641 194.354 141.248C193.938 140.85 193.422 140.65 192.807 140.65C191.98 140.65 191.339 140.949 190.882 141.547C190.431 142.139 190.205 142.997 190.205 144.122V144.43C190.205 145.525 190.431 146.369 190.882 146.961C191.333 147.553 191.978 147.849 192.815 147.849ZM197.992 144.157C197.992 143.226 198.174 142.388 198.537 141.644C198.906 140.899 199.416 140.325 200.066 139.921C200.723 139.517 201.47 139.314 202.308 139.314C203.603 139.314 204.648 139.763 205.445 140.659C206.248 141.556 206.649 142.748 206.649 144.236V144.351C206.649 145.276 206.471 146.108 206.113 146.847C205.762 147.579 205.255 148.15 204.593 148.561C203.937 148.971 203.181 149.176 202.325 149.176C201.036 149.176 199.99 148.728 199.188 147.831C198.391 146.935 197.992 145.748 197.992 144.271V144.157ZM199.627 144.351C199.627 145.405 199.87 146.252 200.356 146.891C200.849 147.529 201.505 147.849 202.325 147.849C203.151 147.849 203.808 147.526 204.294 146.882C204.78 146.231 205.023 145.323 205.023 144.157C205.023 143.114 204.774 142.271 204.276 141.626C203.784 140.976 203.128 140.65 202.308 140.65C201.505 140.65 200.857 140.97 200.365 141.608C199.873 142.247 199.627 143.161 199.627 144.351ZM214.226 146.478C214.226 146.038 214.059 145.698 213.725 145.458C213.396 145.212 212.819 145.001 211.993 144.825C211.173 144.649 210.52 144.438 210.033 144.192C209.553 143.946 209.195 143.653 208.961 143.313C208.732 142.974 208.618 142.569 208.618 142.101C208.618 141.321 208.946 140.662 209.603 140.123C210.265 139.584 211.108 139.314 212.134 139.314C213.212 139.314 214.085 139.593 214.753 140.149C215.427 140.706 215.764 141.418 215.764 142.285H214.129C214.129 141.84 213.938 141.456 213.558 141.134C213.183 140.812 212.708 140.65 212.134 140.65C211.542 140.65 211.079 140.779 210.745 141.037C210.411 141.295 210.244 141.632 210.244 142.048C210.244 142.44 210.399 142.736 210.71 142.936C211.021 143.135 211.58 143.325 212.389 143.507C213.203 143.688 213.862 143.905 214.366 144.157C214.87 144.409 215.242 144.714 215.482 145.071C215.729 145.423 215.852 145.854 215.852 146.363C215.852 147.213 215.512 147.896 214.832 148.411C214.152 148.921 213.271 149.176 212.187 149.176C211.425 149.176 210.751 149.041 210.165 148.771C209.579 148.502 209.119 148.127 208.785 147.646C208.457 147.16 208.293 146.636 208.293 146.073H209.919C209.948 146.618 210.165 147.052 210.569 147.374C210.979 147.69 211.519 147.849 212.187 147.849C212.802 147.849 213.294 147.726 213.663 147.479C214.038 147.228 214.226 146.894 214.226 146.478ZM223.841 149C223.747 148.812 223.671 148.479 223.612 147.998C222.856 148.783 221.954 149.176 220.905 149.176C219.968 149.176 219.197 148.912 218.594 148.385C217.996 147.852 217.697 147.178 217.697 146.363C217.697 145.373 218.072 144.605 218.822 144.061C219.578 143.51 220.639 143.234 222.004 143.234H223.586V142.487C223.586 141.919 223.416 141.468 223.076 141.134C222.736 140.794 222.235 140.624 221.573 140.624C220.993 140.624 220.507 140.771 220.114 141.063C219.722 141.356 219.525 141.711 219.525 142.127H217.891C217.891 141.652 218.058 141.195 218.392 140.756C218.731 140.311 219.188 139.959 219.763 139.701C220.343 139.443 220.979 139.314 221.67 139.314C222.766 139.314 223.624 139.59 224.245 140.141C224.866 140.686 225.188 141.438 225.212 142.399V146.776C225.212 147.649 225.323 148.344 225.546 148.859V149H223.841ZM221.143 147.761C221.652 147.761 222.136 147.629 222.593 147.365C223.05 147.102 223.381 146.759 223.586 146.337V144.386H222.312C220.319 144.386 219.323 144.969 219.323 146.135C219.323 146.645 219.493 147.043 219.833 147.33C220.173 147.617 220.609 147.761 221.143 147.761ZM233.298 146.478C233.298 146.038 233.131 145.698 232.797 145.458C232.469 145.212 231.892 145.001 231.065 144.825C230.245 144.649 229.592 144.438 229.105 144.192C228.625 143.946 228.268 143.653 228.033 143.313C227.805 142.974 227.69 142.569 227.69 142.101C227.69 141.321 228.019 140.662 228.675 140.123C229.337 139.584 230.181 139.314 231.206 139.314C232.284 139.314 233.157 139.593 233.825 140.149C234.499 140.706 234.836 141.418 234.836 142.285H233.201C233.201 141.84 233.011 141.456 232.63 141.134C232.255 140.812 231.78 140.65 231.206 140.65C230.614 140.65 230.151 140.779 229.817 141.037C229.483 141.295 229.316 141.632 229.316 142.048C229.316 142.44 229.472 142.736 229.782 142.936C230.093 143.135 230.652 143.325 231.461 143.507C232.275 143.688 232.935 143.905 233.438 144.157C233.942 144.409 234.314 144.714 234.555 145.071C234.801 145.423 234.924 145.854 234.924 146.363C234.924 147.213 234.584 147.896 233.904 148.411C233.225 148.921 232.343 149.176 231.259 149.176C230.497 149.176 229.823 149.041 229.237 148.771C228.651 148.502 228.191 148.127 227.857 147.646C227.529 147.16 227.365 146.636 227.365 146.073H228.991C229.021 146.618 229.237 147.052 229.642 147.374C230.052 147.69 230.591 147.849 231.259 147.849C231.874 147.849 232.366 147.726 232.735 147.479C233.11 147.228 233.298 146.894 233.298 146.478ZM241.111 144.166C241.111 142.707 241.457 141.535 242.148 140.65C242.84 139.76 243.745 139.314 244.864 139.314C245.978 139.314 246.859 139.695 247.51 140.457V135.5H249.136V149H247.642L247.562 147.98C246.912 148.777 246.007 149.176 244.847 149.176C243.745 149.176 242.846 148.725 242.148 147.822C241.457 146.92 241.111 145.742 241.111 144.289V144.166ZM242.737 144.351C242.737 145.429 242.96 146.272 243.405 146.882C243.851 147.491 244.466 147.796 245.251 147.796C246.282 147.796 247.035 147.333 247.51 146.407V142.039C247.023 141.143 246.276 140.694 245.269 140.694C244.472 140.694 243.851 141.002 243.405 141.617C242.96 142.232 242.737 143.144 242.737 144.351ZM255.613 149.176C254.324 149.176 253.275 148.754 252.467 147.91C251.658 147.061 251.254 145.927 251.254 144.509V144.21C251.254 143.267 251.433 142.426 251.79 141.688C252.153 140.943 252.657 140.363 253.302 139.947C253.952 139.525 254.655 139.314 255.411 139.314C256.647 139.314 257.608 139.722 258.294 140.536C258.979 141.351 259.322 142.517 259.322 144.034V144.711H252.88C252.903 145.648 253.176 146.407 253.697 146.987C254.225 147.562 254.893 147.849 255.701 147.849C256.275 147.849 256.762 147.731 257.16 147.497C257.559 147.263 257.907 146.952 258.206 146.565L259.199 147.339C258.402 148.563 257.207 149.176 255.613 149.176ZM255.411 140.65C254.755 140.65 254.204 140.891 253.759 141.371C253.313 141.846 253.038 142.514 252.933 143.375H257.696V143.252C257.649 142.426 257.427 141.787 257.028 141.336C256.63 140.879 256.091 140.65 255.411 140.65ZM267.443 149H265.817V135.5H267.443V149ZM275.925 149C275.831 148.812 275.755 148.479 275.696 147.998C274.94 148.783 274.038 149.176 272.989 149.176C272.052 149.176 271.281 148.912 270.678 148.385C270.08 147.852 269.781 147.178 269.781 146.363C269.781 145.373 270.156 144.605 270.906 144.061C271.662 143.51 272.723 143.234 274.088 143.234H275.67V142.487C275.67 141.919 275.5 141.468 275.16 141.134C274.82 140.794 274.319 140.624 273.657 140.624C273.077 140.624 272.591 140.771 272.198 141.063C271.806 141.356 271.609 141.711 271.609 142.127H269.975C269.975 141.652 270.142 141.195 270.476 140.756C270.815 140.311 271.272 139.959 271.847 139.701C272.427 139.443 273.062 139.314 273.754 139.314C274.85 139.314 275.708 139.59 276.329 140.141C276.95 140.686 277.272 141.438 277.296 142.399V146.776C277.296 147.649 277.407 148.344 277.63 148.859V149H275.925ZM273.227 147.761C273.736 147.761 274.22 147.629 274.677 147.365C275.134 147.102 275.465 146.759 275.67 146.337V144.386H274.396C272.403 144.386 271.407 144.969 271.407 146.135C271.407 146.645 271.577 147.043 271.917 147.33C272.257 147.617 272.693 147.761 273.227 147.761ZM287.447 146.794L289.803 139.49H291.464L288.054 149H286.814L283.369 139.49H285.03L287.447 146.794ZM294.795 149H293.169V139.49H294.795V149ZM293.037 136.968C293.037 136.704 293.116 136.481 293.274 136.3C293.438 136.118 293.679 136.027 293.995 136.027C294.312 136.027 294.552 136.118 294.716 136.3C294.88 136.481 294.962 136.704 294.962 136.968C294.962 137.231 294.88 137.451 294.716 137.627C294.552 137.803 294.312 137.891 293.995 137.891C293.679 137.891 293.438 137.803 293.274 137.627C293.116 137.451 293.037 137.231 293.037 136.968ZM297.01 144.166C297.01 142.707 297.355 141.535 298.047 140.65C298.738 139.76 299.644 139.314 300.763 139.314C301.876 139.314 302.758 139.695 303.408 140.457V135.5H305.034V149H303.54L303.461 147.98C302.811 148.777 301.905 149.176 300.745 149.176C299.644 149.176 298.744 148.725 298.047 147.822C297.355 146.92 297.01 145.742 297.01 144.289V144.166ZM298.636 144.351C298.636 145.429 298.858 146.272 299.304 146.882C299.749 147.491 300.364 147.796 301.149 147.796C302.181 147.796 302.934 147.333 303.408 146.407V142.039C302.922 141.143 302.175 140.694 301.167 140.694C300.37 140.694 299.749 141.002 299.304 141.617C298.858 142.232 298.636 143.144 298.636 144.351ZM313.437 149C313.343 148.812 313.267 148.479 313.208 147.998C312.452 148.783 311.55 149.176 310.501 149.176C309.563 149.176 308.793 148.912 308.189 148.385C307.592 147.852 307.293 147.178 307.293 146.363C307.293 145.373 307.668 144.605 308.418 144.061C309.174 143.51 310.234 143.234 311.6 143.234H313.182V142.487C313.182 141.919 313.012 141.468 312.672 141.134C312.332 140.794 311.831 140.624 311.169 140.624C310.589 140.624 310.103 140.771 309.71 141.063C309.317 141.356 309.121 141.711 309.121 142.127H307.486C307.486 141.652 307.653 141.195 307.987 140.756C308.327 140.311 308.784 139.959 309.358 139.701C309.938 139.443 310.574 139.314 311.266 139.314C312.361 139.314 313.22 139.59 313.841 140.141C314.462 140.686 314.784 141.438 314.808 142.399V146.776C314.808 147.649 314.919 148.344 315.142 148.859V149H313.437ZM310.738 147.761C311.248 147.761 311.731 147.629 312.188 147.365C312.646 147.102 312.977 146.759 313.182 146.337V144.386H311.907C309.915 144.386 308.919 144.969 308.919 146.135C308.919 146.645 309.089 147.043 309.429 147.33C309.769 147.617 310.205 147.761 310.738 147.761ZM321.109 143.894C321.109 145.2 320.937 146.454 320.591 147.655C320.251 148.851 319.727 149.955 319.018 150.969C318.314 151.982 317.576 152.703 316.803 153.131L316.46 152.138C317.362 151.446 318.086 150.374 318.631 148.921C319.182 147.462 319.463 145.845 319.475 144.069V143.788C319.475 142.558 319.346 141.415 319.088 140.36C318.83 139.3 318.47 138.351 318.007 137.513C317.55 136.675 317.034 136.021 316.46 135.553L316.803 134.56C317.576 134.987 318.312 135.702 319.009 136.704C319.712 137.706 320.236 138.811 320.582 140.018C320.934 141.225 321.109 142.517 321.109 143.894Z" fill="white"/>
<defs>
<filter id="filter0_bd" x="-50" y="10" width="450" height="203" filterUnits="userSpaceOnUse" color-interpolation-filters="sRGB">
<feFlood flood-opacity="0" result="BackgroundImageFix"/>
<feGaussianBlur in="BackgroundImage" stdDeviation="25"/>
<feComposite in2="SourceAlpha" operator="in" result="effect1_backgroundBlur"/>
<feColorMatrix in="SourceAlpha" type="matrix" values="0 0 0 0 0 0 0 0 0 0 0 0 0 0 0 0 0 0 127 0"/>
<feOffset dx="5" dy="4"/>
<feGaussianBlur stdDeviation="2"/>
<feColorMatrix type="matrix" values="0 0 0 0 0 0 0 0 0 0 0 0 0 0 0 0 0 0 0.25 0"/>
<feBlend mode="normal" in2="effect1_backgroundBlur" result="effect2_dropShadow"/>
<feBlend mode="normal" in="SourceGraphic" in2="effect2_dropShadow" result="shape"/>
</filter>
</defs>
</svg>
