<svg width="359" height="200" viewBox="0 0 359 200" fill="none" xmlns="http://www.w3.org/2000/svg">
<g filter="url(#filter0_d)">
<path d="M269 94.0015C269 145.915 226.917 188 175.003 188C123.083 188 81 145.915 81 94.0015C81 42.0834 123.083 0 175.003 0C226.917 0 269 42.0834 269 94.0015Z" fill="#0C27B1"/>
<path d="M219.977 176.56C249.186 160.615 269 129.619 269 94.0015C269 42.0834 226.917 0 175.003 0C123.083 0 81 42.0834 81 94.0015C81 109.228 84.6265 123.608 91.051 136.329C91.0769 136.345 131.409 169.382 219.977 176.56Z" fill="#AA35A7"/>
<path d="M253.03 146.434C263.115 131.455 269 113.415 269 94.0015C269 42.0834 226.917 0 175.003 0C123.083 0 81 42.0834 81 94.0015C81 104.735 82.8064 115.046 86.1161 124.659C161.743 156.444 222.16 151.797 253.03 146.434Z" fill="#0C27B1"/>
<path d="M175.003 0C123.083 0 81 42.0834 81 94.0015C81 96.3319 81.0883 98.6409 81.2589 100.929C86.3827 106.299 96.522 114.196 119.851 119.66C143.568 125.21 148.035 124.704 181.373 134.793C214.715 144.887 228.109 137.169 242.97 137.821C249.73 138.118 254.93 137.625 258.611 136.997C265.253 124.11 269 109.495 269 94.0015C269 42.0834 226.917 0 175.003 0Z" fill="#AA35A7"/>
<path d="M175.003 0C124.469 0 83.2585 39.8749 81.0957 89.8739C81.0957 89.8739 136.825 134.032 262.81 127.598C266.808 117.166 269 105.844 269 94.0015C269 42.0834 226.916 0 175.003 0Z" fill="#0C27B1"/>
<path d="M175.002 0C128.555 0 89.9797 33.6881 82.3672 77.9647C92.6984 83.0138 161.194 113.599 268.996 94.3945C268.996 94.2605 268.999 94.131 268.999 94.0015C268.999 42.0834 226.916 0 175.002 0Z" fill="#AA35A7"/>
<path d="M93.9922 46.3039C93.9922 46.3039 156.519 89.1489 268.753 87.1963C265.27 38.4569 224.624 0 175.003 0C140.497 0 110.343 18.5926 93.9922 46.3039Z" fill="#0C27B1"/>
<path d="M97.2256 41.2015C97.2378 41.2046 144.3 57.8201 192.199 57.7029C234.258 57.6069 254.884 63.8136 265.239 67.6076C253.833 28.543 217.752 0 175.003 0C142.66 0 114.137 16.3338 97.2256 41.2015Z" fill="#AA35A7"/>
<path d="M197.05 50.8641C229.346 50.8641 246.354 55.799 261.735 57.7029C247.533 23.8122 214.045 0 175.003 0C145.838 0 119.78 13.28 102.538 34.1237C125.066 42.7901 164.758 50.8641 197.05 50.8641Z" fill="#0C27B1"/>
<path d="M256.013 46.3039C239.662 18.5926 209.503 0 175.003 0C157.192 0 140.54 4.95619 126.348 13.5556C126.348 13.5556 165.607 35.6833 256.013 46.3039Z" fill="#AA35A7"/>
<path d="M134.722 9.04725C155.058 18.8606 187.04 28.8689 240.771 26.8493C223.822 10.2429 200.61 0 175.003 0C160.584 0 146.931 3.24878 134.722 9.04725Z" fill="#0C27B1"/>
</g>
<g filter="url(#filter1_bd)">
<rect y="70" width="350" height="55" rx="27.5" fill="#C4C4C4" fill-opacity="0.06"/>
</g>
<path d="M63.4961 98.7783C63.4277 100.263 63.0273 101.576 62.2949 102.719C61.5625 103.852 60.5322 104.73 59.2041 105.355C57.8857 105.98 56.377 106.293 54.6777 106.293C51.875 106.293 49.668 105.38 48.0566 103.554C46.4453 101.728 45.6396 99.1494 45.6396 95.8193V94.7646C45.6396 92.6748 46.001 90.8486 46.7236 89.2861C47.4561 87.7139 48.5059 86.5029 49.873 85.6533C51.2402 84.7939 52.8223 84.3643 54.6191 84.3643C57.207 84.3643 59.2871 85.0479 60.8594 86.415C62.4316 87.7725 63.3252 89.6475 63.54 92.04H58.4131C58.374 90.7412 58.0469 89.8086 57.4316 89.2422C56.8164 88.6758 55.8789 88.3926 54.6191 88.3926C53.3398 88.3926 52.4023 88.8711 51.8066 89.8281C51.2109 90.7852 50.8984 92.3135 50.8691 94.4131V95.9219C50.8691 98.1973 51.1523 99.8232 51.7188 100.8C52.2949 101.776 53.2812 102.265 54.6777 102.265C55.8594 102.265 56.7627 101.986 57.3877 101.43C58.0127 100.873 58.3447 99.9893 58.3838 98.7783H63.4961ZM65.0781 97.9287C65.0781 96.3467 65.3857 94.9404 66.001 93.71C66.6162 92.4697 67.5 91.5176 68.6523 90.8535C69.8047 90.1895 71.1572 89.8574 72.71 89.8574C75.083 89.8574 76.9531 90.5947 78.3203 92.0693C79.6875 93.5342 80.3711 95.5312 80.3711 98.0605V98.2363C80.3711 100.707 79.6826 102.67 78.3057 104.125C76.9385 105.57 75.083 106.293 72.7393 106.293C70.4834 106.293 68.6719 105.619 67.3047 104.271C65.9375 102.914 65.2002 101.078 65.0928 98.7637L65.0781 97.9287ZM70.0146 98.2363C70.0146 99.7012 70.2441 100.775 70.7031 101.459C71.1621 102.143 71.8408 102.484 72.7393 102.484C74.4971 102.484 75.3955 101.132 75.4346 98.4268V97.9287C75.4346 95.0869 74.5264 93.666 72.71 93.666C71.0596 93.666 70.166 94.8916 70.0293 97.3428L70.0146 98.2363ZM87.0801 90.1504L87.2412 92.0107C88.335 90.5752 89.8438 89.8574 91.7676 89.8574C93.418 89.8574 94.6484 90.3506 95.459 91.3369C96.2793 92.3232 96.7041 93.8076 96.7334 95.79V106H91.7822V95.9951C91.7822 95.1943 91.6211 94.6084 91.2988 94.2373C90.9766 93.8564 90.3906 93.666 89.541 93.666C88.5742 93.666 87.8564 94.0469 87.3877 94.8086V106H82.4512V90.1504H87.0801ZM105.229 86.21V90.1504H107.837V93.5781H105.229V100.829C105.229 101.425 105.337 101.84 105.552 102.074C105.767 102.309 106.191 102.426 106.826 102.426C107.314 102.426 107.725 102.396 108.057 102.338V105.868C107.168 106.151 106.24 106.293 105.273 106.293C103.574 106.293 102.319 105.893 101.509 105.092C100.698 104.291 100.293 103.075 100.293 101.444V93.5781H98.2715V90.1504H100.293V86.21H105.229ZM117.461 106.293C115.029 106.293 113.062 105.57 111.558 104.125C110.054 102.67 109.302 100.78 109.302 98.4561V98.0459C109.302 96.4248 109.6 94.9941 110.195 93.7539C110.801 92.5137 111.68 91.5566 112.832 90.8828C113.984 90.1992 115.352 89.8574 116.934 89.8574C119.16 89.8574 120.918 90.5508 122.207 91.9375C123.496 93.3145 124.141 95.2383 124.141 97.709V99.6279H114.326C114.502 100.517 114.888 101.215 115.483 101.723C116.079 102.23 116.851 102.484 117.798 102.484C119.36 102.484 120.581 101.938 121.46 100.844L123.716 103.51C123.101 104.359 122.227 105.038 121.094 105.546C119.971 106.044 118.76 106.293 117.461 106.293ZM116.904 93.666C115.459 93.666 114.6 94.623 114.326 96.5371H119.307V96.1562C119.326 95.3652 119.126 94.7549 118.706 94.3252C118.286 93.8857 117.686 93.666 116.904 93.666ZM130.674 90.1504L130.835 92.0107C131.929 90.5752 133.438 89.8574 135.361 89.8574C137.012 89.8574 138.242 90.3506 139.053 91.3369C139.873 92.3232 140.298 93.8076 140.327 95.79V106H135.376V95.9951C135.376 95.1943 135.215 94.6084 134.893 94.2373C134.57 93.8564 133.984 93.666 133.135 93.666C132.168 93.666 131.45 94.0469 130.981 94.8086V106H126.045V90.1504H130.674ZM148.281 106H143.33V90.1504H148.281V106ZM143.037 86.0635C143.037 85.3604 143.291 84.7842 143.799 84.335C144.307 83.8857 144.966 83.6611 145.776 83.6611C146.587 83.6611 147.246 83.8857 147.754 84.335C148.262 84.7842 148.516 85.3604 148.516 86.0635C148.516 86.7666 148.262 87.3428 147.754 87.792C147.246 88.2412 146.587 88.4658 145.776 88.4658C144.966 88.4658 144.307 88.2412 143.799 87.792C143.291 87.3428 143.037 86.7666 143.037 86.0635ZM150.713 97.958C150.713 95.4482 151.255 93.4707 152.339 92.0254C153.423 90.5801 154.937 89.8574 156.88 89.8574C158.296 89.8574 159.487 90.4141 160.454 91.5273V83.5H165.405V106H160.967L160.718 104.301C159.702 105.629 158.413 106.293 156.851 106.293C154.966 106.293 153.472 105.57 152.368 104.125C151.265 102.68 150.713 100.624 150.713 97.958ZM155.649 98.2656C155.649 101.078 156.47 102.484 158.11 102.484C159.204 102.484 159.985 102.025 160.454 101.107V95.0723C160.005 94.1348 159.233 93.666 158.14 93.666C156.616 93.666 155.791 94.8965 155.664 97.3574L155.649 98.2656ZM167.588 97.9287C167.588 96.3467 167.896 94.9404 168.511 93.71C169.126 92.4697 170.01 91.5176 171.162 90.8535C172.314 90.1895 173.667 89.8574 175.22 89.8574C177.593 89.8574 179.463 90.5947 180.83 92.0693C182.197 93.5342 182.881 95.5312 182.881 98.0605V98.2363C182.881 100.707 182.192 102.67 180.815 104.125C179.448 105.57 177.593 106.293 175.249 106.293C172.993 106.293 171.182 105.619 169.814 104.271C168.447 102.914 167.71 101.078 167.603 98.7637L167.588 97.9287ZM172.524 98.2363C172.524 99.7012 172.754 100.775 173.213 101.459C173.672 102.143 174.351 102.484 175.249 102.484C177.007 102.484 177.905 101.132 177.944 98.4268V97.9287C177.944 95.0869 177.036 93.666 175.22 93.666C173.569 93.666 172.676 94.8916 172.539 97.3428L172.524 98.2363ZM207.241 98.1924C207.241 100.653 206.685 102.621 205.571 104.096C204.468 105.561 202.974 106.293 201.089 106.293C199.634 106.293 198.438 105.761 197.5 104.696V112.094H192.563V90.1504H197.178L197.324 91.6152C198.271 90.4434 199.517 89.8574 201.06 89.8574C203.013 89.8574 204.531 90.5801 205.615 92.0254C206.699 93.4609 207.241 95.4385 207.241 97.958V98.1924ZM202.305 97.8848C202.305 95.0723 201.484 93.666 199.844 93.666C198.672 93.666 197.891 94.0859 197.5 94.9258V101.166C197.93 102.045 198.721 102.484 199.873 102.484C201.445 102.484 202.256 101.127 202.305 98.4121V97.8848ZM218.359 106C218.184 105.678 218.027 105.204 217.891 104.579C216.982 105.722 215.713 106.293 214.082 106.293C212.588 106.293 211.318 105.844 210.273 104.945C209.229 104.037 208.706 102.899 208.706 101.532C208.706 99.8135 209.341 98.5146 210.61 97.6357C211.88 96.7568 213.726 96.3174 216.147 96.3174H217.671V95.4824C217.671 94.0273 217.041 93.2998 215.781 93.2998C214.609 93.2998 214.023 93.876 214.023 95.0283H209.087C209.087 93.4951 209.736 92.25 211.035 91.293C212.344 90.3359 214.009 89.8574 216.03 89.8574C218.052 89.8574 219.648 90.3506 220.82 91.3369C221.992 92.3232 222.593 93.6758 222.622 95.3945V102.411C222.642 103.866 222.866 104.979 223.296 105.751V106H218.359ZM215.269 102.777C215.884 102.777 216.392 102.646 216.792 102.382C217.202 102.118 217.495 101.82 217.671 101.488V98.9541H216.235C214.517 98.9541 213.657 99.7256 213.657 101.269C213.657 101.718 213.809 102.084 214.111 102.367C214.414 102.641 214.8 102.777 215.269 102.777ZM234.956 94.6182L233.33 94.501C231.777 94.501 230.781 94.9893 230.342 95.9658V106H225.405V90.1504H230.034L230.195 92.1865C231.025 90.6338 232.183 89.8574 233.667 89.8574C234.194 89.8574 234.653 89.916 235.044 90.0332L234.956 94.6182ZM245.225 106C245.049 105.678 244.893 105.204 244.756 104.579C243.848 105.722 242.578 106.293 240.947 106.293C239.453 106.293 238.184 105.844 237.139 104.945C236.094 104.037 235.571 102.899 235.571 101.532C235.571 99.8135 236.206 98.5146 237.476 97.6357C238.745 96.7568 240.591 96.3174 243.013 96.3174H244.536V95.4824C244.536 94.0273 243.906 93.2998 242.646 93.2998C241.475 93.2998 240.889 93.876 240.889 95.0283H235.952C235.952 93.4951 236.602 92.25 237.9 91.293C239.209 90.3359 240.874 89.8574 242.896 89.8574C244.917 89.8574 246.514 90.3506 247.686 91.3369C248.857 92.3232 249.458 93.6758 249.487 95.3945V102.411C249.507 103.866 249.731 104.979 250.161 105.751V106H245.225ZM242.134 102.777C242.749 102.777 243.257 102.646 243.657 102.382C244.067 102.118 244.36 101.82 244.536 101.488V98.9541H243.101C241.382 98.9541 240.522 99.7256 240.522 101.269C240.522 101.718 240.674 102.084 240.977 102.367C241.279 102.641 241.665 102.777 242.134 102.777ZM269.292 94.6182L267.666 94.501C266.113 94.501 265.117 94.9893 264.678 95.9658V106H259.741V90.1504H264.37L264.531 92.1865C265.361 90.6338 266.519 89.8574 268.003 89.8574C268.53 89.8574 268.989 89.916 269.38 90.0332L269.292 94.6182ZM278.447 106.293C276.016 106.293 274.048 105.57 272.544 104.125C271.04 102.67 270.288 100.78 270.288 98.4561V98.0459C270.288 96.4248 270.586 94.9941 271.182 93.7539C271.787 92.5137 272.666 91.5566 273.818 90.8828C274.971 90.1992 276.338 89.8574 277.92 89.8574C280.146 89.8574 281.904 90.5508 283.193 91.9375C284.482 93.3145 285.127 95.2383 285.127 97.709V99.6279H275.312C275.488 100.517 275.874 101.215 276.47 101.723C277.065 102.23 277.837 102.484 278.784 102.484C280.347 102.484 281.567 101.938 282.446 100.844L284.702 103.51C284.087 104.359 283.213 105.038 282.08 105.546C280.957 106.044 279.746 106.293 278.447 106.293ZM277.891 93.666C276.445 93.666 275.586 94.623 275.312 96.5371H280.293V96.1562C280.312 95.3652 280.112 94.7549 279.692 94.3252C279.272 93.8857 278.672 93.666 277.891 93.666ZM292.334 106H287.383V90.1504H292.334V106ZM287.09 86.0635C287.09 85.3604 287.344 84.7842 287.852 84.335C288.359 83.8857 289.019 83.6611 289.829 83.6611C290.64 83.6611 291.299 83.8857 291.807 84.335C292.314 84.7842 292.568 85.3604 292.568 86.0635C292.568 86.7666 292.314 87.3428 291.807 87.792C291.299 88.2412 290.64 88.4658 289.829 88.4658C289.019 88.4658 288.359 88.2412 287.852 87.792C287.344 87.3428 287.09 86.7666 287.09 86.0635ZM304.976 94.6182L303.35 94.501C301.797 94.501 300.801 94.9893 300.361 95.9658V106H295.425V90.1504H300.054L300.215 92.1865C301.045 90.6338 302.202 89.8574 303.687 89.8574C304.214 89.8574 304.673 89.916 305.063 90.0332L304.976 94.6182Z" fill="white"/>
<defs>
<filter id="filter0_d" x="81" y="0" width="200" height="200" filterUnits="userSpaceOnUse" color-interpolation-filters="sRGB">
<feFlood flood-opacity="0" result="BackgroundImageFix"/>
<feColorMatrix in="SourceAlpha" type="matrix" values="0 0 0 0 0 0 0 0 0 0 0 0 0 0 0 0 0 0 127 0"/>
<feOffset dx="8" dy="8"/>
<feGaussianBlur stdDeviation="2"/>
<feColorMatrix type="matrix" values="0 0 0 0 0 0 0 0 0 0 0 0 0 0 0 0 0 0 0.25 0"/>
<feBlend mode="normal" in2="BackgroundImageFix" result="effect1_dropShadow"/>
<feBlend mode="normal" in="SourceGraphic" in2="effect1_dropShadow" result="shape"/>
</filter>
<filter id="filter1_bd" x="-50" y="20" width="450" height="155" filterUnits="userSpaceOnUse" color-interpolation-filters="sRGB">
<feFlood flood-opacity="0" result="BackgroundImageFix"/>
<feGaussianBlur in="BackgroundImage" stdDeviation="25"/>
<feComposite in2="SourceAlpha" operator="in" result="effect1_backgroundBlur"/>
<feColorMatrix in="SourceAlpha" type="matrix" values="0 0 0 0 0 0 0 0 0 0 0 0 0 0 0 0 0 0 127 0"/>
<feOffset dx="5" dy="4"/>
<feGaussianBlur stdDeviation="2"/>
<feColorMatrix type="matrix" values="0 0 0 0 0 0 0 0 0 0 0 0 0 0 0 0 0 0 0.25 0"/>
<feBlend mode="normal" in2="effect1_backgroundBlur" result="effect2_dropShadow"/>
<feBlend mode="normal" in="SourceGraphic" in2="effect2_dropShadow" result="shape"/>
</filter>
</defs>
</svg>
