<svg width="22" height="44" viewBox="0 0 22 44" fill="none" xmlns="http://www.w3.org/2000/svg">
<path d="M21.9926 22.0345C21.994 22.7676 21.7384 23.478 21.2701 24.0424L5.56392 42.8666C5.03073 43.5073 4.26455 43.9102 3.43392 43.9867C2.6033 44.0632 1.77627 43.807 1.13478 43.2745C0.493284 42.7419 0.0898746 41.9767 0.0132922 41.1471C-0.0632902 40.3175 0.193227 39.4915 0.726416 38.8508L14.7991 22.0345L1.22902 5.21822C0.968086 4.89731 0.77323 4.52806 0.655648 4.13168C0.538066 3.73531 0.500077 3.31964 0.543863 2.90855C0.587649 2.49747 0.712346 2.09908 0.91079 1.73629C1.10923 1.37349 1.37751 1.05344 1.7002 0.79454C2.02319 0.507221 2.4021 0.289616 2.81321 0.155357C3.22431 0.0211029 3.65875 -0.0269089 4.08929 0.014328C4.51984 0.0555611 4.93722 0.185154 5.31529 0.394989C5.69336 0.604828 6.02397 0.890388 6.2864 1.23378L21.4586 20.058C21.8528 20.6386 22.0409 21.3346 21.9926 22.0345Z" fill="white"/>
</svg>
