<svg width="56" height="45" viewBox="0 0 56 45" fill="none" xmlns="http://www.w3.org/2000/svg">
<path d="M55.3549 5.33782C53.3193 6.23984 51.1325 6.84932 48.8335 7.1248C51.2056 5.70544 52.9803 3.47153 53.8263 0.839901C51.5977 2.16365 49.1586 3.09543 46.615 3.59473C44.9046 1.76841 42.639 0.5579 40.17 0.151131C37.7011 -0.255637 35.1669 0.164095 32.961 1.34516C30.755 2.52623 29.0007 4.40255 27.9704 6.68282C26.9401 8.96309 26.6914 11.5197 27.263 13.9558C22.7473 13.7291 18.3296 12.5553 14.2969 10.5108C10.2641 8.46628 6.70627 5.59663 3.85432 2.0881C2.87916 3.77025 2.31844 5.72057 2.31844 7.79766C2.31735 9.66752 2.77782 11.5087 3.65899 13.1579C4.54016 14.8072 5.81478 16.2134 7.36976 17.2518C5.56639 17.1944 3.80281 16.7072 2.2258 15.8305V15.9768C2.22562 18.5994 3.13278 21.1412 4.79335 23.171C6.45393 25.2009 8.76564 26.5937 11.3362 27.1131C9.6633 27.5659 7.90936 27.6326 6.20689 27.3082C6.93216 29.5647 8.34491 31.538 10.2474 32.9517C12.1498 34.3654 14.4468 35.1489 16.8166 35.1923C12.7937 38.3504 7.82538 40.0635 2.71094 40.0559C1.80497 40.0562 0.89977 40.0033 0 39.8975C5.19144 43.2354 11.2347 45.0069 17.4066 45C38.2994 45 49.7209 27.6958 49.7209 12.6881C49.7209 12.2005 49.7087 11.708 49.6868 11.2205C51.9084 9.61383 53.8261 7.62432 55.35 5.34514L55.3549 5.33782Z" fill="white"/>
</svg>
