<svg width="68" height="45" viewBox="0 0 68 45" fill="none" xmlns="http://www.w3.org/2000/svg">
<path d="M66.0545 7.0605C65.6725 5.69794 64.9285 4.46434 63.9015 3.49084C62.8454 2.48741 61.5511 1.76964 60.1407 1.40526C54.8621 0.0139379 33.7139 0.0139382 33.7139 0.0139382C24.8975 -0.0863702 16.0833 0.354811 7.32094 1.33499C5.91048 1.72629 4.61858 2.4601 3.56015 3.47117C2.52017 4.4718 1.76689 5.70572 1.37338 7.05769C0.428107 12.1501 -0.0311735 17.3207 0.00173475 22.5C-0.0319943 27.6746 0.426159 32.8436 1.37338 37.9423C1.75846 39.2886 2.50893 40.5169 3.55172 41.5091C4.59451 42.5013 5.89308 43.2181 7.32094 43.5975C12.6698 44.986 33.7139 44.986 33.7139 44.986C42.5416 45.0865 51.3671 44.6453 60.1407 43.665C61.5511 43.3006 62.8454 42.5828 63.9015 41.5794C64.9414 40.5872 65.6807 39.3533 66.0517 38.0097C67.0217 32.9193 67.4933 27.7465 67.4599 22.5646C67.5328 17.3608 67.0618 12.1636 66.0545 7.05769V7.0605ZM26.9906 32.124V12.8788L44.5859 22.5028L26.9906 32.124Z" fill="white"/>
</svg>
