<svg width="189" height="63" viewBox="0 0 189 63" fill="none" xmlns="http://www.w3.org/2000/svg">
<g filter="url(#filter0_i)">
<path d="M140.637 51.7101C136.767 57.0806 130.971 61.0003 124.438 62.2147C118.863 63.2508 111.592 62.3604 107.4 58.1195C106.484 57.1934 106.035 55.7602 106.726 54.5694C106.679 55.031 106.788 55.5403 107.096 56.053C107.217 56.3919 107.423 56.7507 107.722 57.0749C114.2 64.0968 126.914 62.0829 133.979 56.9188C126.945 59.1877 120.114 57.4895 114.395 53.3544C114.111 53.149 113.784 52.9863 113.464 52.8517C113.026 52.5742 112.56 52.3773 112.078 52.2472C113.331 52.2514 114.623 52.5465 115.681 53.1626C123.642 57.8024 133.072 57.4864 140.637 51.7101Z" fill="#071742"/>
<path d="M112.885 56.1528C112.344 57.4111 110.883 57.9935 109.628 57.4516C108.373 56.9097 107.792 55.4454 108.334 54.1865C108.874 52.9288 110.335 52.3467 111.591 52.8891C112.845 53.4304 113.426 54.8948 112.885 56.1528Z" fill="#071742"/>
<path fill-rule="evenodd" clip-rule="evenodd" d="M51.0138 0.524034C64.1672 -1.94114 76.925 4.49253 83.1351 15.5893C85.1037 19.1067 89.8909 20.9609 92.7076 18.0809C94.7036 16.0399 95.6009 14.3537 95.3383 12.9427C95.0889 11.601 93.6188 10.536 91.2389 10.3578H85.0983C83.6796 10.3578 83.2683 9.18176 84.6824 9.06701L88.0993 8.78917L90.8148 8.55003L92.087 8.56332C93.8178 8.56332 103.987 8.22013 104.385 10.3578C104.924 13.2575 99.4097 19.4699 89.9421 25.6325C88.099 26.8322 87.07 28.9415 87.0304 31.144C86.9201 37.2899 84.9569 43.1259 81.5946 47.9891C83.5281 44.5775 84.7876 40.7669 85.2278 36.7679C85.6598 32.843 81.3529 30.7396 77.8676 32.5798C70.8429 36.2886 62.7977 40.0822 54.1901 43.6684C25.3397 55.6908 1.08913 60.8408 0.0355679 55.1694C-0.692204 51.2573 9.81024 43.2158 25.8654 34.6562C13.8721 41.8297 6.29065 48.4442 6.93117 51.8915C7.84228 56.7913 25.0537 53.6186 46.7112 44.9006C29.0315 51.007 15.7539 52.7483 14.972 48.5417C14.4845 45.9155 18.9576 41.4695 26.5756 36.4133C26.655 36.3606 26.6963 36.2642 26.6782 36.1704C23.5959 19.5816 34.4927 3.61821 51.0138 0.524034ZM80.5932 27.1972C82.7006 25.8772 83.6494 23.2592 82.585 21.0081C77.0601 9.32253 64.2231 2.34841 50.964 4.83261C39.4001 6.99972 30.7182 15.7604 28.0531 26.522C27.0224 30.6838 31.6783 33.1494 35.4152 31.0624C35.731 30.8859 36.0499 30.7093 36.3711 30.5325C33.6288 32.24 31.1669 33.9177 29.0502 35.52C28.0011 36.3141 27.4583 37.6183 27.6976 38.9138C27.9438 40.2367 28.2761 41.5208 28.6872 42.7652C27.6285 40.3174 24.4163 39.2215 22.7055 41.2649C21.2162 43.0438 20.5011 44.5767 20.7191 45.7497C21.6501 50.7591 39.2458 47.305 60.0121 38.0347C67.7299 34.5893 74.8012 30.8247 80.5932 27.1972Z" fill="#071742"/>
<path d="M99.8467 30.1711C99.8572 30.3927 100.16 30.4817 100.288 30.3012C100.688 29.7392 101.107 29.2183 101.545 28.7391C101.793 28.4622 102.062 28.1924 102.352 27.9295C102.642 27.6666 102.939 27.4313 103.242 27.2237C103.56 27.0162 103.884 26.8501 104.216 26.7256C104.547 26.601 104.878 26.5388 105.21 26.5388C105.914 26.5388 106.466 26.7532 106.866 27.1822C107.267 27.5974 107.467 28.1855 107.467 28.9465C107.467 29.417 107.425 29.8738 107.342 30.3165C107.28 30.7013 107.157 31.1641 106.973 31.7052C106.935 31.8185 106.828 31.8939 106.708 31.8939H106.561C106.426 31.8939 106.311 31.797 106.272 31.6672C106.171 31.339 105.996 31.0618 105.748 30.8354C105.444 30.5449 105.003 30.3995 104.423 30.3995C103.995 30.3995 103.574 30.4826 103.16 30.6486C102.746 30.8008 102.338 30.9947 101.938 31.2299C101.551 31.4651 101.179 31.721 100.82 31.9979C100.514 32.2433 100.229 32.4783 99.9663 32.7019C99.9032 32.7554 99.8673 32.8342 99.8673 32.917V46.2578C99.8673 46.4377 99.8396 46.6523 99.7845 46.9014C99.7294 47.1505 99.5911 47.3857 99.3703 47.6071C99.1634 47.8284 98.8459 48.0152 98.4178 48.1673C98.0037 48.3334 97.4309 48.4165 96.6992 48.4165C95.9675 48.4165 95.3877 48.3266 94.9599 48.1467C94.5458 47.9806 94.2283 47.7799 94.0072 47.5447C93.7864 47.3095 93.6484 47.0675 93.5933 46.8184C93.5379 46.5692 93.5105 46.3686 93.5105 46.2164V30.1921C93.5105 29.7908 93.4138 29.4448 93.2204 29.1543C93.0409 28.8496 92.7305 28.6974 92.2886 28.6974C92.0539 28.6974 91.8538 28.7391 91.6881 28.8221C91.5872 28.8726 91.4811 28.936 91.37 29.0123C91.2442 29.0987 91.072 29.082 90.9739 28.965L90.8982 28.8748C90.7972 28.7541 90.8134 28.5739 90.9375 28.4772C91.1947 28.2767 91.4727 28.0803 91.7709 27.888C92.1712 27.625 92.5993 27.3967 93.0547 27.203C93.5105 27.0093 94.0004 26.8501 94.5248 26.7256C95.0496 26.601 95.6017 26.5388 96.1816 26.5388C96.775 26.5388 97.2791 26.6218 97.6932 26.7878C98.121 26.9401 98.4662 27.1476 98.7285 27.4106C99.0045 27.6596 99.2185 27.9433 99.3703 28.2616C99.5221 28.5798 99.6327 28.9052 99.7017 29.237C99.7845 29.5556 99.8328 29.8667 99.8467 30.1711Z" fill="#071742"/>
<path d="M121.775 37.7476C121.775 36.5437 121.713 35.4158 121.589 34.3641C121.465 33.2988 121.264 32.3715 120.988 31.5828C120.712 30.7802 120.36 30.1505 119.932 29.6939C119.504 29.2235 118.987 28.9882 118.379 28.9882C117.91 28.9882 117.509 29.1058 117.178 29.3411C116.861 29.5624 116.598 29.8183 116.391 30.1091C116.184 30.3996 116.032 30.6901 115.936 30.9808C115.839 31.2574 115.791 31.4445 115.791 31.5411V37.7476C115.791 40.7641 116.039 42.9576 116.536 44.3276C117.047 45.6975 117.792 46.3825 118.773 46.3825C119.808 46.3825 120.567 45.6837 121.05 44.2859C121.534 42.8882 121.775 40.7088 121.775 37.7476ZM109.434 19.4399C109.434 19.0387 109.337 18.6927 109.144 18.4021C108.965 18.0977 108.654 17.9454 108.212 17.9454C107.978 17.9454 107.77 17.987 107.591 18.07C107.491 18.1118 107.386 18.1688 107.275 18.2411C107.147 18.3249 106.975 18.3084 106.877 18.1905L106.82 18.1226C106.72 18.002 106.737 17.8224 106.86 17.726C107.118 17.5252 107.396 17.3285 107.695 17.1359C108.095 16.873 108.523 16.6447 108.978 16.4509C109.434 16.2572 109.924 16.0981 110.449 15.9735C110.973 15.849 111.525 15.7867 112.105 15.7867C112.906 15.7867 113.548 15.9113 114.031 16.1604C114.528 16.3956 114.9 16.6931 115.149 17.0529C115.411 17.3988 115.584 17.7794 115.667 18.1945C115.749 18.5958 115.791 18.9694 115.791 19.3154V27.9287C115.791 28.1753 116.086 28.3078 116.274 28.1478C116.325 28.1042 116.377 28.0591 116.433 28.0125C116.695 27.7773 117.026 27.549 117.427 27.3276C117.827 27.1062 118.303 26.9194 118.855 26.7671C119.421 26.6149 120.084 26.5388 120.843 26.5388C121.727 26.5388 122.61 26.7464 123.494 27.1615C124.377 27.5628 125.171 28.1994 125.875 29.0713C126.579 29.943 127.152 31.0639 127.594 32.4338C128.035 33.8038 128.256 35.4503 128.256 37.3738C128.256 38.8823 128.049 40.3075 127.635 41.6497C127.235 42.9922 126.634 44.1683 125.834 45.1784C125.033 46.1748 124.032 46.9635 122.831 47.5448C121.63 48.126 120.236 48.4165 118.648 48.4165C116.923 48.4165 115.466 48.1399 114.279 47.5864C113.106 47.019 112.16 46.2649 111.442 45.3237C110.724 44.369 110.207 43.262 109.889 42.0026C109.586 40.7434 109.434 39.4151 109.434 38.0174V19.4399Z" fill="#071742"/>
<path d="M170.746 44.4726C170.746 44.5973 170.753 44.7356 170.767 44.8878C170.781 45.0261 170.815 45.1647 170.871 45.303C170.926 45.4274 171.009 45.5314 171.119 45.6145C171.23 45.6975 171.388 45.7389 171.595 45.7389C171.858 45.7389 172.092 45.649 172.299 45.4691C172.436 45.3418 172.566 45.2143 172.69 45.0871C172.797 44.9774 172.971 44.968 173.086 45.0689L173.183 45.1548C173.293 45.2506 173.312 45.4144 173.224 45.5303C173.045 45.7661 172.834 46.0226 172.589 46.2994C172.286 46.6452 171.913 46.9773 171.471 47.2956C171.029 47.6139 170.526 47.8769 169.96 48.0843C169.394 48.3059 168.752 48.4165 168.034 48.4165C167.427 48.4165 166.895 48.3334 166.44 48.1673C165.998 48.0152 165.618 47.8077 165.301 47.5447C164.997 47.2681 164.769 46.9496 164.617 46.5899C164.465 46.2164 164.39 45.8219 164.39 45.4067V45.1959C164.39 44.9383 164.071 44.8113 163.889 44.9933C163.351 45.5292 162.793 46.0129 162.215 46.4445C161.884 46.6937 161.532 46.936 161.159 47.1712C160.786 47.4064 160.4 47.6209 160 47.8145C159.599 47.9945 159.185 48.1399 158.757 48.2504C158.329 48.3612 157.901 48.4165 157.474 48.4165C156.645 48.4165 155.934 48.2713 155.341 47.9806C154.761 47.6762 154.292 47.2817 153.933 46.7974C153.574 46.3131 153.311 45.7667 153.146 45.1576C152.98 44.5489 152.897 43.9399 152.897 43.3311V30.4826C152.897 30.3582 152.89 30.2267 152.877 30.0881C152.863 29.9359 152.828 29.7976 152.773 29.6732C152.718 29.5346 152.635 29.4241 152.525 29.341C152.414 29.258 152.255 29.2163 152.048 29.2163C151.8 29.2163 151.565 29.3133 151.344 29.5071C151.212 29.6219 151.088 29.7392 150.973 29.8596C150.866 29.9719 150.689 29.9869 150.571 29.8869L150.468 29.8001C150.355 29.7049 150.333 29.5386 150.423 29.4207C150.598 29.1888 150.802 28.9409 151.034 28.6767C151.351 28.3169 151.731 27.9779 152.173 27.6596C152.614 27.3413 153.118 27.0784 153.684 26.8709C154.264 26.6495 154.906 26.5388 155.61 26.5388C156.217 26.5388 156.749 26.6218 157.204 26.7878C157.66 26.9401 158.04 27.1546 158.343 27.4313C158.647 27.6942 158.875 28.0125 159.026 28.3862C159.178 28.7459 159.254 29.1333 159.254 29.5485V43.4141C159.254 43.608 159.282 43.8086 159.337 44.0161C159.406 44.2099 159.496 44.3896 159.606 44.5557C159.73 44.7218 159.882 44.8601 160.062 44.9709C160.241 45.0678 160.455 45.1162 160.704 45.1162C161.104 45.1162 161.505 45.0125 161.905 44.8048C162.305 44.5973 162.671 44.355 163.002 44.0784C163.333 43.7877 163.616 43.504 163.851 43.2274C164.057 42.9978 164.216 42.8159 164.327 42.6816C164.368 42.632 164.39 42.5696 164.39 42.5053V30.4826C164.39 30.3582 164.383 30.2267 164.369 30.0881C164.355 29.9359 164.32 29.7976 164.265 29.6732C164.21 29.5346 164.127 29.4241 164.017 29.341C163.906 29.258 163.748 29.2163 163.541 29.2163C163.292 29.2163 163.057 29.3133 162.836 29.5071C162.704 29.6219 162.581 29.7392 162.465 29.8596C162.358 29.9719 162.182 29.9869 162.063 29.8869L161.96 29.8001C161.847 29.7049 161.826 29.5386 161.915 29.4207C162.09 29.1888 162.294 28.9409 162.526 28.6767C162.843 28.3169 163.223 27.9779 163.665 27.6596C164.107 27.3413 164.61 27.0784 165.176 26.8709C165.756 26.6495 166.398 26.5388 167.102 26.5388C167.71 26.5388 168.241 26.6218 168.697 26.7878C169.152 26.9401 169.532 27.1546 169.835 27.4313C170.139 27.6942 170.367 28.0125 170.519 28.3862C170.67 28.7459 170.746 29.1333 170.746 29.5485V44.4726Z" fill="#071742"/>
<path d="M182.86 28.1993C182.543 28.1993 182.239 28.2408 181.949 28.3238C181.673 28.4069 181.424 28.5452 181.203 28.7391C180.983 28.9188 180.81 29.1543 180.686 29.4448C180.562 29.7214 180.499 30.0535 180.499 30.4412C180.499 30.9808 180.693 31.5204 181.079 32.06C181.48 32.586 181.969 33.1394 182.549 33.7207C183.143 34.2881 183.778 34.8829 184.454 35.5058C185.145 36.1146 185.78 36.765 186.36 37.4568C186.953 38.135 187.443 38.8613 187.83 39.6364C188.23 40.4112 188.43 41.2416 188.43 42.1272C188.43 43.1237 188.257 44.0093 187.912 44.7841C187.581 45.5589 187.098 46.2164 186.463 46.756C185.842 47.2956 185.082 47.7108 184.185 48.0013C183.302 48.2782 182.315 48.4165 181.224 48.4165C180.272 48.4165 179.409 48.285 178.636 48.0222C177.863 47.7454 177.172 47.4132 176.565 47.0258C175.971 46.6245 175.461 46.2025 175.033 45.7596C174.692 45.4065 174.412 45.0797 174.193 44.7793C174.104 44.6566 174.136 44.486 174.26 44.3975L174.554 44.1867C174.673 44.1017 174.836 44.1215 174.937 44.2278C175.083 44.3822 175.253 44.5469 175.447 44.7218C175.723 44.957 176.027 45.1783 176.358 45.386C176.703 45.5935 177.069 45.7667 177.455 45.905C177.842 46.0294 178.235 46.0917 178.636 46.0917C179.63 46.0917 180.444 45.8565 181.079 45.386C181.714 44.9017 182.032 44.189 182.032 43.2481C182.032 42.7224 181.859 42.1825 181.514 41.629C181.169 41.0616 180.734 40.4804 180.21 39.8855C179.685 39.2904 179.119 38.6745 178.512 38.038C177.904 37.4015 177.338 36.7443 176.814 36.0661C176.289 35.3882 175.854 34.6894 175.509 33.9698C175.164 33.2503 174.991 32.5029 174.991 31.7281C174.991 30.8561 175.164 30.0952 175.509 29.4448C175.868 28.7943 176.337 28.2547 176.917 27.8257C177.511 27.3967 178.18 27.0784 178.926 26.8709C179.685 26.6495 180.465 26.5388 181.266 26.5388C182.191 26.5388 183.033 26.6218 183.792 26.7878C184.551 26.9539 185.2 27.2099 185.738 27.5559C186.29 27.888 186.711 28.31 187.001 28.8221C187.305 29.3339 187.457 29.9291 187.457 30.607C187.457 31.133 187.284 31.5895 186.939 31.9769C186.594 32.3646 186.111 32.5582 185.49 32.5582C184.896 32.5582 184.44 32.4338 184.123 32.1847C183.819 31.9217 183.667 31.5688 183.667 31.1262C183.667 30.8354 183.736 30.607 183.875 30.4412C184.027 30.2751 184.192 30.1436 184.371 30.0467C184.551 29.9359 184.71 29.846 184.848 29.7769C185 29.6939 185.076 29.5901 185.076 29.4654C185.076 29.078 184.868 28.7737 184.454 28.5523C184.04 28.3169 183.509 28.1993 182.86 28.1993Z" fill="#071742"/>
<path d="M148.777 29.7976C148.777 32.3301 148.528 34.7792 148.031 37.1456C147.548 39.4981 146.872 41.712 146.002 43.7877C145.146 45.8497 144.125 47.7315 142.937 49.4336C141.847 51.0099 140.934 51.6685 139.712 52.7091C139.555 52.8426 139.312 52.7743 139.253 52.5773C138.559 50.286 136.383 43.2319 135.856 41.6707C135.303 39.996 134.73 38.3841 134.137 36.8341C133.557 35.2706 132.984 33.8868 132.418 32.6829C131.866 31.479 131.328 30.5171 130.803 29.7976C130.292 29.0641 129.837 28.6974 129.437 28.6974C129.174 28.6974 128.974 28.7391 128.836 28.8221C128.746 28.8714 128.648 28.9329 128.543 29.0069C128.416 29.0965 128.24 29.0769 128.143 28.9556L128.076 28.8709C127.98 28.751 127.997 28.577 128.114 28.4784C128.326 28.2993 128.546 28.1163 128.774 27.9295C129.078 27.6804 129.437 27.4521 129.851 27.2445C130.265 27.0369 130.748 26.8709 131.3 26.7463C131.852 26.608 132.515 26.5388 133.288 26.5388C134.13 26.5388 134.91 26.7325 135.628 27.12C136.359 27.4936 137.022 28.1924 137.616 29.2163C138.044 29.9775 138.485 30.8907 138.941 31.9562C139.41 33.0218 139.88 34.2118 140.349 35.5265C140.818 36.8412 141.288 38.2665 141.757 39.8025C142.171 41.1061 142.585 42.4659 142.998 43.8815C143.072 44.1314 143.412 44.1584 143.518 43.9206C144.232 42.3231 144.818 40.6459 145.277 38.8891C145.802 36.8687 146.064 34.7931 146.064 32.6619C146.064 31.901 146.016 31.2506 145.919 30.711C145.822 30.1711 145.712 29.7145 145.588 29.341C145.463 28.9536 145.353 28.6283 145.256 28.3653C145.16 28.0886 145.111 27.8465 145.111 27.6389C145.111 27.4313 145.194 27.2583 145.36 27.12C145.526 26.9677 145.726 26.8501 145.96 26.7671C146.195 26.6841 146.43 26.6287 146.664 26.601C146.913 26.5595 147.12 26.5388 147.286 26.5388C147.658 26.5388 147.941 26.6149 148.135 26.7671C148.342 26.9193 148.494 27.1407 148.59 27.4313C148.687 27.7081 148.742 28.0471 148.756 28.4483C148.77 28.8496 148.777 29.2994 148.777 29.7976Z" fill="#071742"/>
</g>
<defs>
<filter id="filter0_i" x="0" y="0" width="188.43" height="66.6084" filterUnits="userSpaceOnUse" color-interpolation-filters="sRGB">
<feFlood flood-opacity="0" result="BackgroundImageFix"/>
<feBlend mode="normal" in="SourceGraphic" in2="BackgroundImageFix" result="shape"/>
<feColorMatrix in="SourceAlpha" type="matrix" values="0 0 0 0 0 0 0 0 0 0 0 0 0 0 0 0 0 0 127 0" result="hardAlpha"/>
<feOffset dy="4"/>
<feGaussianBlur stdDeviation="2"/>
<feComposite in2="hardAlpha" operator="arithmetic" k2="-1" k3="1"/>
<feColorMatrix type="matrix" values="0 0 0 0 0 0 0 0 0 0 0 0 0 0 0 0 0 0 1 0"/>
<feBlend mode="normal" in2="shape" result="effect1_innerShadow"/>
</filter>
</defs>
</svg>
